<?xml version="1.0" encoding="utf-8"?>
<!-- Generator: Adobe Illustrator 18.0.0, SVG Export Plug-In . SVG Version: 6.00 Build 0)  -->
<!DOCTYPE svg PUBLIC "-//W3C//DTD SVG 1.1//EN" "http://www.w3.org/Graphics/SVG/1.1/DTD/svg11.dtd">
<svg version="1.1" id="Layer_1" xmlns="http://www.w3.org/2000/svg" xmlns:xlink="http://www.w3.org/1999/xlink" x="0px" y="0px"
	 viewBox="0 0 98 98" enable-background="new 0 0 98 98" xml:space="preserve">
<g>
	<path fill="#555655" d="M33,75.7v-21h2.9v21H33z"/>
	<path fill="#555655" d="M40.3,75.7v-21h2.9v18.4h3.9v2.5H40.3z"/>
	<path fill="#555655" d="M50,75.7v-21h2.9v18.4h3.9v2.5H50z"/>
	<path fill="#555655" d="M59.8,75.7v-6.9h-0.9l0.9-2.3V54.8h6.9v2.3h-4v9.4h3.2v2.3h-3.2v4.4h4v2.5H59.8z"/>
	<path fill="#555655" d="M75.2,67.8c0.6,0.8,1.4,1.9,2,3.3c0.7,1.6,0.9,3.3,0.9,4.7h-2.8c0-1.2-0.2-2.5-0.7-3.7
		c-0.5-1.2-1.2-2.3-1.7-2.8v6.5H70v-21h2.3c3,0,5.9,1.6,5.9,6.3C78.2,65.1,76.1,67.1,75.2,67.8z M72.9,57.1v9.2
		c0.6-0.1,2.4-1.7,2.4-5.2C75.3,58,74.1,57.1,72.9,57.1z"/>
	<path fill="#555655" d="M27.4,67.7l2.4,8h-2.9L24.4,67l-1.2,2.7v5.9h-2.9V54.8h2.9v8.9l3.2-8.9h3l-3,9L27.4,67.7"/>
</g>
<g>
	<g>
		<g>
			<path fill="#555655" d="M42.3,91.8v-7.1h1.3v7.1H42.3z"/>
			<path fill="#555655" d="M49.1,91.8l-2.1-4v4h-1.2v-7.1h0.6l2.1,4.1v-4.1h1.2v7.1H49.1z"/>
			<path fill="#555655" d="M53.9,91.8c-1,0-2.5-0.3-2.5-3.6c0-3.3,1.6-3.6,2.5-3.6c0.4,0,0.6,0.1,0.6,0.1v0.8c-0.1,0-0.3,0-0.4,0
				c-0.6,0-1.5,0.3-1.5,2.8c0,2.5,0.9,2.8,1.5,2.8c0.2,0,0.3,0,0.4,0v0.8C54.5,91.7,54.2,91.8,53.9,91.8z"/>
			<path fill="#555655" d="M55.9,91.8v-1.2h1.2v1.2H55.9z"/>
		</g>
	</g>
</g>
<g>
	<path fill="#555655" d="M63.9,7.5c0,0-0.5,0.1-0.9,0.7c-0.5,0.7-0.8,1.7-0.8,3.1c0,0.9,0.2,1.8,0.4,2.6c0.5,2.3,1,4.4-2.4,7.9
		c-0.8-0.6-1.9-0.5-2.6,0.2l-2,2c-2.1-1.3-4.5-2.1-7.1-2.1c-7.3,0-13.3,5.9-13.3,13.3c0,7.3,5.9,13.3,13.3,13.3s13.3-5.9,13.3-13.3
		c0-3.3-1.2-6.2-3.1-8.6l1.8-1.8c0.7-0.7,0.8-1.7,0.3-2.5c3.7-3.8,3.2-6.3,2.7-8.6c-0.2-0.8-0.4-1.6-0.4-2.4c0-2.1,0.7-2.9,1.1-3
		l0,0L63.9,7.5z M41.4,28c-2.2,2.2-2.4,5.1-3,4.1c-0.7-1.2-0.3-3.4,1.9-5.6c2.2-2.2,4.3-2.4,4.9-1.7C45.5,25.2,43.6,25.8,41.4,28z"
		/>
	<g>
		<path fill="#555655" d="M64.9,5.9c0.1,0,0.1,0,0.2-0.1l0.7-1.4c0,0,0-0.1,0-0.1c0-0.1,0-0.1-0.1-0.1c-0.1,0-0.2,0-0.3,0.1
			l-0.7,1.4C64.7,5.7,64.7,5.8,64.9,5.9C64.9,5.9,64.9,5.9,64.9,5.9z"/>
		<path fill="#555655" d="M67.8,6.3l-1.9,0.8c0,0-0.1,0.1-0.1,0.1s0,0.1,0,0.1c0,0.1,0.1,0.1,0.2,0.1c0,0,0,0,0.1,0L68,6.7
			c0.1,0,0.2-0.2,0.1-0.3C68,6.4,67.9,6.3,67.8,6.3z"/>
		<path fill="#555655" d="M63.3,3.4c-0.1,0-0.2,0.1-0.2,0.2l0.1,1.5c0,0.1,0.1,0.2,0.2,0.2h0l0,0c0.1,0,0.2-0.1,0.2-0.2l-0.1-1.5
			C63.5,3.5,63.4,3.4,63.3,3.4z"/>
		<path fill="#555655" d="M60.2,5c-0.1-0.1-0.2,0-0.3,0c0,0,0,0.1,0,0.1c0,0.1,0,0.1,0.1,0.1l1.4,1.1c0,0,0.1,0,0.1,0
			c0.1,0,0.1,0,0.2-0.1c0.1-0.1,0.1-0.2,0-0.3L60.2,5z"/>
		<path fill="#555655" d="M60.8,8.5c0.1,0,0.2-0.1,0.2-0.2c0-0.1,0-0.1,0-0.1c0,0-0.1-0.1-0.1-0.1L58.9,8c-0.1,0-0.2,0.1-0.2,0.2
			c0,0.1,0,0.1,0,0.1c0,0,0.1,0.1,0.1,0.1L60.8,8.5L60.8,8.5z"/>
		<path fill="#555655" d="M67.5,9.6l-1.7-0.2c-0.1,0-0.2,0.1-0.2,0.2c0,0.1,0,0.1,0,0.1c0,0,0.1,0.1,0.1,0.1l1.7,0.2h0
			c0.1,0,0.2-0.1,0.2-0.2C67.6,9.7,67.6,9.6,67.5,9.6z"/>
		<path fill="#555655" d="M65.1,10.8c0-0.1-0.2-0.1-0.3-0.1c0,0-0.1,0.1-0.1,0.1c0,0,0,0.1,0,0.2l0.8,1.8c0,0.1,0.1,0.1,0.2,0.1
			c0,0,0.1,0,0.1,0c0,0,0.1-0.1,0.1-0.1c0,0,0-0.1,0-0.2L65.1,10.8z"/>
		<path fill="#555655" d="M60.9,10.6l-1.2,1c0,0-0.1,0.1-0.1,0.1s0,0.1,0,0.1c0,0,0.1,0.1,0.2,0.1c0,0,0.1,0,0.1,0l1.2-1
			c0.1-0.1,0.1-0.2,0-0.3C61.1,10.5,61,10.5,60.9,10.6z"/>
	</g>
</g>
</svg>
