<?xml version="1.0" encoding="utf-8"?>
<!-- Generator: Adobe Illustrator 18.0.0, SVG Export Plug-In . SVG Version: 6.00 Build 0)  -->
<!DOCTYPE svg PUBLIC "-//W3C//DTD SVG 1.1//EN" "http://www.w3.org/Graphics/SVG/1.1/DTD/svg11.dtd">
<svg version="1.1" id="Layer_1" xmlns="http://www.w3.org/2000/svg" xmlns:xlink="http://www.w3.org/1999/xlink" x="0px" y="0px"
	 viewBox="0 0 22 29" enable-background="new 0 0 22 29" xml:space="preserve">
<g>
	<path fill="#231F20" d="M17.9,4.3c0,0-0.3,0.1-0.5,0.4c-0.3,0.4-0.4,1-0.4,1.8c0,0.5,0.1,1,0.2,1.5c0.3,1.3,0.6,2.6-1.4,4.6
		c-0.5-0.3-1.1-0.3-1.5,0.1l-1.2,1.2c-1.2-0.8-2.6-1.2-4.2-1.2c-4.3,0-7.8,3.4-7.8,7.7C1,24.6,4.5,28,8.8,28s7.8-3.4,7.8-7.7
		c0-1.9-0.7-3.6-1.8-4.9l1.1-1.1c0.4-0.4,0.5-1,0.2-1.4c2.2-2.2,1.9-3.6,1.6-5c-0.1-0.5-0.2-0.9-0.2-1.4c0-1.2,0.4-1.7,0.6-1.8l0,0
		L17.9,4.3z"/>
	<path fill="#231F20" d="M18.5,3.3C18.5,3.3,18.5,3.3,18.5,3.3l0.5-0.9c0,0,0-0.1,0-0.1c0,0-0.1,0-0.1,0L18.5,3.3
		C18.4,3.3,18.4,3.3,18.5,3.3C18.4,3.3,18.5,3.3,18.5,3.3z"/>
	<path fill="#231F20" d="M20.2,3.7l-1.1,0.4c0,0,0,0,0,0.1c0,0,0,0,0.1,0c0,0,0,0,0,0l1.1-0.4C20.3,3.8,20.3,3.7,20.2,3.7
		C20.2,3.7,20.2,3.7,20.2,3.7z"/>
	<path fill="#231F20" d="M17.6,3L17.6,3C17.6,3,17.6,2.9,17.6,3l0-0.9c0,0,0-0.1-0.1-0.1c0,0-0.1,0-0.1,0.1L17.6,3
		C17.5,2.9,17.5,3,17.6,3z"/>
	<path fill="#231F20" d="M16.4,3.6C16.4,3.6,16.4,3.6,16.4,3.6C16.4,3.6,16.5,3.6,16.4,3.6C16.5,3.6,16.5,3.6,16.4,3.6l-0.7-0.7
		c0,0-0.1,0-0.1,0c0,0,0,0.1,0,0.1L16.4,3.6z"/>
	<path fill="#231F20" d="M16,4.8L16,4.8C16.1,4.8,16.1,4.8,16,4.8c0.1-0.1,0-0.1,0-0.1l-1.1-0.1c0,0-0.1,0-0.1,0.1
		c0,0,0,0.1,0.1,0.1L16,4.8z"/>
	<path fill="#231F20" d="M19,5.5C18.9,5.5,18.9,5.5,19,5.5c-0.1,0.1,0,0.1,0,0.1l1,0.1h0c0,0,0.1,0,0.1-0.1c0,0,0-0.1-0.1-0.1
		L19,5.5z"/>
	<path fill="#231F20" d="M18.4,6.2C18.4,6.2,18.4,6.3,18.4,6.2l0.4,1.1c0,0,0,0,0.1,0c0,0,0,0,0,0c0,0,0,0,0-0.1L18.4,6.2
		C18.5,6.2,18.5,6.2,18.4,6.2z"/>
	<path fill="#231F20" d="M15.4,6.8C15.4,6.8,15.4,6.8,15.4,6.8C15.4,6.8,15.5,6.8,15.4,6.8l0.8-0.6c0,0,0-0.1,0-0.1c0,0-0.1,0-0.1,0
		L15.4,6.8C15.4,6.7,15.4,6.8,15.4,6.8z"/>
</g>
<g>
	<g>
		<path fill="#FFFFFF" d="M2.7,19.1c-0.5-0.9-0.2-2.7,1.5-4.4s3.4-1.9,3.9-1.4c0.3,0.3-1.2,0.8-3,2.5C3.4,17.6,3.2,19.9,2.7,19.1z"
			/>
	</g>
</g>
</svg>
