<?xml version="1.0" encoding="utf-8"?>
<!-- Generator: Adobe Illustrator 18.0.0, SVG Export Plug-In . SVG Version: 6.00 Build 0)  -->
<!DOCTYPE svg PUBLIC "-//W3C//DTD SVG 1.1//EN" "http://www.w3.org/Graphics/SVG/1.1/DTD/svg11.dtd">
<svg version="1.1" id="Layer_1" xmlns="http://www.w3.org/2000/svg" xmlns:xlink="http://www.w3.org/1999/xlink" x="0px" y="0px"
	 viewBox="0 0 240 240" enable-background="new 0 0 240 240" xml:space="preserve">
<g>
	<path fill="#FFFFFF" stroke="#000000" stroke-width="4" stroke-miterlimit="10" d="M234,195.9c0,2.1-1.4,4.5-3.1,5.3
		c-36,16.3-89.8,35.7-111.8,35.7c-22.3,0-74.5-19.7-109.9-35.7C7.4,200.4,6,198,6,195.9c0-29.4,0-58.8,0-88.2c0-2.1,1.4-4.5,3.1-5.3
		C44.8,86.3,97.2,71.5,120,71.5c23.9,0,75.2,14.8,110.9,30.9c1.7,0.8,3.1,3.2,3.1,5.3C234,137.1,234,166.5,234,195.9z"/>
	<g>
		<path d="M81,180v-51h7v51H81z"/>
		<path d="M99,180v-51h7v45h10v6H99z"/>
		<path d="M123,180v-51h7v45h9v6H123z"/>
		<path d="M147,180v-17h-2.8l2.8-5.6V129h17v6h-10v23h8v5h-8v11h10v6H147z"/>
		<path d="M184.2,160.5c1.5,1.9,3.5,4.7,4.8,8c1.7,4,2.1,8.5,2.1,11.5h-6.9c0-3-0.2-6.2-1.3-9c-1.2-3-2.9-5.5-3.9-6.9v16h-7v-51h5
			c7.5,0,14.6,3.7,14.6,15.3C191.5,154.3,186.5,158.9,184.2,160.5z M179,134.4V157c1-0.2,6-4.1,6-12.8
			C185,136.6,182,134.4,179,134.4z"/>
		<path d="M67.1,160.3l5.8,19.7h-7.2l-6-21.2l-2.8,6.6V180h-7v-51h7v21.4l7.4-21.4h7.4l-7.5,22L67.1,160.3"/>
	</g>
	<path fill="none" stroke="#000000" stroke-miterlimit="10" d="M219.5,186.3c0,1.7-1.5,3.6-3,4.2c-31.2,13-78.1,30-97.2,30
		c-19.4,0-64.5-17.2-95.2-30c-1.5-0.6-2.6-2.6-2.6-4.2c0-23.6,0-44.5,0-68.1c0-1.7,1-3.6,2.5-4.2c31-12.9,76.3-26.2,96.1-26.2
		c20.7,0,65.5,13.3,96.5,26.2c1.5,0.6,2.9,2.5,2.9,4.2C219.5,141.8,219.5,162.7,219.5,186.3z"/>
	<g>
		<rect x="93" y="195" fill="#FFFFFF" width="55" height="28"/>
		<g>
			<g>
				<path d="M104,220v-18h3v18H104z"/>
				<path d="M120.2,220l-4.2-10.6V220h-4v-18h1.7l5.3,10v-10h3v18H120.2z"/>
				<path d="M132.2,219.5c-2.3,0-6.3-0.8-6.3-8.8c0-8.1,4-8.7,6.4-8.7c0.9,0,1.8,0.2,1.8,0.2v1.9c-1-0.1-0.9-0.1-1.3-0.1
					c-1.4,0-3.7,0.7-3.7,6.8c0,6.2,2.5,6.9,3.8,6.9c0.4,0,0.2,0,1.2-0.1v1.8C134,219.3,133.1,219.5,132.2,219.5z"/>
				<path d="M137,220v-3h3v3H137z"/>
			</g>
		</g>
	</g>
	<g>
		<g>
			<path d="M156.5,12.7c-0.1,0-1.2,0.4-2.2,1.7c-1.2,1.7-1.9,4.2-1.9,7.5c0,2.3,0.5,4.4,0.9,6.4c1.2,5.6,2.4,10.8-6,19.4
				c-1.9-1.4-4.7-1.3-6.4,0.5l-5,5c-5-3.2-11-5.1-17.4-5.1c-18,0-32.6,14.6-32.6,32.6c0,18,14.6,32.6,32.6,32.6s32.6-14.6,32.6-32.6
				c0-8-2.9-15.3-7.7-21l4.5-4.5c1.7-1.7,1.9-4.2,0.7-6.1c9.2-9.3,7.9-15.3,6.6-21.2c-0.4-2-0.9-3.9-0.9-6c0-5.2,1.8-7.1,2.7-7.4
				l0,0L156.5,12.7z"/>
			<path d="M158.9,8.5c0,0,0.1,0,0.1,0c0.1,0,0.2,0,0.2-0.1l1.8-3.5c0.1-0.1,0-0.3-0.1-0.3c-0.1-0.1-0.3,0-0.3,0.1l-1.8,3.5
				C158.8,8.3,158.8,8.5,158.9,8.5z"/>
			<path d="M166.5,10.3c0-0.1-0.2-0.2-0.3-0.1l-4.7,1.8c-0.1,0-0.2,0.2-0.1,0.3c0,0.1,0.1,0.1,0.2,0.1c0,0,0.1,0,0.1,0l4.7-1.8
				C166.5,10.6,166.6,10.4,166.5,10.3z"/>
			<path d="M155.3,7L155.3,7c0.1,0,0.2-0.1,0.2-0.2l-0.2-3.6c0-0.1-0.1-0.2-0.2-0.2c-0.1,0-0.2,0.1-0.2,0.3l0.2,3.6
				C155.1,7,155.2,7,155.3,7z"/>
			<path d="M150.4,9.9c0,0,0.1,0,0.1,0c0.1,0,0.1,0,0.2-0.1c0.1-0.1,0.1-0.2,0-0.3l-3.4-2.6c-0.1-0.1-0.3-0.1-0.3,0
				c-0.1,0.1-0.1,0.2,0,0.3L150.4,9.9z"/>
			<path d="M144.2,14.6l4.7,0.4c0,0,0,0,0,0c0.1,0,0.2-0.1,0.2-0.2c0-0.1-0.1-0.2-0.2-0.2l-4.7-0.4c-0.1,0-0.2,0.1-0.3,0.2
				C144,14.5,144.1,14.6,144.2,14.6z"/>
			<path d="M165.2,18.2l-4.2-0.4c-0.1,0-0.2,0.1-0.3,0.2c0,0.1,0.1,0.4,0.2,0.4l4.2,0.5c0,0,0,0,0,0c0.1,0,0.2-0.3,0.2-0.4
				C165.4,18.5,165.4,18.2,165.2,18.2z"/>
			<path d="M159.3,21.1c-0.1-0.1-0.2-0.2-0.3-0.1c-0.1,0.1-0.2,0.2-0.1,0.3l1.9,4.3c0,0.1,0.1,0.1,0.2,0.1c0,0,0.1,0,0.1,0
				c0.1-0.1,0.2-0.2,0.1-0.3L159.3,21.1z"/>
			<path d="M149.3,20.5l-3,2.5c-0.1,0.1-0.1,0.2,0,0.3c0,0.1,0.1,0.1,0.2,0.1c0.1,0,0.1,0,0.1-0.1l3-2.5c0.1-0.1,0.1-0.2,0-0.3
				C149.5,20.4,149.4,20.4,149.3,20.5z"/>
		</g>
		<path fill="#FFFFFF" d="M110.6,55.3c0.8,1-3.9,2.4-9.2,7.8c-5.4,5.4-6,12.5-7.4,10.1c-1.6-2.8-0.7-8.3,4.7-13.7
			C104,54.1,109.1,53.5,110.6,55.3z"/>
	</g>
	<path opacity="0.4" d="M159.2,86c2.8,8-7.8,18.9-23.5,24.4c-15.8,5.5-30.8,3.5-33.6-4.5c-2.8-8,7.8-18.9,23.5-24.4
		C141.4,76.1,156.5,78.1,159.2,86z"/>
</g>
<g>
	<circle fill="#FFFFFF" cx="221.3" cy="226.2" r="9.7"/>
	<g>
		<path d="M217.6,229.2v-4.7h-1.8v-0.8h4.6v0.8h-1.8v4.7H217.6z M221,229.2v-5.6h1.4l1.4,4.5l1.4-4.5h1.3v5.6h-0.8v-4.7l-1.4,4.7
			h-0.8l-1.5-4.7v4.7H221z"/>
	</g>
</g>
</svg>
