<?xml version="1.0" encoding="utf-8"?>
<!-- Generator: Adobe Illustrator 18.0.0, SVG Export Plug-In . SVG Version: 6.00 Build 0)  -->
<!DOCTYPE svg PUBLIC "-//W3C//DTD SVG 1.1//EN" "http://www.w3.org/Graphics/SVG/1.1/DTD/svg11.dtd">
<svg version="1.1" id="Layer_1" xmlns="http://www.w3.org/2000/svg" xmlns:xlink="http://www.w3.org/1999/xlink" x="0px" y="0px"
	 viewBox="0 0 16 20" enable-background="new 0 0 16 20" xml:space="preserve">
<path fill="#231F20" d="M13.9,18.2c-0.5,0.6-1.2,0.8-2,0.8c-0.8,0-1.4-0.3-1.8-0.8L6,12.9v2.9c0,0.8-0.3,1.5-0.6,1.9
	C4.9,18.6,4.1,19,3.1,19c-0.9,0-1.3-0.3-1.8-0.9C0.9,17.5,1,16.8,1,15.8V5.1c0-0.9-0.2-1.6,0.3-2.2C1.8,2.3,2.3,2,3.2,2
	c0.8,0,1.4,0.3,2,0.9c0.3,0.3,0.6,0.7,0.7,1C5.9,4.1,6,4.5,6,5.1v2.7l3-4.5C9.6,2.4,10.3,2,11.2,2c0.8,0,1.4,0.3,1.9,0.8
	C13.7,3.4,14,4,14,4.7c0,0.6-0.2,1-0.4,1.5l-2.8,4.1l3.4,4.4c0.3,0.4,0.5,0.9,0.5,1.5C14.7,17,14.4,17.6,13.9,18.2z"/>
</svg>
