<?xml version="1.0" encoding="utf-8"?>
<!-- Generator: Adobe Illustrator 18.0.0, SVG Export Plug-In . SVG Version: 6.00 Build 0)  -->
<!DOCTYPE svg PUBLIC "-//W3C//DTD SVG 1.1//EN" "http://www.w3.org/Graphics/SVG/1.1/DTD/svg11.dtd">
<svg version="1.1" id="Layer_1" xmlns="http://www.w3.org/2000/svg" xmlns:xlink="http://www.w3.org/1999/xlink" x="0px" y="0px"
	 viewBox="0 0 100 28" enable-background="new 0 0 100 28" xml:space="preserve">
<g>
	<path fill="#1F2222" d="M96.7,6.4h-9.5c-0.4,0-1.1-0.3-1.4-0.6l-2-2c-0.7-0.7-1.9-1.2-2.9-1.2h-5c-1.3,0-2.3,1-2.3,2.3v18.2
		c0,1.3,1,2.3,2.3,2.3h20.8c1.3,0,2.3-1,2.3-2.3V8.8C99,7.5,98,6.4,96.7,6.4z M96.9,8.8v14.4c0,0.1-0.1,0.2-0.2,0.2H75.9
		c-0.1,0-0.2-0.1-0.2-0.2V5c0-0.1,0.1-0.2,0.2-0.2h5c0.4,0,1.1,0.3,1.4,0.6l2,2C85,8,86.2,8.5,87.2,8.5h9.5
		C96.8,8.5,96.9,8.6,96.9,8.8z"/>
	<g>
		<path fill="#231F20" d="M43.2,25.3c-2.4,0-4.3-1.9-4.3-4.3c0-1.1,0.4-2.2,1.2-3L54.6,3.6c0.5-0.4,1.1-0.7,1.7-0.7
			c1.4,0,2.6,1.2,2.6,2.6c0,0.5-0.2,1-0.4,1.4c0,0.1-0.1,0.1-0.1,0.2l0,0.1l-14,14c-0.3,0.3-0.9,0.4-1.3,0.1
			c-0.2-0.2-0.3-0.4-0.3-0.7c0-0.2,0.1-0.4,0.3-0.6l0.3-0.3l9.6-9.6l-1.3-1.3l-9.7,9.8c-0.6,0.5-1,1.3-1,2.1c0,1.5,1.3,2.8,2.8,2.8
			c0.8,0,1.6-0.3,2.1-1l0.1-0.2l0,0L59.7,8.4l0.2-0.3c0,0,0.1-0.1,0.1-0.1C60,8,60,8,60,7.9c0.5-0.7,0.8-1.6,0.8-2.5
			c0-2.5-2-4.5-4.5-4.5c-1.1,0-2.2,0.4-3,1.2l-0.2,0.2l0,0L38.8,16.6c-0.1,0.1-0.3,0.4-0.3,0.4C37.5,18.2,37,19.5,37,21
			c0,3.4,2.8,6.2,6.2,6.2c1.7,0,3.3-0.7,4.5-2l0.2-0.2l0,0l14-14l-1.3-1.3L46.5,23.8C45.6,24.8,44.5,25.3,43.2,25.3z"/>
	</g>
	<path fill="#1F2222" d="M13.8,1.9C6.7,1.9,1,7.6,1,14.7c0,7.1,5.7,12.8,12.8,12.8c7.1,0,12.8-5.7,12.8-12.8
		C26.6,7.6,20.9,1.9,13.8,1.9z M17.7,15.5l-5.2,5.6l-1.7-1.6l4.5-4.9l-4.5-4.9l1.7-1.6l5.2,5.6C18.1,14.4,18.1,15,17.7,15.5z"/>
</g>
</svg>
