<?xml version="1.0" encoding="utf-8"?>
<!-- Generator: Adobe Illustrator 18.0.0, SVG Export Plug-In . SVG Version: 6.00 Build 0)  -->
<!DOCTYPE svg PUBLIC "-//W3C//DTD SVG 1.1//EN" "http://www.w3.org/Graphics/SVG/1.1/DTD/svg11.dtd">
<svg version="1.1" id="Layer_1" xmlns="http://www.w3.org/2000/svg" xmlns:xlink="http://www.w3.org/1999/xlink" x="0px" y="0px"
	 viewBox="0 0 100 34.5" enable-background="new 0 0 100 34.5" xml:space="preserve">
<path fill="#1F2222" d="M4.3,19.4c-1.8,0-3.3,1.5-3.3,3.3C1,24.5,2.5,26,4.3,26l0,0c0,0.1,0,0.2,0,0.4l0,0c-1.8,0-3.3,1.5-3.3,3.3
	C1,31.5,2.5,33,4.3,33c0,0,0.1,0,0.1,0l0,0l11.1,0c3.9,0,7.1-3.2,7.1-7.1v-7.6c0-2.8-1.5-5-3.9-5.9c-1.9-1.2-5.7-4.2-6.5-8.3
	c0-0.9-0.1-1.6-0.3-2.2C11.9,1.5,10.8,1,10.8,1S6.9,0.5,6.9,5.5c0,5.9,3.7,6.8,0.7,6.9H4.4v0c0,0-0.1,0-0.1,0
	c-1.8,0-3.3,1.5-3.3,3.3c0,1.8,1.5,3.3,3.3,3.3l0.1,0C4.4,19.2,4.4,19.3,4.3,19.4L4.3,19.4z"/>
<g>
	<g>
		<g>
			<g>
				<path fill="#FFFFFF" d="M58.1,30.4c0,0.4-0.3,0.7-0.7,0.7H36.5c-0.4,0-0.7-0.3-0.7-0.7V9.6c0-0.4,0.3-0.7,0.7-0.7h20.8
					c0.4,0,0.7,0.3,0.7,0.7V30.4z"/>
			</g>
			<path fill="#1F2222" d="M56.3,8.9c1,0,1.8,0.8,1.8,1.8v18.7c0,1-0.8,1.8-1.8,1.8H37.6c-1,0-1.8-0.8-1.8-1.8V10.6
				c0-1,0.8-1.8,1.8-1.8H56.3 M56.3,7H37.6c-2,0-3.6,1.6-3.6,3.6v18.7c0,2,1.6,3.6,3.6,3.6h18.7c2,0,3.6-1.6,3.6-3.6V10.6
				C59.9,8.6,58.3,7,56.3,7L56.3,7z"/>
		</g>
	</g>
	<g>
		<g>
			<path fill="#1F2222" d="M58.1,30.4c0,0.4-0.3,0.7-0.7,0.7H36.5c-0.4,0-0.7-0.3-0.7-0.7V9.6c0-0.4,0.3-0.7,0.7-0.7h20.8
				c0.4,0,0.7,0.3,0.7,0.7V30.4z"/>
		</g>
		<path fill="#FFFFFF" d="M56.3,10.1c0.3,0,0.5,0.2,0.5,0.5v18.7c0,0.3-0.3,0.5-0.5,0.5H37.6c-0.3,0-0.5-0.2-0.5-0.5V10.6
			c0-0.3,0.2-0.5,0.5-0.5H56.3 M56.3,8.9H37.6c-1,0-1.8,0.8-1.8,1.8v18.7c0,1,0.8,1.8,1.8,1.8h18.7c1,0,1.8-0.8,1.8-1.8V10.6
			C58.1,9.7,57.3,8.9,56.3,8.9L56.3,8.9z"/>
	</g>
	
		<rect x="32.6" y="19.3" transform="matrix(0.7107 0.7035 -0.7035 0.7107 27.5873 -27.1621)" fill="#FFFFFF" width="28.4" height="1.2"/>
	
		<rect x="46.3" y="5.3" transform="matrix(0.7061 0.7081 -0.7081 0.7061 27.7786 -27.4129)" fill="#FFFFFF" width="1.2" height="28.9"/>
</g>
<path fill="#1F2222" d="M91.5,10.6c2,0,4.9,1.5,4.9,5.5c0,4.5-4.6,8.1-7,10.1l-1.7,1.4c-1.2,0.9-2,1.6-2.6,2.1
	c-0.4-0.3-0.8-0.6-1.3-1l-0.1-0.1c-0.7-0.6-1.6-1.3-2.9-2.3c-3.1-2.6-7-5.8-7-10c0-4.1,2.9-5.6,4.9-5.6c1.7,0,3.2,0.8,4.4,2.4l2,2.6
	l2-2.6C88,11.9,89.5,10.6,91.5,10.6 M91.5,8c-2.5,0-4.7,1.2-6.5,3.4c-1.7-2.2-4-3.4-6.5-3.4c-3.6,0-7.5,2.9-7.5,8.2
	c0,5.5,4.6,9.3,8,12c1.7,1.5,4.1,3.1,5.4,4.5c0.1,0.2,0.3,0.2,0.5,0.2c0.2,0,0.4-0.1,0.5-0.2c0.9-0.9,1.6-1.5,3.7-3.2l1.7-1.3
	c2.8-2.2,8-6.4,8-12.1C99,10.9,95.2,8,91.5,8L91.5,8z"/>
</svg>
