<?xml version="1.0" encoding="utf-8"?>
<!-- Generator: Adobe Illustrator 18.0.0, SVG Export Plug-In . SVG Version: 6.00 Build 0)  -->
<!DOCTYPE svg PUBLIC "-//W3C//DTD SVG 1.1//EN" "http://www.w3.org/Graphics/SVG/1.1/DTD/svg11.dtd">
<svg version="1.1" id="Layer_1" xmlns="http://www.w3.org/2000/svg" xmlns:xlink="http://www.w3.org/1999/xlink" x="0px" y="0px"
	 viewBox="0 0 460 314" enable-background="new 0 0 460 314" xml:space="preserve">
<rect fill="#B4E374" width="460" height="314"/>
<path fill="#302F2C" d="M356.6,34.6v-0.5h-47.3v0.5v46.8h0.5h46.3h0.5V34.6z M355.3,79.6l-21.8-21.8L355.3,36V79.6z M354.8,35.4
	L333,57.2l-21.8-21.8L354.8,35.4z M310.7,35.9l21.8,21.8l-21.8,21.8V35.9z M311.2,80L333,58.2L354.8,80H311.2z"/>
<g>
	<path fill="#231F20" d="M355.4,106.7h-44.7h-1.3v1.3v44.7v1.3h1.3h44.7h1.3v-1.3V108v-1.3L355.4,106.7z M355.4,152.7h-44.7V108
		h44.7V152.7z"/>
	<path fill="#231F20" d="M326.7,125.7c0-0.5-0.4-0.9-0.9-0.9h-2.6c-0.5,0-0.9,0.4-0.9,0.9v0.5c0,0.5,0.4,0.9,0.9,0.9h2.6
		c0.5,0,0.9-0.4,0.9-0.9V125.7z"/>
	<path fill="#231F20" d="M333.2,124.8c-3.7,0-6.6,2.9-6.6,6.6c0,3.7,2.9,6.6,6.6,6.6c3.7,0,6.6-2.9,6.6-6.6
		C339.8,127.8,336.8,124.8,333.2,124.8z M333.1,136.2c-2.6,0-4.8-2.1-4.8-4.8c0-2.6,2.1-4.8,4.8-4.8c2.6,0,4.8,2.1,4.8,4.8
		C337.9,134.1,335.7,136.2,333.1,136.2z"/>
	<path fill="#231F20" d="M353.5,109.8h-40.9v40.9h40.9V109.8z M346.3,138.1c0,1.3-1,2.2-2.2,2.2h-22.1c-1.3,0-2.2-1-2.2-2.2v-13.3
		c0-1.3,1-2.2,2.2-2.2h6.6c0.9,0,0.9-2.2,1.8-2.2h0.9l0,0l0,0l0,0l0,0l0,0l0,0l0,0l0,0l0,0l0,0l0,0l0,0l0,0l0,0l0,0l0,0l0,0l0,0l0,0
		l0,0l0,0l0,0l0,0l0,0l0,0l0,0l0,0l0,0l0,0l0,0l0,0l0,0l0,0l0,0l0,0l0,0l0,0l0,0l0,0l0,0l0,0l0,0l0,0l0,0l0,0l0,0l0,0l0,0l0,0l0,0
		l0,0l0,0l0,0l0,0l0,0l0,0l0,0l0,0l0,0l0,0l0,0l0,0l0,0h3.1c0.9,0,0.9,2.2,1.8,2.2h3.1c0-0.5,0.4-0.9,0.9-0.9h0.9
		c0.5,0,0.9,0.4,0.9,0.9h1.4c1.3,0,2.2,1,2.2,2.2v13.3H346.3z"/>
</g>
<g>
	<path fill="#231F20" d="M178.8,34.1H147c-0.5,0-1.4,0-1.9,0h-110c-0.5,0-1,0.4-1,1v26.5c0,0.5,0.4,1,1,1h143.8c0.5,0,1-0.4,1-1
		V35.1C179.8,34.5,179.3,34.1,178.8,34.1z M151,61.4H35.3V35.3H145h1.9h4.1V61.4z M178.8,61.5h-26.7V35.1h26.7V61.5z"/>
	<path fill="#231F20" d="M176.3,37.4h-21.8v21.6h21.8V37.4z M166,52l-4.6-5.7h9.1L166,52z"/>
	<path fill="#231F20" d="M45,45.9c0-0.7,0.6-1.2,1.6-1.2c1,0,1.9,0.3,2.6,1.1l0.9-1.2c-0.9-0.8-2-1.3-3.4-1.3c-2,0-3.3,1.2-3.3,2.7
		c0,3.3,5.4,2.1,5.4,4.1c0,0.6-0.5,1.3-1.9,1.3c-1.3,0-2.2-0.6-2.9-1.3l-0.9,1.3c0.8,0.9,2,1.5,3.7,1.5c2.4,0,3.5-1.3,3.5-2.8
		C50.3,46.6,45,47.6,45,45.9z"/>
	<path fill="#231F20" d="M54.7,45.8c-1.9,0-3.3,1.6-3.3,3.5c0,2,1.5,3.5,3.5,3.5c1.1,0,2-0.4,2.7-1l-0.7-1c-0.5,0.5-1.3,0.8-1.9,0.8
		c-1.3,0-1.9-0.9-2-1.9h5.1v-0.4C58,47.4,56.7,45.8,54.7,45.8z M52.8,48.7c0.1-0.8,0.6-1.8,1.9-1.8c1.3,0,1.9,1,1.9,1.8H52.8z"/>
	<rect x="59.4" y="43.5" fill="#231F20" width="1.5" height="9.2"/>
	<path fill="#231F20" d="M65.6,45.8c-1.9,0-3.3,1.6-3.3,3.5c0,2,1.5,3.5,3.5,3.5c1.1,0,2-0.4,2.7-1l-0.7-1c-0.5,0.5-1.3,0.8-1.9,0.8
		c-1.3,0-1.9-0.9-2-1.9H69v-0.4C68.9,47.4,67.6,45.8,65.6,45.8z M63.7,48.7c0.1-0.8,0.6-1.8,1.9-1.8s1.9,1,1.9,1.8H63.7z"/>
	<path fill="#231F20" d="M73.4,47.1c0.7,0,1.2,0.3,1.6,0.8l1-0.9c-0.5-0.6-1.3-1.2-2.5-1.2c-1.9,0-3.4,1.5-3.4,3.5
		c0,2,1.4,3.5,3.4,3.5c1.3,0,2-0.6,2.5-1.2l-1-0.9c-0.4,0.5-0.9,0.8-1.6,0.8c-1.2,0-2-0.9-2-2.2C71.3,47.9,72.2,47.1,73.4,47.1z"/>
	<path fill="#231F20" d="M79.5,51.5c-0.4,0-0.6-0.4-0.6-0.8v-3.5h1.4v-1.3h-1.4v-1.9h-1.5v1.9h-1.1v1.3h1.1V51
		c0,1.1,0.6,1.8,1.7,1.8c0.7,0,1.1-0.2,1.4-0.4l-0.4-1.1C80,51.4,79.7,51.5,79.5,51.5z"/>
	<path fill="#231F20" d="M82.3,50.9c-0.5,0-1,0.4-1,1c0,0.5,0.4,1,1,1c0.5,0,1-0.5,1-1C83.2,51.3,82.7,50.9,82.3,50.9z"/>
	<path fill="#231F20" d="M85.6,50.9c-0.5,0-1,0.4-1,1c0,0.5,0.4,1,1,1c0.5,0,1-0.5,1-1C86.5,51.3,86.2,50.9,85.6,50.9z"/>
	<path fill="#231F20" d="M89,50.9c-0.5,0-1,0.4-1,1c0,0.5,0.4,1,1,1c0.5,0,1-0.5,1-1C90,51.3,89.5,50.9,89,50.9z"/>
</g>
<g>
	<path fill="#1F2222" d="M126,252.3c-8.6,0-15.5,6.9-15.5,15.5s6.9,15.5,15.5,15.5s15.5-6.9,15.5-15.5S134.5,252.3,126,252.3z"/>
	<path fill="#1F2222" d="M42.5,273c-3.4,0-6.2-2.6-6.2-5.8c0-3.2,2.8-5.8,6.2-5.8h67.4c0.3-0.8,0.7-1.5,1.2-2.1H42.5
		c-4.6,0-8.4,3.6-8.4,8c0,4.4,3.7,8,8.4,8h67.9c-0.4-0.7-0.7-1.4-0.9-2.1H42.5z"/>
	<path fill="#1F2222" d="M274,259.2H141.1c0.4,0.7,0.8,1.4,1.2,2.1H274c3.4,0,6.2,2.6,6.2,5.8s-2.8,5.8-6.2,5.8H142.7
		c-0.3,0.8-0.6,1.5-0.9,2.1H274c4.6,0,8.4-3.6,8.4-8C282.2,262.8,278.5,259.2,274,259.2z"/>
	<path fill="#1F2222" d="M273.8,271.2c2.3,0,4.3-1.8,4.3-4c0-2.1-1.9-4-4.3-4H142.7c0.5,1.4,0.8,2.9,0.8,4.5c0,1.2-0.2,2.3-0.5,3.5
		H273.8z"/>
</g>
<g>
	<g>
		<path fill="#1F2222" d="M283.7,35.1c0.5,0,1,0.4,1,1v28.4c0,0.5-0.4,1-1,1h-76.8c-0.5,0-1-0.4-1-1V36c0-0.5,0.4-1,1-1L283.7,35.1
			 M283.7,34.1h-76.8c-1.1,0-1.9,0.9-1.9,1.9v28.4c0,1.1,0.9,1.9,1.9,1.9h76.8c1.1,0,1.9-0.9,1.9-1.9V36
			C285.6,35,284.7,34.1,283.7,34.1L283.7,34.1z"/>
	</g>
	<rect x="205.9" y="35.8" fill="#1F2222" width="0" height="28.9"/>
	<g>
		<path fill="#1F2222" d="M208.3,37v26.3h35.1V37H208.3z M220.5,54.9c-2.7,0-4.7-2-4.7-4.8s1.9-4.8,4.7-4.8s4.7,2,4.7,4.8
			C225.2,52.8,223.3,54.9,220.5,54.9z M234.8,54.7h-1.6l-4.8-6.6v6.6h-1.7v-9.3h1.7l4.7,6.4v-6.4h1.7V54.7z"/>
		<path fill="#1F2222" d="M220.5,46.8c-1.9,0-3,1.5-3,3.3c0,1.9,1.2,3.3,3,3.3c1.9,0,3-1.5,3-3.3C223.6,48.1,222.4,46.8,220.5,46.8z
			"/>
	</g>
	<g>
		<g>
			<path fill="#1F2222" d="M252.3,50.5c0-2.7,1.9-4.8,4.7-4.8c2.7,0,4.7,2,4.7,4.8c0,2.7-1.9,4.8-4.7,4.8
				C254.3,55.3,252.3,53.2,252.3,50.5z M260.1,50.5c0-1.9-1.2-3.3-3-3.3s-3,1.5-3,3.3s1.2,3.3,3,3.3
				C258.8,53.8,260.1,52.3,260.1,50.5z"/>
			<path fill="#1F2222" d="M263.3,55.1v-9.3h6.3v1.5H265v2.3h4.6v1.5H265v4H263.3z"/>
			<path fill="#1F2222" d="M271.1,55.1v-9.3h6.3v1.5h-4.7v2.3h4.6v1.5h-4.6v4H271.1z"/>
		</g>
	</g>
</g>
<g>
	<path fill="#1F2222" d="M90,109.3l-2-1.9l5.4-5.8l-5.4-5.8l2-1.9l6.2,6.7c0.5,0.6,0.5,1.4,0,1.9L90,109.3z"/>
</g>
<path fill="#231F20" d="M47.4,88.5c-7.3,0-13.3,5.9-13.3,13.3c0,7.3,5.9,13.3,13.3,13.3s13.3-5.9,13.3-13.3
	C60.6,94.3,54.7,88.5,47.4,88.5z M51.4,102.5l-5.4,5.8l-1.8-1.6l4.7-5.1l-4.7-5.1l1.8-1.6l5.4,5.8C51.8,101.4,51.8,102,51.4,102.5z"
	/>
<g>
	<path fill="#231F20" d="M36.4,152.7H43c0.9,0,0.9-2.2,1.8-2.2h0.9l0,0l0,0l0,0l0,0l0,0l0,0l0,0l0,0l0,0l0,0l0,0l0,0l0,0l0,0l0,0
		l0,0l0,0l0,0l0,0l0,0l0,0l0,0l0,0l0,0l0,0l0,0l0,0l0,0l0,0l0,0l0,0l0,0l0,0l0,0l0,0l0,0l0,0l0,0l0,0l0,0l0,0l0,0l0,0l0,0l0,0l0,0
		l0,0l0,0l0,0l0,0l0,0l0,0l0,0l0,0l0,0l0,0l0,0l0,0l0,0l0,0l0,0l0,0l0,0l0,0h3.1c0.9,0,0.9,2.2,1.8,2.2h3c0-0.5,0.4-0.9,0.9-0.9h0.9
		c0.5,0,0.9,0.4,0.9,0.9h1.4c1.3,0,2.2,1,2.2,2.2v13.3c0,1.3-1,2.2-2.2,2.2H36.4c-1.3,0-2.2-1-2.2-2.2V155
		C34.1,153.7,35.1,152.7,36.4,152.7L36.4,152.7z M47.6,155c-3.7,0-6.6,2.9-6.6,6.6c0,3.7,2.9,6.6,6.6,6.6c3.7,0,6.6-2.9,6.6-6.6
		C54.1,157.9,51.2,155,47.6,155L47.6,155z M37.5,157.1h2.6c0.5,0,0.9-0.4,0.9-0.9v-0.5c0-0.5-0.4-0.9-0.9-0.9h-2.6
		c-0.5,0-0.9,0.4-0.9,0.9v0.5C36.6,156.7,37,157.1,37.5,157.1z"/>
	<circle fill="#231F20" cx="47.5" cy="161.6" r="4.8"/>
</g>
<path fill="#231F20" d="M137.1,209.1c-5.1,0-9.2,4.1-9.2,9.2s4.1,9.2,9.2,9.2s9.2-4.1,9.2-9.2C146.3,213.2,142.2,209.1,137.1,209.1z
	 M137.1,225.4c-1.5,0-2.8-0.4-4-1.2l9.7-9.9c0.9,1.2,1.3,2.6,1.3,4.1C144.2,222.3,141,225.4,137.1,225.4z M137.1,211.3
	c1.5,0,2.9,0.5,4.2,1.4l-9.8,10c-1-1.3-1.5-2.7-1.5-4.3C130,214.4,133.2,211.3,137.1,211.3z"/>
<g>
	<path fill="#231F20" d="M277.9,225h-14.3v-12.3h7.1l0,0c0,0,1.6-1.3,3.8-1.3v-0.3h-11.8c-0.5,0-0.9,0.4-0.9,0.9V226
		c0,0.5,0.4,0.9,0.9,0.9h16.1c0.5,0,0.9-0.4,0.9-0.9v-6.9l-1.7,1.6L277.9,225L277.9,225z"/>
	<path fill="#231F20" d="M281.6,214.3l-4.2-4.2c-0.2-0.2-0.4-0.1-0.4,0.1v2.3c0,0-7.6-1-8.2,6.1c0,0,2.6-2.7,8.2-2.3v2.7
		c0,0.2,0.2,0.3,0.4,0.1l4.2-4.2C281.8,214.8,281.8,214.5,281.6,214.3z"/>
</g>
<g>
	<path fill="#231F20" d="M186.1,214h-3.5c-0.1,0-0.2,0.1-0.1,0.2l1.1,1.1c0.1,0.1,0.1,0.3,0,0.4l-1.8,1.8c-0.1,0.1-0.1,0.3,0,0.4
		l0.9,0.9c0.1,0.1,0.3,0.1,0.4,0l1.8-1.8c0.1-0.1,0.3-0.1,0.4,0l1.1,1.1c0.1,0.1,0.2,0.1,0.2-0.1v-3.5
		C186.4,214.1,186.2,214,186.1,214z"/>
	<path fill="#231F20" d="M175.5,215.4c0.2,0,0.4-0.2,0.4-0.4v-1c0-0.2-0.2-0.4-0.4-0.4s-0.4,0.2-0.4,0.4v1
		C175.1,215.2,175.2,215.4,175.5,215.4z"/>
	<path fill="#231F20" d="M182.3,222.7H182v-3.3c0-0.5-0.4-0.9-0.9-0.9h-7.2c-0.5,0-0.9,0.4-0.9,0.9v5.6c0,0.5,0.4,0.9,0.9,0.9h7.2
		c0.5,0,0.9-0.4,0.9-0.9v-1.2h0.4c0.3,0,0.6-0.3,0.6-0.6S182.6,222.7,182.3,222.7z M180.6,224.4h-6.2v-4.7h6.2V224.4z"/>
	<path fill="#231F20" d="M175.5,218.3c0.2,0,0.4-0.2,0.4-0.4v-1c0-0.2-0.2-0.4-0.4-0.4s-0.4,0.2-0.4,0.4v1
		C175.1,218.2,175.2,218.3,175.5,218.3z"/>
	<path fill="#231F20" d="M180.9,211.7h1c0.2,0,0.4-0.2,0.4-0.4c0-0.2-0.2-0.4-0.4-0.4h-1c-0.2,0-0.4,0.2-0.4,0.4
		C180.5,211.5,180.7,211.7,180.9,211.7z"/>
	<path fill="#231F20" d="M175.5,212.4c0.2,0,0.4-0.2,0.4-0.4v-0.3c0.2,0,0.4-0.2,0.4-0.4c0-0.2-0.2-0.4-0.4-0.4h-0.1
		c-0.4,0-0.6,0.3-0.6,0.6v0.5C175.1,212.2,175.2,212.4,175.5,212.4z"/>
	<path fill="#231F20" d="M183.9,211.7h1c0.2,0,0.4-0.2,0.4-0.4c0-0.2-0.2-0.4-0.4-0.4h-1c-0.2,0-0.4,0.2-0.4,0.4
		C183.5,211.5,183.7,211.7,183.9,211.7z"/>
	<path fill="#231F20" d="M177.9,211.7h1c0.2,0,0.4-0.2,0.4-0.4c0-0.2-0.2-0.4-0.4-0.4h-1c-0.2,0-0.4,0.2-0.4,0.4
		C177.5,211.5,177.7,211.7,177.9,211.7z"/>
	<path fill="#231F20" d="M190.7,211.9c0.2,0,0.4-0.2,0.4-0.4c0-0.4-0.3-0.6-0.7-0.6h-0.6c-0.2,0-0.4,0.2-0.4,0.4
		c0,0.2,0.2,0.4,0.4,0.4h0.5C190.4,211.8,190.5,211.9,190.7,211.9z"/>
	<path fill="#231F20" d="M190.7,219.2c-0.2,0-0.4,0.2-0.4,0.4v1c0,0.2,0.2,0.4,0.4,0.4c0.2,0,0.4-0.2,0.4-0.4v-1
		C191.1,219.3,190.9,219.2,190.7,219.2z"/>
	<path fill="#231F20" d="M190.7,216.2c-0.2,0-0.4,0.2-0.4,0.4v1c0,0.2,0.2,0.4,0.4,0.4c0.2,0,0.4-0.2,0.4-0.4v-1
		C191.1,216.4,190.9,216.2,190.7,216.2z"/>
	<path fill="#231F20" d="M190.7,213.1c-0.2,0-0.4,0.2-0.4,0.4v1c0,0.2,0.2,0.4,0.4,0.4c0.2,0,0.4-0.2,0.4-0.4v-1
		C191.1,213.3,190.9,213.1,190.7,213.1z"/>
	<path fill="#231F20" d="M188.3,211.3c0-0.2-0.2-0.4-0.4-0.4h-1c-0.2,0-0.4,0.2-0.4,0.4c0,0.2,0.2,0.4,0.4,0.4h1
		C188.1,211.7,188.3,211.5,188.3,211.3z"/>
	<path fill="#231F20" d="M185.3,222.8h-1c-0.2,0-0.4,0.2-0.4,0.4s0.2,0.4,0.4,0.4h1c0.2,0,0.4-0.2,0.4-0.4S185.6,222.8,185.3,222.8z
		"/>
	<path fill="#231F20" d="M188.3,222.8h-1c-0.2,0-0.4,0.2-0.4,0.4s0.2,0.4,0.4,0.4h1c0.2,0,0.4-0.2,0.4-0.4
		C188.7,223,188.5,222.8,188.3,222.8z"/>
	<path fill="#231F20" d="M190.7,222.1c-0.2,0-0.4,0.2-0.4,0.4v0.3c-0.2,0-0.4,0.2-0.4,0.4s0.2,0.4,0.4,0.4h0.1
		c0.4,0,0.7-0.3,0.7-0.7v-0.5C191.1,222.3,190.9,222.1,190.7,222.1z"/>
</g>
<g>
	<path fill="#231F20" d="M228,224.8c-0.2,0-0.4,0.2-0.4,0.4v0.3c-0.2,0-0.4,0.2-0.4,0.4s0.2,0.4,0.4,0.4h0.1c0.4,0,0.7-0.3,0.7-0.7
		v-0.5C228.3,225,228.2,224.8,228,224.8z"/>
	<path fill="#231F20" d="M218.3,225.5H218c0-0.2-0.2-0.4-0.4-0.4c-0.2,0-0.4,0.2-0.4,0.4v0.1c0,0.4,0.3,0.7,0.7,0.7h0.5
		c0.2,0,0.4-0.2,0.4-0.4S218.5,225.5,218.3,225.5z"/>
	<path fill="#231F20" d="M217.5,220.3c0.2,0,0.4-0.2,0.4-0.4v-0.6c0-0.2-0.2-0.4-0.4-0.4s-0.4,0.2-0.4,0.4v0.6
		C217.1,220.1,217.3,220.3,217.5,220.3z"/>
	<path fill="#231F20" d="M220.4,225.5h-0.6c-0.2,0-0.4,0.2-0.4,0.4s0.2,0.4,0.4,0.4h0.6c0.2,0,0.4-0.2,0.4-0.4
		C220.9,225.7,220.7,225.5,220.4,225.5z"/>
	<path fill="#231F20" d="M217.6,218.2c0.1,0,0.2,0,0.3-0.1h0.3c0.2,0,0.4-0.2,0.4-0.4s-0.2-0.4-0.4-0.4h-0.4c-0.2,0-0.4,0.1-0.5,0.3
		c-0.1,0.2-0.1,0.4,0.1,0.6C217.4,218.2,217.5,218.2,217.6,218.2z"/>
	<path fill="#231F20" d="M217.5,222.5c0.2,0,0.4-0.2,0.4-0.4v-0.6c0-0.2-0.2-0.4-0.4-0.4s-0.4,0.2-0.4,0.4v0.6
		C217.1,222.3,217.3,222.5,217.5,222.5z"/>
	<path fill="#231F20" d="M217.5,224.7c0.2,0,0.4-0.2,0.4-0.4v-0.6c0-0.2-0.2-0.4-0.4-0.4s-0.4,0.2-0.4,0.4v0.6
		C217.1,224.5,217.3,224.7,217.5,224.7z"/>
	<path fill="#231F20" d="M223.2,225.5h-0.6c-0.2,0-0.4,0.2-0.4,0.4s0.2,0.4,0.4,0.4h0.6c0.2,0,0.4-0.2,0.4-0.4
		S223.4,225.5,223.2,225.5z"/>
	<path fill="#231F20" d="M225.8,225.5h-0.6c-0.2,0-0.4,0.2-0.4,0.4s0.2,0.4,0.4,0.4h0.6c0.2,0,0.4-0.2,0.4-0.4
		S226,225.5,225.8,225.5z"/>
	<path fill="#231F20" d="M235.8,210.3h-14c-0.5,0-0.9,0.4-0.9,0.9v5.8h-0.1h-0.6c-0.3,0-0.6,0.3-0.6,0.6s0.3,0.6,0.6,0.6h0.6
		c0.1,0,0.1,0,0.1,0v3.9c0,0.5,0.4,0.9,0.9,0.9h5.8v0.5c0,0.2,0.2,0.4,0.4,0.4s0.4-0.2,0.4-0.4V223h7.3c0.5,0,0.9-0.4,0.9-0.9v-10.9
		C236.6,210.8,236.2,210.3,235.8,210.3z M235.3,221.7h-13.1v-10h13.1V221.7z"/>
	<path fill="#231F20" d="M224.8,219.6h3.5c0.1,0,0.2-0.1,0.1-0.2l-1.1-1.1c-0.1-0.1-0.1-0.3,0-0.4l1.8-1.8c0.1-0.1,0.1-0.3,0-0.4
		l-0.9-0.9c-0.1-0.1-0.3-0.1-0.4,0l-1.8,1.8c-0.1,0.1-0.3,0.1-0.4,0l-1.1-1.1c-0.1-0.1-0.2-0.1-0.2,0.1v3.5
		C224.5,219.5,224.6,219.6,224.8,219.6z"/>
</g>
<path fill="#231F20" d="M182,151.8c-4.8,0-8.7,3.9-8.7,8.6c0,4.8,3.9,8.7,8.7,8.7s8.7-3.9,8.7-8.7
	C190.6,155.6,186.7,151.8,182,151.8z M185.9,161.5H183v2.8c0,0.6-0.5,1-1,1c-0.6,0-1-0.5-1-1v-2.8h-2.8c-0.6,0-1-0.5-1-1
	c0-0.6,0.5-1,1-1h2.8v-2.8c0-0.6,0.5-1,1-1c0.6,0,1,0.5,1,1v2.8h2.8c0.6,0,1,0.5,1,1C186.9,161,186.4,161.5,185.9,161.5z"/>
<path fill="#231F20" d="M233,154.3c-3.4-3.4-8.9-3.4-12.3,0c-3.4,3.4-3.4,8.9,0,12.3c3.4,3.4,8.9,3.4,12.3,0
	C236.4,163.2,236.4,157.7,233,154.3z M230.4,163.9c-0.4,0.4-1.1,0.4-1.5,0l-2-2l-2,2c-0.4,0.4-1.1,0.4-1.5,0c-0.4-0.4-0.4-1.1,0-1.5
	l2-2l-2-2c-0.4-0.4-0.4-1.1,0-1.5c0.4-0.4,1.1-0.4,1.5,0l2,2l2-2c0.4-0.4,1.1-0.4,1.5,0c0.4,0.4,0.4,1.1,0,1.5l-2,2l2,2
	C230.8,162.9,230.8,163.5,230.4,163.9z"/>
<path fill="#231F20" d="M137.1,151.8c-4.8,0-8.6,3.8-8.6,8.6s3.8,8.6,8.6,8.6c4.8,0,8.6-3.8,8.6-8.6
	C145.7,155.7,141.9,151.8,137.1,151.8z M140.9,161.5h-7.7c-0.6,0-1-0.5-1-1c0-0.6,0.5-1,1-1h7.7c0.6,0,1,0.5,1,1
	C142,161,141.5,161.5,140.9,161.5z"/>
<path fill="#231F20" d="M271.8,151.8c-4.7,0-8.6,3.8-8.6,8.6c0,4.7,3.8,8.6,8.6,8.6c4.7,0,8.6-3.8,8.6-8.6
	C280.4,155.7,276.5,151.8,271.8,151.8z M272.8,164.5c0,0.6-0.5,1-1,1c-0.6,0-1-0.5-1-1v-4.8c0-0.6,0.5-1,1-1c0.6,0,1,0.5,1,1V164.5z
	 M271.8,157.5c-0.6,0-1.1-0.5-1.1-1.1s0.5-1.1,1.1-1.1s1.1,0.5,1.1,1.1S272.4,157.5,271.8,157.5z"/>
<path fill="#231F20" d="M147,102.4l-9.6-9c-0.2-0.2-0.5-0.2-0.7,0l-9.5,9h2.8v7c0,0.4,0.3,0.7,0.7,0.7h4.6v-5.8h3.4v5.8h4.8
	c0.4,0,0.7-0.3,0.7-0.7v-7H147z"/>
<path fill="#231F20" d="M189.7,106.8l-3.5-3.5c0.5-0.9,0.8-1.9,0.8-3.1c0-3.6-2.9-6.5-6.5-6.5s-6.5,2.9-6.5,6.5
	c0,3.6,2.9,6.5,6.5,6.5c1.3,0,2.3-0.4,3.3-1l3.5,3.5c0.6,0.6,1.5,0.6,2,0l0.4-0.4C190.2,108.3,190.2,107.4,189.7,106.8z
	 M180.4,104.5c-2.3,0-4.3-1.9-4.3-4.3c0-2.3,1.9-4.3,4.3-4.3s4.3,1.9,4.3,4.3C184.7,102.6,182.7,104.5,180.4,104.5z"/>
<g>
	<path fill="#231F20" d="M226,99.6v-1.9c0-0.4-0.3-0.7-0.7-0.7c-0.4,0-0.7,0.3-0.7,0.7v1.9h-1.9c-0.4,0-0.7,0.3-0.7,0.7
		c0,0.4,0.3,0.7,0.7,0.7h1.9v1.9c0,0.4,0.3,0.7,0.7,0.7c0.4,0,0.7-0.3,0.7-0.7V101h1.9c0.4,0,0.7-0.3,0.7-0.7c0-0.4-0.3-0.7-0.7-0.7
		H226z"/>
	<path fill="#231F20" d="M234.6,106.8l-3.5-3.5c0.5-0.9,0.8-1.9,0.8-3.1c0-3.6-2.9-6.5-6.5-6.5c-3.6,0-6.5,2.9-6.5,6.5
		c0,3.6,2.9,6.5,6.5,6.5c1.3,0,2.3-0.4,3.3-1l3.5,3.5c0.6,0.6,1.5,0.6,2,0l0.4-0.4C235.2,108.3,235.2,107.4,234.6,106.8z
		 M225.3,104.5c-2.3,0-4.3-1.9-4.3-4.3c0-2.3,1.9-4.3,4.3-4.3c2.3,0,4.3,1.9,4.3,4.3C229.6,102.6,227.7,104.5,225.3,104.5z"/>
</g>
<path fill="#231F20" d="M280.5,100c0-3.8-3.1-6.9-6.9-6.9h-3.5c-3.8,0-6.9,3.1-6.9,6.9s3.1,6.9,6.9,6.9h1v3.1c0,0.4,0.3,0.5,0.6,0.3
	l5.6-4.4C279,104.6,280.5,102.4,280.5,100z"/>
<g>
	<polygon fill="#1F2222" points="330.9,202.2 335.2,202.2 333,196.7 	"/>
	<path fill="#1F2222" d="M333,186.5c-7.9,0-14.2,6.4-14.2,14.2s14.2,18.8,14.2,18.8s14.2-10.9,14.2-18.8S340.9,186.5,333,186.5z
		 M336.6,206.3l-0.9-2.2h-5.4l-0.9,2.2h-2.3l4.6-11.8h2.5l4.6,11.8H336.6z"/>
</g>
<path fill="#1F2222" d="M333,248.3c0,0-14.2,10.9-14.2,18.8s6.4,14.2,14.2,14.2c7.9,0,14.2-6.4,14.2-14.2
	C347.2,259.2,333,248.3,333,248.3z M333.3,273.7c-3.5,0-6.1-2.4-6.1-6.1c0-3.6,2.7-6.1,6.1-6.1c2.3,0,3.9,1.3,4.7,2.6l-1.8,0.9
	c-0.6-1-1.8-1.8-2.9-1.8c-2.3,0-4.1,1.8-4.1,4.3c0,2.4,1.8,4.3,4.1,4.3c1.3,0,2.4-0.8,2.9-1.8l1.8,0.9
	C337.1,272.4,335.6,273.7,333.3,273.7z"/>
<g>
	<path fill="#1F2222" d="M402.2,201.2h-3.4v3.3h3.4c1.1,0,1.8-0.6,1.8-1.7C404,202,403.4,201.2,402.2,201.2z"/>
	<path fill="#1F2222" d="M402,186.5c-7.9,0-14.2,6.4-14.2,14.2c0,7.9,6.4,14.2,14.2,14.2c7.8,0,18.8-14.2,18.8-14.2
		S409.9,186.5,402,186.5z M402.7,206.3h-5.9v-11.8h5.8c2.1,0,3.3,1.4,3.3,3c0,1.5-1,2.4-2,2.7c1.3,0.2,2.2,1.5,2.2,2.9
		C406.1,205,404.9,206.3,402.7,206.3z"/>
	<path fill="#1F2222" d="M403.8,197.9c0-0.9-0.6-1.6-1.7-1.6h-3.3v3h3.3C403.2,199.4,403.8,198.8,403.8,197.9z"/>
</g>
<g>
	<path fill="#1F2222" d="M406.6,252.9c-7.9,0-18.8,14.2-18.8,14.2s10.9,14.2,18.8,14.2c7.9,0,14.2-6.4,14.2-14.2
		C420.8,259.2,414.4,252.9,406.6,252.9z M407.3,272.7h-4.4v-11.8h4.4c3.7,0,6.1,2.4,6.1,5.8C413.4,270.3,411,272.7,407.3,272.7z"/>
	<path fill="#1F2222" d="M407.3,262.7h-2.3v8.2h2.3c2.5,0,4.1-1.9,4.1-4.1C411.4,264.6,409.9,262.7,407.3,262.7z"/>
</g>
<g>
	<rect x="36" y="209.3" fill="#231F20" width="24.5" height="3.7"/>
	<rect x="36" y="216.5" fill="#231F20" width="24.5" height="3.7"/>
	<rect x="36" y="223.6" fill="#231F20" width="24.5" height="3.7"/>
</g>
<g>
	<g>
		<path fill="#1F2222" d="M406.1,118.6c0,0.6-0.5,1-1,1h-1.7c-0.5,0-1-0.4-1-1v-7.1c0-0.6,0.5-1,1-1h1.7c0.5,0,1,0.4,1,1V118.6z"/>
	</g>
	<g opacity="0.92">
		<path fill="#1F2222" d="M399,119.5c0.3,0.5,0.1,1.1-0.4,1.4l-1.5,0.9c-0.5,0.3-1.1,0.1-1.4-0.4l-3.5-6.1c-0.3-0.5-0.1-1.1,0.4-1.4
			l1.5-0.9c0.5-0.3,1.1-0.1,1.4,0.4L399,119.5z"/>
	</g>
	<g opacity="0.83">
		<path fill="#1F2222" d="M393.3,123.9c0.5,0.3,0.6,0.9,0.4,1.4l-0.9,1.5c-0.3,0.5-0.9,0.6-1.4,0.4l-6.1-3.5
			c-0.5-0.3-0.6-0.9-0.4-1.4l0.9-1.5c0.3-0.5,0.9-0.6,1.4-0.4L393.3,123.9z"/>
	</g>
	<g opacity="0.75">
		<path fill="#1F2222" d="M390.6,130.4c0.5,0,1,0.4,1,1v1.7c0,0.6-0.5,1-1,1h-7.1c-0.5,0-1-0.4-1-1v-1.7c0-0.6,0.5-1,1-1H390.6z"/>
	</g>
	<g opacity="0.67">
		<path fill="#1F2222" d="M391.6,137.5c0.5-0.3,1.1-0.1,1.4,0.4l0.9,1.5c0.3,0.5,0.1,1.1-0.4,1.4l-6.1,3.5c-0.5,0.3-1.1,0.1-1.4-0.4
			l-0.9-1.5c-0.3-0.5-0.1-1.1,0.4-1.4L391.6,137.5z"/>
	</g>
	<g opacity="0.58">
		<path fill="#1F2222" d="M395.9,143.2c0.3-0.5,0.9-0.6,1.4-0.4l1.5,0.9c0.5,0.3,0.6,0.9,0.4,1.4l-3.5,6.1c-0.3,0.5-0.9,0.6-1.4,0.4
			l-1.5-0.9c-0.5-0.3-0.6-0.9-0.4-1.4L395.9,143.2z"/>
	</g>
	<g opacity="0.5">
		<path fill="#1F2222" d="M402.5,145.9c0-0.6,0.5-1,1-1h1.7c0.5,0,1,0.4,1,1v7.1c0,0.6-0.5,1-1,1h-1.7c-0.5,0-1-0.4-1-1V145.9z"/>
	</g>
	<g opacity="0.42">
		<path fill="#1F2222" d="M409.5,144.9c-0.3-0.5-0.1-1.1,0.4-1.4l1.5-0.9c0.5-0.3,1.1-0.1,1.4,0.4l3.5,6.1c0.3,0.5,0.1,1.1-0.4,1.4
			l-1.5,0.9c-0.5,0.3-1.1,0.1-1.4-0.4L409.5,144.9z"/>
	</g>
	<g opacity="0.33">
		<path fill="#1F2222" d="M415.2,140.6c-0.5-0.3-0.6-0.9-0.4-1.4l0.9-1.5c0.3-0.5,0.9-0.6,1.4-0.4l6.1,3.5c0.5,0.3,0.6,0.9,0.4,1.4
			l-0.9,1.5c-0.3,0.5-0.9,0.6-1.4,0.4L415.2,140.6z"/>
	</g>
	<g opacity="0.25">
		<path fill="#1F2222" d="M417.9,134c-0.5,0-1-0.4-1-1v-1.7c0-0.6,0.4-1,1-1h7.1c0.5,0,1,0.4,1,1v1.7c0,0.6-0.5,1-1,1H417.9z"/>
	</g>
	<g opacity="0.17">
		<path fill="#1F2222" d="M417,127c-0.5,0.3-1.1,0.1-1.4-0.4l-0.9-1.5c-0.3-0.5-0.1-1.1,0.4-1.4l6.1-3.5c0.5-0.3,1.1-0.1,1.4,0.4
			l0.9,1.5c0.3,0.5,0.1,1.1-0.4,1.4L417,127z"/>
	</g>
	<g opacity="8.000000e-02">
		<path fill="#1F2222" d="M412.6,121.3c-0.3,0.5-0.9,0.6-1.4,0.4l-1.5-0.9c-0.5-0.3-0.6-0.9-0.4-1.4l3.5-6.1
			c0.3-0.5,0.9-0.6,1.4-0.4l1.5,0.9c0.5,0.3,0.6,0.9,0.4,1.4L412.6,121.3z"/>
	</g>
</g>
<g>
	<g>
		<path fill="#231F20" d="M404.3,34.1c-13.2,0-23.8,10.6-23.8,23.8s10.6,23.8,23.8,23.8c13.2,0,23.8-10.6,23.8-23.8
			C428.1,44.7,417.4,34.1,404.3,34.1z M412.6,59.1l-12.6,8.1c-0.7,0.5-1.9,0.1-1.9-1.2V49.8c0-1.3,1.3-1.7,1.9-1.2l12.6,8.1
			C413.6,57.4,413.6,58.5,412.6,59.1z"/>
	</g>
</g>
<g>
	<g>
		<path fill="#1F2222" d="M94.7,226.6l-6.7-7.2c-0.5-0.6-0.5-1.4,0-1.9l6.7-7.2l2,1.9l-5.8,6.3l5.8,6.2L94.7,226.6z"/>
	</g>
</g>
<g>
	<path fill="#1F2222" d="M92.2,145.5c-8.3,0-14.9,6.7-14.9,14.9c0,8.3,6.7,14.9,14.9,14.9s14.9-6.7,14.9-14.9
		C107.2,152.2,100.5,145.5,92.2,145.5z M92.2,174.4c-7.7,0-14-6.2-14-14c0-7.7,6.3-14,14-14s14,6.2,14,14
		C106.2,168.2,100,174.4,92.2,174.4z"/>
	<path fill="#1F2222" d="M92.5,153.6c0-0.1-0.1-0.1-0.2-0.1l0,0c-0.1,0-0.1,0-0.2,0.1l-6.4,7c-0.1,0.1-0.1,0.2,0,0.3
		c0,0.1,0.1,0.2,0.2,0.2h4.7v5.9c0,0.1,0.1,0.3,0.3,0.3h2.9c0.1,0,0.3-0.1,0.3-0.3v-5.9h4.6c0.1,0,0.2-0.1,0.2-0.2s0-0.2,0-0.3
		L92.5,153.6z"/>
</g>
</svg>
