<?xml version="1.0" encoding="utf-8"?>
<!-- Generator: Adobe Illustrator 17.1.0, SVG Export Plug-In . SVG Version: 6.00 Build 0)  -->
<!DOCTYPE svg PUBLIC "-//W3C//DTD SVG 1.1//EN" "http://www.w3.org/Graphics/SVG/1.1/DTD/svg11.dtd">
<svg version="1.1" id="Layer_1" xmlns="http://www.w3.org/2000/svg" xmlns:xlink="http://www.w3.org/1999/xlink" x="0px" y="0px"
	 viewBox="-152.3 95 318 244" enable-background="new -152.3 95 318 244" xml:space="preserve">
<g>
	<path fill="#FFFFFF" stroke="#000000" stroke-width="3" stroke-miterlimit="10" d="M5.6,336c-33.1,0-109-28.9-148.6-45.9
		c-3-1.3-5.3-5-5.3-8.4V179c0-3.4,2.3-7.1,5.3-8.4c49.2-21.2,119.2-39.8,149.8-39.8c31.2,0,99.9,18.2,149.9,39.8
		c3,1.3,5.3,5,5.3,8.4v102.6c0,3.4-2.3,7.1-5.3,8.4C105.1,312.3,34.6,336,5.6,336z"/>
	<g>
		<path fill="#000100" d="M-107.3,243.3c-4.2,0-7.1-2.3-7.1-6.4v-6.1h5v4.6c0,2.1,0.8,2.8,2,2.8c1.3,0,2.1-0.8,2.1-4.2
			c0-3.5-0.3-6.4-2.9-10.9c-0.6-1-2.2-3.6-2.7-4.4c-2.7-4.4-3.7-7.4-3.7-12.4c0-5.8,3-9,7.3-9c4.9,0,6.9,3.6,7,8.1
			c0.1,1.9,0.1,4.9,0.1,4.9h-5v-4c0-2.3-0.5-3.7-2-3.7c-1.5,0-2.1,1.1-2.1,4.2c0,3.4,1.4,6.4,3,9.1c0.5,0.8,2.4,3.8,2.8,4.5
			c2.7,4.5,3.6,8.1,3.6,13.6C-100,240.6-102.7,243.3-107.3,243.3z"/>
		<path fill="#000100" d="M-87.8,203v39.8h-5.4V203h-4.3v-5.4h13.9v5.4H-87.8z"/>
		<path fill="#000100" d="M-79.7,242.9v-45.2h5.4v45.2H-79.7z"/>
		<path fill="#000100" d="M-54.7,235.4c0,4.8-2.7,7.9-7.3,7.9c-4.9,0-7-2.6-7.4-6.7c-0.3-3.8-0.3-12.4-0.3-16.6
			c0-4.2,0.1-13.3,0.1-14.8c0.3-5.5,3-7.7,8-7.7c4.4,0,6.7,2.7,6.8,8.4c0,1.6,0,4.9,0,7.1h-5.1c0-2.4,0-6.2,0-8
			c-0.1-1.7-0.9-2.4-1.9-2.4c-1.6,0-2.3,1-2.3,2.8c-0.1,2-0.1,11.2-0.1,14.5c0,4.2,0.1,13.6,0.1,14.8c0.1,2.8,0.9,3.6,2.1,3.6
			c1.1,0,2.1-0.6,2.1-3.8c0-2.7,0-6,0-6.8h5.1C-54.7,229-54.7,234.1-54.7,235.4z"/>
		<path fill="#000100" d="M-39.9,242.9l-4.4-19.2l-0.9,2.5v16.6h-5.3v-45.2h5.3v19.2l5.7-19.2h5.3l-6,19.8l5.9,25.4H-39.9z"/>
		<path fill="#000100" d="M-30.6,242.9v-45.2H-18v5.4h-7.3v14.5h6.5v5.1h-6.5v15h7.3v5.3H-30.6z"/>
		<path fill="#000100" d="M-0.7,217.7c-0.5,1.5-1.6,2.8-2.4,3.2l3.9,22h-5.3l-3.4-20.4h-1.3v20.4h-5.1v-45.2h7.5
			c2.9,0,5,1.6,5.8,4.5c0.5,1.7,1,4.3,1,8C0.1,213.8-0.2,216.1-0.7,217.7z M-5.5,205.5c-0.1-1.5-0.8-2.7-2-2.7H-9c0,0,0,13.6,0,14.7
			c0.1,0,1.2,0,1.7-0.1c0.9-0.2,1.2-0.8,1.5-1.5c0.3-1,0.6-3.6,0.6-5.2C-5.3,208.7-5.4,206-5.5,205.5z"/>
		<path fill="#000100" d="M20.5,243.2c-4.5,0-7.5-2.3-7.5-7.3c0-0.4,0-38.2,0-38.2h5.3c0,0,0,36,0,37.4c0,2.4,0.7,3.1,2.1,3.1
			c1.4,0,1.9-0.8,1.9-3c0-1.4,0-37.5,0-37.5h5.3c0,0,0,37.8,0,38.2C27.6,240.6,25.1,243.2,20.5,243.2z"/>
		<path fill="#000100" d="M32.5,242.9v-45.2h5.4v45.2H32.5z"/>
		<path fill="#000100" d="M60.2,242.9h-8.8v-45.2h8.5c2.9,0,5,1.1,5.7,3.4c0.5,1.5,0.7,5.1,0.7,7.5c0,2.5-0.1,6.2-0.5,7.6
			c-0.5,1.9-1.2,3.1-3,3.4c1.8,0.3,2.8,1.2,3.3,2.9c0.5,1.5,0.6,5.5,0.6,7.9c0,2.9-0.1,7.1-0.7,8.6
			C64.9,241.6,63.6,242.9,60.2,242.9z M60.8,204.7c-0.1-1.4-0.8-2.3-2-2.3h-2v15.3h2.7c0.6,0,1.4-0.5,1.4-1.9c0.1-0.9,0.1-3.6,0.1-6
			C60.8,207.7,60.8,205.6,60.8,204.7z M61,230c0-1.6-0.1-4.8-0.1-5.8c-0.1-1.4-0.7-1.9-1.5-1.9h-2.7v15.9h2.4c0.9,0,1.8-0.5,1.8-1.9
			C61,235.2,61,231.5,61,230z"/>
		<path fill="#000100" d="M85.9,205.5C86,207.4,86,215.5,86,220c0,4.9,0,12.3-0.1,15.1c-0.2,5.3-2.4,8.1-7.5,8.1
			c-5,0-7.3-2.7-7.5-7.9c0-1.4-0.1-11-0.1-15.2s0.1-13.5,0.1-14.4c0.1-5,2.1-8.3,7.5-8.3C83.4,197.4,85.7,200,85.9,205.5z
			 M80.6,235.1c0.1-1.9,0.1-11.2,0.1-14.9c0-3.1,0-12.4-0.1-14.2c-0.1-2.4-0.6-3.4-2.1-3.4c-1.8,0-2,1.3-2.1,3.5
			c-0.1,1.8-0.1,11.1-0.1,14.3c0,3.4-0.1,12.8,0.1,14.8c0.1,1.9,0.5,3.1,2.1,3.1C80,238.2,80.5,236.8,80.6,235.1z"/>
		<path fill="#000100" d="M105.4,205.5c0.1,1.9,0.1,10.1,0.1,14.5c0,4.9,0,12.3-0.1,15.1c-0.2,5.3-2.4,8.1-7.5,8.1
			c-5,0-7.3-2.7-7.5-7.9c0-1.4-0.1-11-0.1-15.2s0.1-13.5,0.1-14.4c0.1-5,2.1-8.3,7.5-8.3C102.8,197.4,105.1,200,105.4,205.5z
			 M100,235.1c0.1-1.9,0.1-11.2,0.1-14.9c0-3.1,0-12.4-0.1-14.2c-0.1-2.4-0.6-3.4-2.1-3.4c-1.8,0-2,1.3-2.1,3.5
			c-0.1,1.8-0.1,11.1-0.1,14.3c0,3.4-0.1,12.8,0.1,14.8c0.1,1.9,0.5,3.1,2.1,3.1C99.5,238.2,99.9,236.8,100,235.1z"/>
		<path fill="#000100" d="M120.7,242.9l-4.4-19.2l-0.9,2.5v16.6h-5.3v-45.2h5.3v19.2l5.7-19.2h5.3l-6,19.8l5.9,25.4H120.7z"/>
	</g>
	<g>
		<path fill="#000100" d="M5.2,258.1c0,0.4,0,1.4,0,2.4c0,1,0,2.1,0,2.4c0,1-0.4,1.3-1,1.3c-0.5,0-0.7-0.2-0.9-0.4l-0.2,0.4H2.3
			v-10.3h1.1v3.7c0.1-0.3,0.4-0.5,0.8-0.5C4.8,257,5.2,257.4,5.2,258.1z M3.4,258.7c0,0.7,0,1.2,0,1.9c0,1.5,0,1.8,0,2.2
			c0,0.2,0.1,0.4,0.3,0.4c0.2,0,0.3-0.1,0.3-0.5c0-0.4,0-1.4,0-2.2c0-0.7,0-1.6,0-2.1c0-0.2-0.1-0.4-0.3-0.4
			C3.5,258.1,3.4,258.4,3.4,258.7z"/>
		<path fill="#000100" d="M7.6,266.3H6.5l0.4-2.4l-1-6.7H7c0,0.1,0.4,3.3,0.5,4.6c0.1-1.2,0.5-4.4,0.5-4.6h1.1L7.6,266.3z"/>
	</g>
	<line fill="none" stroke="#000000" stroke-width="0.5" stroke-miterlimit="10" x1="-109.6" y1="275" x2="121.7" y2="275"/>
	<g>
		<g opacity="0.4">
			<g>
				<path d="M51.8,136.3L51.8,136.3c-5.2-15.8-21.2-27.1-39.8-26.6c-22.4,0.6-40.1,18.1-39.5,39c0.5,17.4,13.5,31.7,30.7,35.6
					L51.8,136.3C51.8,136.4,51.8,136.4,51.8,136.3L51.8,136.3z"/>
			</g>
		</g>
		<g>
			<path d="M49.7,128.1C44.6,109.6,27.7,96,7.6,96c-24.2,0-43.7,19.6-43.7,43.7c0,20.1,13.6,37,32.1,42.2L49.7,128.1z M-25,129.9
				c-2.2-3.9-1-11.4,6.4-18.8c7.4-7.4,14.5-8.1,16.4-5.8c1.1,1.3-5.3,3.3-12.7,10.7C-22.3,123.3-23.1,133.2-25,129.9z"/>
			<g>
				<g>
					<path fill="#FFFFFF" d="M-3.5,179.9c-0.7-3.2-1.1-6.5-1.1-9.7c0-23.6,18.7-42.8,41.8-42.8c0.3,0,0.6,0,1,0
						c4.5,0.1,7.9,0.7,9.8,1.1L-3.5,179.9z"/>
					<g>
						<path d="M37.1,128.4c0.3,0,0.6,0,0.9,0c3.2,0.1,5.8,0.4,7.7,0.7L-3,177.9c-0.5-2.5-0.7-5.1-0.7-7.7
							C-3.7,147.2,14.6,128.4,37.1,128.4 M37.1,126.4c-23.7,0-42.8,19.9-42.8,43.8c0,4,0.6,8,1.6,11.7L49.7,128
							c0,0-4.5-1.4-11.7-1.6C37.7,126.4,37.4,126.4,37.1,126.4L37.1,126.4z"/>
					</g>
				</g>
				<g>
					<path fill="#FFFFFF" d="M-4.1,181.9C-4.1,181.9-4.1,181.9-4.1,181.9L-4.1,181.9C-4.1,181.9-4.1,181.9-4.1,181.9z"/>
					<path d="M-4.1,181.9C-4.1,181.9-4.1,181.9-4.1,181.9C-4.1,181.9-4.1,181.9-4.1,181.9L-4.1,181.9z"/>
				</g>
			</g>
		</g>
	</g>
	<g>
		<g>
			<path fill="#FFFFFF" d="M-25.1,129.9c-2.2-3.9-1-11.4,6.4-18.8c7.4-7.4,14.5-8.1,16.4-5.8c1.1,1.3-5.3,3.3-12.7,10.7
				C-22.3,123.4-23.2,133.2-25.1,129.9z"/>
			<g>
				<g>
					<polygon fill="#FFFFFF" points="-3.7,181.7 -3.6,181.8 -4.6,182 					"/>
					<path d="M-4.1,181.9C-4.1,181.9-4.1,181.9-4.1,181.9C-4.1,181.9-4.1,181.9-4.1,181.9L-4.1,181.9z"/>
				</g>
			</g>
		</g>
	</g>
	<g>
		<g>
			<path d="M-6.4,308.1v-16.7h2.3v16.7H-6.4z"/>
			<path d="M-0.5,308.1v-16.7h2.3V306h3.1v2H-0.5z"/>
			<path d="M7.2,308.1v-16.7h2.3V306h3.1v2H7.2z"/>
			<path d="M15,308.1v-5.5h-0.7l0.7-1.8v-9.4h5.5v1.8h-3.2v7.5h2.5v1.8h-2.5v3.5h3.2v2H15z"/>
			<path d="M27.3,301.7c0.5,0.6,1.1,1.5,1.6,2.6c0.5,1.3,0.7,2.6,0.7,3.7h-2.3c0-1-0.2-2-0.5-2.9c-0.4-1-0.9-1.8-1.3-2.3v5.2h-2.3
				v-16.7h1.8c2.4,0,4.7,1.3,4.7,5C29.7,299.6,28.1,301.2,27.3,301.7z M25.4,293.2v7.4c0.5-0.1,1.9-1.3,1.9-4.2
				C27.4,293.9,26.5,293.2,25.4,293.2z"/>
			<path d="M-10.8,301.6l1.9,6.4h-2.3l-2-6.9l-1,2.2v4.7h-2.3v-16.7h2.3v7.1l2.5-7.1h2.4l-2.4,7.2L-10.8,301.6"/>
		</g>
		<g>
			<g>
				<g>
					<path d="M1,320.9v-5.6h1v5.6H1z"/>
					<path d="M6.5,320.9l-1.6-3.2v3.2h-1v-5.6h0.5l1.6,3.2v-3.2h1v5.6H6.5z"/>
					<path d="M10.3,320.9c-0.8,0-2-0.2-2-2.9s1.2-2.8,2-2.8c0.3,0,0.5,0.1,0.5,0.1v0.6c-0.1,0-0.2,0-0.3,0c-0.4,0-1.2,0.2-1.2,2.2
						c0,2,0.7,2.2,1.2,2.2c0.1,0,0.2,0,0.3,0v0.6C10.8,320.9,10.6,320.9,10.3,320.9z"/>
					<path d="M11.9,320.9v-1h0.9v1H11.9z"/>
				</g>
			</g>
		</g>
	</g>
</g>
</svg>
