<?xml version="1.0" encoding="utf-8"?>
<!-- Generator: Adobe Illustrator 17.1.0, SVG Export Plug-In . SVG Version: 6.00 Build 0)  -->
<!DOCTYPE svg PUBLIC "-//W3C//DTD SVG 1.1//EN" "http://www.w3.org/Graphics/SVG/1.1/DTD/svg11.dtd">
<svg version="1.1" id="Layer_1" xmlns="http://www.w3.org/2000/svg" xmlns:xlink="http://www.w3.org/1999/xlink" x="0px" y="0px"
	 viewBox="0 0 92.5 174.5" enable-background="new 0 0 92.5 174.5" xml:space="preserve">
<ellipse transform="matrix(0.9445 -0.3287 0.3287 0.9445 -21.383 21.8762)" fill="#FFD217" cx="54" cy="74.2" rx="24.1" ry="12.2"/>
<g>
	<g>
		<path fill="#010101" d="M20.3,148.8v-33.5h4.6v33.5H20.3z"/>
		<path fill="#010101" d="M32.1,148.8v-33.5h4.6v29.4h6.2v4.1H32.1z"/>
		<path fill="#010101" d="M47.5,148.8v-33.5h4.6v29.4h6.2v4.1H47.5z"/>
		<path fill="#010101" d="M63.1,148.8v-11h-1.4l1.4-3.7v-18.8h11v3.7h-6.4v15.1h5.1v3.7h-5.1v7h6.4v4.1H63.1z"/>
		<path fill="#010101" d="M87.8,136.1c1,1.2,2.3,3,3.1,5.2c1.1,2.6,1.4,5.2,1.4,7.5h-4.5c0-1.9-0.3-4-1-5.9c-0.8-2-1.9-3.6-2.7-4.5
			v10.4h-4.6v-33.5H83c4.9,0,9.5,2.5,9.5,10.1C92.5,131.9,89.3,135,87.8,136.1z M84,119v14.7c1-0.1,3.9-2.6,3.9-8.3
			C87.9,120.5,86.1,119,84,119z"/>
		<path fill="#010101" d="M11.5,135.9l3.8,12.8h-4.7l-4-13.8l-1.9,4.3v9.5H0v-33.4h4.7v14.2l5-14.2h4.8l-4.9,14.4L11.5,135.9"/>
	</g>
	<g>
		<g>
			<g>
				<path fill="#010101" d="M35.1,174.4v-11.3h2v11.3H35.1z"/>
				<path fill="#010101" d="M46.1,174.4l-3.3-6.5v6.5h-2v-11.3h1l3.3,6.5v-6.5H47v11.3H46.1z"/>
				<path fill="#010101" d="M53.7,174.5c-1.5,0-4-0.5-4-5.7s2.5-5.7,4-5.7c0.6,0,1,0.1,1,0.1v1.2c-0.2,0-0.4-0.1-0.7-0.1
					c-0.9,0-2.3,0.5-2.3,4.4c0,4,1.5,4.5,2.3,4.5c0.3,0,0.4,0,0.7,0v1.2C54.7,174.4,54.3,174.5,53.7,174.5z"/>
				<path fill="#010101" d="M57,174.4v-1.9h1.8v1.9H57z"/>
			</g>
		</g>
	</g>
</g>
<g>
	<g>
		<path fill="#010101" d="M74.6,7.8c-0.1,0-0.9,0.3-1.8,1.4c-1,1.4-1.5,3.4-1.5,6c0,1.8,0.4,3.5,0.7,5.1c1,4.5,1.9,8.7-4.8,15.5
			c-1.5-1.1-3.7-1-5.1,0.4l-4,4c-4-2.6-8.8-4-13.9-4c-14.4,0-26,11.6-26,26c0,14.3,11.6,26,26,26s26-11.6,26-26
			c0-6.4-2.3-12.2-6.1-16.8l3.6-3.6c1.3-1.3,1.5-3.3,0.6-4.9c7.3-7.4,6.3-12.2,5.2-16.9c-0.4-1.6-0.7-3.1-0.7-4.8
			c0-4.1,1.4-5.7,2.1-5.9l0,0L74.6,7.8z"/>
		<path fill="#010101" d="M76.6,4.4C76.6,4.4,76.6,4.4,76.6,4.4c0.2,0,0.2,0,0.3-0.1l1.5-2.8c0-0.1,0-0.2-0.1-0.3
			c-0.1,0-0.2,0-0.3,0.1l-1.5,2.8C76.4,4.2,76.5,4.4,76.6,4.4z"/>
		<path fill="#010101" d="M82.6,5.8c0-0.1-0.1-0.1-0.2-0.1l-3.7,1.5c-0.1,0-0.1,0.1-0.1,0.2c0,0.1,0.1,0.1,0.2,0.1c0,0,0,0,0.1,0
			l3.7-1.5C82.6,6,82.7,5.9,82.6,5.8z"/>
		<path fill="#010101" d="M73.7,3.3L73.7,3.3c0.1,0,0.2-0.1,0.2-0.2l-0.2-2.9c0-0.1-0.1-0.2-0.2-0.2c-0.1,0-0.2,0.1-0.2,0.2l0.2,2.9
			C73.5,3.2,73.6,3.3,73.7,3.3z"/>
		<path fill="#010101" d="M69.8,5.5c0,0,0.1,0,0.1,0c0.1,0,0.1,0,0.1-0.1c0.1-0.1,0-0.2,0-0.3l-2.7-2.1c-0.1-0.1-0.2,0-0.3,0
			c-0.1,0.1,0,0.2,0,0.3L69.8,5.5z"/>
		<path fill="#010101" d="M64.8,9.3l3.7,0.3h0c0.1,0,0.2-0.1,0.2-0.2c0-0.1-0.1-0.2-0.2-0.2l-3.7-0.3c-0.1,0-0.2,0.1-0.2,0.2
			C64.7,9.2,64.7,9.3,64.8,9.3z"/>
		<path fill="#010101" d="M81.6,12.1l-3.3-0.3c-0.1,0-0.2,0.1-0.2,0.2c0,0.1,0.1,0.2,0.2,0.2l3.3,0.3h0c0.1,0,0.2-0.1,0.2-0.2
			C81.8,12.2,81.7,12.1,81.6,12.1z"/>
		<path fill="#010101" d="M76.8,14.4c0-0.1-0.2-0.1-0.2-0.1c-0.1,0-0.1,0.2-0.1,0.2L78,18c0,0.1,0.1,0.1,0.2,0.1c0,0,0.1,0,0.1,0
			c0.1,0,0.1-0.2,0.1-0.2L76.8,14.4z"/>
		<path fill="#010101" d="M68.9,13.9l-2.4,2c-0.1,0.1-0.1,0.2,0,0.3c0,0,0.1,0.1,0.1,0.1c0,0,0.1,0,0.1,0l2.4-2
			c0.1-0.1,0.1-0.2,0-0.3C69.1,13.9,68.9,13.9,68.9,13.9z"/>
	</g>
	<path fill="#FFFFFF" d="M38,41.7c0.7,0.8-3.1,1.9-7.4,6.2c-4.3,4.3-4.8,10-5.9,8.1c-1.3-2.3-0.6-6.6,3.7-10.9
		C32.7,40.8,36.8,40.3,38,41.7z"/>
</g>
<ellipse transform="matrix(0.9445 -0.3287 0.3287 0.9445 -21.383 21.8762)" opacity="0.4" fill="#010101" cx="54" cy="74.2" rx="24.1" ry="12.2"/>
</svg>
