<?xml version="1.0" encoding="utf-8"?>
<!-- Generator: Adobe Illustrator 18.0.0, SVG Export Plug-In . SVG Version: 6.00 Build 0)  -->
<!DOCTYPE svg PUBLIC "-//W3C//DTD SVG 1.1//EN" "http://www.w3.org/Graphics/SVG/1.1/DTD/svg11.dtd">
<svg version="1.1" id="Layer_1" xmlns="http://www.w3.org/2000/svg" xmlns:xlink="http://www.w3.org/1999/xlink" x="0px" y="0px"
	 viewBox="0 0 149 32" enable-background="new 0 0 149 32" xml:space="preserve">
<g>
	<g>
		<path fill="#000100" d="M5.4,29c-2.6,0-4.3-1.4-4.3-3.9v-3.7h3v2.8c0,1.3,0.5,1.7,1.2,1.7c0.8,0,1.3-0.5,1.3-2.6
			c0-2.1-0.2-3.9-1.8-6.6c-0.4-0.6-1.3-2.2-1.6-2.7C1.6,11.4,1,9.5,1,6.5C1,2.9,2.8,1,5.5,1c3,0,4.2,2.2,4.3,4.9c0,1.2,0,3,0,3H6.7
			V6.5c0-1.4-0.3-2.2-1.2-2.2c-0.9,0-1.3,0.7-1.3,2.6c0,2.1,0.8,3.9,1.8,5.6c0.3,0.5,1.4,2.3,1.7,2.7c1.7,2.7,2.2,4.9,2.2,8.3
			C9.9,27.4,8.2,29,5.4,29z"/>
		<path fill="#000100" d="M17.3,4.5v24.3H14V4.5h-2.6V1.2h8.5v3.3H17.3z"/>
		<path fill="#000100" d="M22.2,28.8V1.2h3.3v27.6H22.2z"/>
		<path fill="#000100" d="M37.5,24.2c0,2.9-1.6,4.8-4.5,4.8c-3,0-4.3-1.6-4.5-4.1c-0.2-2.3-0.2-7.6-0.2-10.1s0.1-8.1,0.1-9
			C28.6,2.4,30.2,1,33.3,1c2.7,0,4.1,1.6,4.2,5.1c0,1,0,3,0,4.3h-3.1c0-1.4,0-3.8,0-4.9c0-1-0.6-1.4-1.2-1.4c-1,0-1.4,0.6-1.4,1.7
			c0,1.2,0,6.9,0,8.8c0,2.6,0,8.3,0.1,9c0.1,1.7,0.6,2.2,1.3,2.2c0.7,0,1.3-0.4,1.3-2.3c0-1.7,0-3.7,0-4.1h3.1
			C37.5,20.3,37.5,23.4,37.5,24.2z"/>
		<path fill="#000100" d="M46.6,28.8l-2.7-11.7l-0.6,1.6v10.1h-3.2V1.2h3.2v11.7l3.5-11.7H50l-3.7,12.1l3.6,15.5H46.6z"/>
		<path fill="#000100" d="M52.2,28.8V1.2h7.7v3.3h-4.5v8.9h4v3.1h-4v9.1h4.5v3.2H52.2z"/>
		<path fill="#000100" d="M70.5,13.4c-0.3,0.9-1,1.7-1.4,1.9l2.4,13.4h-3.2l-2.1-12.5h-0.8v12.5h-3.1V1.2h4.6c1.8,0,3.1,1,3.6,2.7
			c0.3,1,0.6,2.6,0.6,4.9C71,11,70.8,12.4,70.5,13.4z M67.6,5.9c-0.1-0.9-0.5-1.6-1.2-1.6h-0.9c0,0,0,8.3,0,9c0,0,0.8,0,1,0
			c0.6-0.1,0.8-0.5,0.9-0.9c0.2-0.6,0.4-2.2,0.4-3.2C67.7,7.9,67.6,6.2,67.6,5.9z"/>
		<path fill="#000100" d="M83.4,29c-2.8,0-4.6-1.4-4.6-4.5c0-0.2,0-23.3,0-23.3h3.2c0,0,0,22,0,22.8c0,1.4,0.4,1.9,1.3,1.9
			c0.9,0,1.2-0.5,1.2-1.8c0-0.8,0-22.9,0-22.9h3.2c0,0,0,23.1,0,23.3C87.8,27.4,86.2,29,83.4,29z"/>
		<path fill="#000100" d="M90.8,28.8V1.2H94v27.6H90.8z"/>
	</g>
</g>
<g display="none">
	<g display="inline" opacity="0.4">
		<g>
			<path d="M27.9,4.8L27.9,4.8c-1.6-5-6.7-8.6-12.6-8.4C8.2-3.4,2.6,2.1,2.7,8.7c0.2,5.5,4.3,10,9.7,11.3L27.9,4.8
				C27.9,4.8,27.9,4.8,27.9,4.8L27.9,4.8z"/>
		</g>
	</g>
	<g display="inline">
		<path d="M27.2,2.2C25.6-3.7,20.2-8,13.9-8C6.2-8,0-1.8,0,5.9c0,6.4,4.3,11.7,10.2,13.4L27.2,2.2z M3.5,3.2
			C2.8,1.9,3.2-0.6,5.7-3.1s4.8-2.7,5.5-1.9c0.4,0.4-1.8,1.1-4.2,3.6C4.5,1,4.2,4.3,3.5,3.2z"/>
		<g>
			<g>
				<path fill="#FFFFFF" d="M10.3,18.6c-0.2-1-0.4-2-0.4-3.1C10,8.1,15.9,2,23.2,2l0.3,0c1.4,0,2.5,0.2,3.1,0.4L10.3,18.6z"/>
				<g>
					<path d="M23.2,2.3c0.1,0,0.2,0,0.3,0c1,0,1.9,0.1,2.5,0.2L10.5,18c-0.2-0.8-0.2-1.6-0.2-2.4C10.3,8.2,16.1,2.3,23.2,2.3
						 M23.2,1.7C15.7,1.7,9.7,8,9.7,15.5c0,1.3,0.2,2.5,0.5,3.7L27.2,2.2c0,0-1.4-0.5-3.7-0.5C23.4,1.7,23.3,1.7,23.2,1.7L23.2,1.7z
						"/>
				</g>
			</g>
			<g>
				<polygon fill="#FFFFFF" points="10.2,19.2 10.2,19.2 10.2,19.2 				"/>
				<polygon points="10.2,19.2 10.2,19.2 10.2,19.2 				"/>
			</g>
		</g>
	</g>
</g>
<g>
	<path fill="#000100" d="M107.7,28.8h-5.4V1.2h5.2c1.8,0,3,0.7,3.5,2.1c0.3,0.9,0.4,3.1,0.4,4.6c0,1.6-0.1,3.8-0.3,4.7
		c-0.3,1.1-0.8,1.9-1.8,2.1c1.1,0.2,1.7,0.8,2,1.8c0.3,0.9,0.3,3.4,0.3,4.8c0,1.8-0.1,4.3-0.4,5.3C110.5,28,109.7,28.8,107.7,28.8z
		 M108,5.5c0-0.8-0.5-1.4-1.2-1.4h-1.2v9.4h1.6c0.3,0,0.8-0.3,0.9-1.1c0-0.6,0-2.2,0-3.7C108,7.3,108,6,108,5.5z M108.1,20.9
		c0-1,0-2.9-0.1-3.6c0-0.9-0.4-1.1-0.9-1.1h-1.6V26h1.5c0.6,0,1.1-0.3,1.1-1.2C108.1,24.2,108.1,21.9,108.1,20.9z"/>
	<path fill="#000100" d="M122.7,6c0.1,1.2,0.1,6.1,0.1,8.9c0,3,0,7.5-0.1,9.3c-0.1,3.2-1.5,5-4.6,5c-3.1,0-4.5-1.6-4.6-4.8
		c0-0.8,0-6.7,0-9.3s0-8.3,0-8.8c0.1-3,1.3-5.1,4.6-5.1C121.1,1,122.5,2.6,122.7,6z M119.4,24.1c0-1.1,0.1-6.8,0.1-9.1
		c0-1.9,0-7.6,0-8.7c0-1.5-0.3-2.1-1.3-2.1c-1.1,0-1.2,0.8-1.3,2.1c-0.1,1.1,0,6.8,0,8.7c0,2.1,0,7.8,0,9c0.1,1.1,0.3,1.9,1.3,1.9
		C119.1,26,119.4,25.1,119.4,24.1z"/>
	<path fill="#000100" d="M133.9,6c0.1,1.2,0.1,6.1,0.1,8.9c0,3,0,7.5-0.1,9.3c-0.1,3.2-1.5,5-4.6,5c-3.1,0-4.5-1.6-4.6-4.8
		c0-0.8,0-6.7,0-9.3s0-8.3,0-8.8c0.1-3,1.3-5.1,4.6-5.1C132.3,1,133.7,2.6,133.9,6z M130.6,24.1c0-1.1,0.1-6.8,0.1-9.1
		c0-1.9,0-7.6,0-8.7c0-1.5-0.3-2.1-1.3-2.1c-1.1,0-1.2,0.8-1.3,2.1c-0.1,1.1,0,6.8,0,8.7c0,2.1,0,7.8,0,9c0.1,1.1,0.3,1.9,1.3,1.9
		C130.3,26,130.6,25.1,130.6,24.1z"/>
	<path fill="#000100" d="M142.5,28.8l-2.7-11.7l-0.6,1.6v10.2h-3.2V1.2h3.2v11.7l3.5-11.7h3.2l-3.7,12.1l3.6,15.5H142.5z"/>
</g>
</svg>
