<?xml version="1.0" encoding="utf-8"?>
<!-- Generator: Adobe Illustrator 18.0.0, SVG Export Plug-In . SVG Version: 6.00 Build 0)  -->
<!DOCTYPE svg PUBLIC "-//W3C//DTD SVG 1.1//EN" "http://www.w3.org/Graphics/SVG/1.1/DTD/svg11.dtd">
<svg version="1.1" id="Layer_1" xmlns="http://www.w3.org/2000/svg" xmlns:xlink="http://www.w3.org/1999/xlink" x="0px" y="0px"
	 viewBox="0 0 27 20" enable-background="new 0 0 27 20" xml:space="preserve">
<path fill="#231F20" d="M23.8,10.5c-0.2,1.1-0.8,2.3-1.6,3.5c-1.9,2.3-4.2,3.8-6.9,4.6h0c-2.8,0.7-5.6,0.7-8.4-0.2
	c-2.4-0.9-4.4-2.4-5.9-4.4c1.5,1.2,2.8,1.7,4.1,1.7l0,0c2.1,0.1,3.9-0.5,5.3-2c0,0,0,0,0,0l0-0.1c-0.9,0-1.4-0.2-1.8-0.8
	c-0.1-0.4,0-0.7,0.3-1c0.2-0.2,0.4-0.3,0.7-0.5c-1.5,0-2.5-0.5-3.1-1.6C7,9.3,7.6,9,8.3,9.1l0,0C6.5,8.6,5.5,7.7,5.4,6.4
	c0.5-0.1,0.9-0.2,1.4-0.2v0C5.5,5.4,4.8,4.3,4.8,3c1.3,0.4,2.5,0.9,3.8,1.5c1.1,0.5,2.1,1,3,1.5c0.7,0.4,1.3,0.9,1.8,1.5l0,0
	l0.1-0.1c0.3-1.3,0.9-2.6,1.8-3.9l0,0c0.3-0.5,0.7-1,1.3-1.5c0.3-0.2,0.5-0.5,0.9-0.7c0.1,0,0,0.3-0.3,0.7c0.7-0.6,1.4-0.9,2-0.9
	c0.1,0.1-0.1,0.4-0.7,0.8c0.5-0.2,1-0.3,1.6-0.4c0.3,0,0.3,0.2,0.3,0.4c-0.2,0.3-0.9,0.6-2.1,0.8c0,0,0,0,0,0l0,0.1
	c1.3-0.1,2.4,0.4,3.4,1.2c0,0,0,0,0,0c1.1,1.1,1.8,2.3,2,3.7c1,0.4,2,0.4,3.1,0c-0.3,0.8-1.2,1.2-2.7,1.4c0,0,0,0,0,0v0.1
	c1.4,0.3,2.3,0.3,2.7,0.2l0,0C26.2,10.1,25.2,10.5,23.8,10.5z"/>
</svg>
