<?xml version="1.0" encoding="utf-8"?>
<!-- Generator: Adobe Illustrator 18.0.0, SVG Export Plug-In . SVG Version: 6.00 Build 0)  -->
<!DOCTYPE svg PUBLIC "-//W3C//DTD SVG 1.1//EN" "http://www.w3.org/Graphics/SVG/1.1/DTD/svg11.dtd">
<svg version="1.1" xmlns="http://www.w3.org/2000/svg" xmlns:xlink="http://www.w3.org/1999/xlink" x="0px" y="0px"
	 viewBox="0 0 66 90" enable-background="new 0 0 66 90" xml:space="preserve">
<g id="Footer">
	<g id="Footer_-_Extended_1_">
	</g>
	<g id="Footer_-_Extended">
	</g>
</g>
<g id="Background">
</g>
<g id="Content">
	<g id="Product_-_Thumbnail">
	</g>
	<g>
		
			<ellipse transform="matrix(0.9445 -0.3287 0.3287 0.9445 -22.3534 16.3695)" opacity="0.3" fill="#DCE0DF" cx="37.2" cy="74.3" rx="23.9" ry="12"/>
		<g>
			<path fill="#FFFFFF" d="M57.6,8.7c-0.1,0-0.9,0.3-1.7,1.4c-1,1.3-1.5,3.3-1.5,5.9c0,1.8,0.4,3.4,0.7,5c1,4.4,1.9,8.6-4.7,15.3
				c-1.5-1.1-3.7-1-5.1,0.4l-3.9,3.9c-4-2.5-8.7-4-13.7-4C13.5,36.6,2,48.1,2,62.3S13.5,88,27.7,88c14.2,0,25.7-11.5,25.7-25.7
				c0-6.3-2.3-12.1-6-16.6l3.6-3.6c1.3-1.3,1.5-3.3,0.6-4.8c7.2-7.3,6.2-12.1,5.2-16.7c-0.4-1.6-0.7-3.1-0.7-4.7
				c0-4.1,1.4-5.6,2.1-5.9l0,0L57.6,8.7z M14.1,48.3c-4.2,4.2-4.7,9.9-5.8,8c-1.3-2.2-0.6-6.5,3.7-10.8c4.2-4.2,8.3-4.7,9.4-3.3
				C22,43,18.3,44.1,14.1,48.3z"/>
			<path fill="#FFFFFF" d="M59.6,5.4c0.1,0,0.1,0,0.2-0.1l1.4-2.8c0-0.1,0-0.2-0.1-0.3c-0.1,0-0.2,0-0.3,0.1l-1.4,2.8
				C59.4,5.2,59.4,5.3,59.6,5.4C59.6,5.4,59.6,5.4,59.6,5.4z"/>
			<path fill="#FFFFFF" d="M65.3,6.6l-3.7,1.5c-0.1,0-0.1,0.1-0.1,0.2c0,0.1,0.1,0.1,0.2,0.1c0,0,0,0,0.1,0L65.4,7
				c0.1,0,0.1-0.1,0.1-0.2C65.5,6.7,65.4,6.6,65.3,6.6z"/>
			<path fill="#FFFFFF" d="M56.7,4.2L56.7,4.2c0.1,0,0.2-0.1,0.2-0.2l-0.2-2.8c0-0.1-0.1-0.2-0.2-0.2c-0.1,0-0.2,0.1-0.2,0.2L56.5,4
				C56.5,4.1,56.6,4.2,56.7,4.2z"/>
			<path fill="#FFFFFF" d="M52.8,6.4c0,0,0.1,0,0.1,0c0.1,0,0.1,0,0.1-0.1c0.1-0.1,0-0.2,0-0.3L50.4,4c-0.1-0.1-0.2,0-0.3,0
				c-0.1,0.1,0,0.2,0,0.3L52.8,6.4z"/>
			<path fill="#FFFFFF" d="M47.9,10.2l3.7,0.3h0c0.1,0,0.2-0.1,0.2-0.2c0-0.1-0.1-0.2-0.2-0.2L48,9.8c-0.1,0-0.2,0.1-0.2,0.2
				C47.8,10.1,47.8,10.2,47.9,10.2z"/>
			<path fill="#FFFFFF" d="M64.5,13l-3.3-0.3c-0.1,0-0.2,0.1-0.2,0.2c0,0.1,0.1,0.2,0.2,0.2l3.3,0.3h0c0.1,0,0.2-0.1,0.2-0.2
				C64.7,13.1,64.6,13,64.5,13z"/>
			<path fill="#FFFFFF" d="M59.8,15.3c0-0.1-0.2-0.1-0.2-0.1c-0.1,0-0.1,0.2-0.1,0.2l1.5,3.4c0,0.1,0.1,0.1,0.2,0.1c0,0,0.1,0,0.1,0
				c0.1,0,0.1-0.2,0.1-0.2L59.8,15.3z"/>
			<path fill="#FFFFFF" d="M51.9,14.8l-2.4,2c-0.1,0.1-0.1,0.2,0,0.3c0,0,0.1,0.1,0.1,0.1c0,0,0.1,0,0.1,0l2.4-2
				c0.1-0.1,0.1-0.2,0-0.3C52.1,14.7,52,14.7,51.9,14.8z"/>
		</g>
	</g>
</g>
<g id="Masthead">
	<g id="G_x5F_Masthead">
		<g id="Layer_7">
		</g>
	</g>
</g>
<g id="_x31_140_x2F_1280_Grid" display="none">
</g>
</svg>
