<?xml version="1.0" encoding="utf-8"?>
<!-- Generator: Adobe Illustrator 17.1.0, SVG Export Plug-In . SVG Version: 6.00 Build 0)  -->
<!DOCTYPE svg PUBLIC "-//W3C//DTD SVG 1.1//EN" "http://www.w3.org/Graphics/SVG/1.1/DTD/svg11.dtd">
<svg version="1.1" id="Layer_1" xmlns="http://www.w3.org/2000/svg" xmlns:xlink="http://www.w3.org/1999/xlink" x="0px" y="0px"
	 viewBox="0 0 313.4 241.5" enable-background="new 0 0 313.4 241.5" xml:space="preserve">
<g>
	<g>
		<path fill="#FFFFFF" d="M155.4,238.5c-32.9,0-108.5-28.8-148-45.8c-2.4-1.1-4.4-4.2-4.4-7V83c0-2.8,2-6,4.4-7
			c49-21.1,118.8-39.7,149.2-39.7c31,0,99.4,18.2,149.3,39.7c2.4,1.1,4.4,4.2,4.4,7v102.6c0,2.8-2,6-4.4,7
			C254.4,214.9,184.1,238.5,155.4,238.5z"/>
		<path fill="#010101" d="M156.6,37.9c30.9,0,99,18.1,148.7,39.5c1.9,0.8,3.5,3.4,3.5,5.6v102.6c0,2.2-1.6,4.8-3.5,5.6
			C254,213.5,183.9,237,155.4,237c-32.6,0-108-28.7-147.4-45.7c-1.9-0.8-3.5-3.4-3.5-5.6V83c0-2.2,1.6-4.8,3.5-5.6
			C56.9,56.3,126.3,37.9,156.6,37.9 M156.6,34.9C126,34.9,56,53.5,6.8,74.6c-3,1.3-5.3,5-5.3,8.4v102.6c0,3.4,2.3,7.1,5.3,8.4
			C46.4,211.1,122.3,240,155.4,240c28.9,0,99.5-23.7,151.2-45.9c3-1.3,5.3-5,5.3-8.4V83c0-3.4-2.3-7.1-5.3-8.4
			C256.5,53.1,187.8,34.9,156.6,34.9L156.6,34.9z"/>
	</g>
	<g>
		<path fill="#030303" d="M45.5,157.3c-4.8,0-8-2.6-8-7.2v-6.9h5.6v5.2c0,2.4,1,3.2,2.3,3.2c1.5,0,2.4-0.9,2.4-4.7
			c0-4-0.3-7.3-3.3-12.3c-0.7-1.2-2.5-4.1-3-5c-3-4.9-4.2-8.4-4.2-14c0-6.6,3.4-10.2,8.3-10.2c5.6,0,7.8,4,7.9,9.2
			c0.1,2.2,0.1,5.6,0.1,5.6H48v-4.5c0-2.6-0.6-4.2-2.3-4.2c-1.7,0-2.4,1.3-2.4,4.7c0,3.9,1.5,7.3,3.4,10.3c0.6,0.9,2.7,4.3,3.1,5.1
			c3.1,5.1,4,9.2,4,15.4C53.8,154.3,50.7,157.3,45.5,157.3z"/>
		<path fill="#030303" d="M67.6,111.8v45.1h-6.1v-45.1h-4.9v-6.1h15.7v6.1H67.6z"/>
		<path fill="#030303" d="M76.7,156.9v-51.2h6.1v51.2H76.7z"/>
		<path fill="#030303" d="M105.1,148.4c0,5.4-3,8.9-8.3,8.9c-5.5,0-7.9-2.9-8.4-7.6c-0.3-4.3-0.3-14-0.3-18.8s0.1-15,0.1-16.8
			c0.3-6.3,3.4-8.8,9.1-8.8c5,0,7.6,3,7.7,9.5c0,1.8,0,5.5,0,8.1h-5.8c0-2.7,0-7,0-9c-0.1-1.9-1-2.7-2.2-2.7c-1.8,0-2.6,1.1-2.6,3.1
			c-0.1,2.2-0.1,12.7-0.1,16.4c0,4.7,0.1,15.4,0.1,16.8c0.1,3.1,1,4,2.4,4c1.2,0,2.4-0.7,2.4-4.3c0-3.1,0-6.8,0-7.7h5.8
			C105.1,141.1,105.1,146.9,105.1,148.4z"/>
		<path fill="#030303" d="M121.8,156.9l-5-21.7l-1,2.9v18.8h-6v-51.2h6v21.7l6.5-21.7h6l-6.8,22.4l6.7,28.8H121.8z"/>
		<path fill="#030303" d="M132.3,156.9v-51.2h14.3v6.1h-8.3v16.4h7.4v5.8h-7.4v17h8.3v6H132.3z"/>
		<path fill="#030303" d="M166.2,128.4c-0.5,1.7-1.8,3.2-2.7,3.6l4.4,24.9h-6l-3.8-23.1h-1.5v23.1h-5.8v-51.2h8.5
			c3.3,0,5.7,1.8,6.6,5.1c0.6,1.9,1.1,4.9,1.1,9.1C167.1,124,166.8,126.6,166.2,128.4z M160.8,114.5c-0.1-1.7-1-3-2.3-3h-1.7
			c0,0,0,15.4,0,16.6c0.1,0,1.4,0,1.9-0.1c1-0.2,1.4-0.9,1.7-1.7c0.4-1.1,0.7-4,0.7-5.9C161.1,118.2,160.9,115.1,160.8,114.5z"/>
		<path fill="#030303" d="M190.2,157.3c-5.1,0-8.4-2.6-8.4-8.3c0-0.4,0-43.3,0-43.3h6c0,0,0,40.8,0,42.4c0,2.7,0.8,3.5,2.4,3.5
			c1.6,0,2.2-0.9,2.2-3.4c0-1.5,0-42.4,0-42.4h6c0,0,0,42.8,0,43.3C198.3,154.3,195.4,157.3,190.2,157.3z"/>
		<path fill="#030303" d="M203.8,156.9v-51.2h6.1v51.2H203.8z"/>
		<path fill="#030303" d="M237.2,156.9l-5-21.7l-1,2.9v18.8h-6v-51.2h6v21.7l6.5-21.7h6l-6.8,22.4l6.7,28.8H237.2z"/>
		<path fill="#030303" d="M247.7,156.9v-51.2h6.1v51.2H247.7z"/>
		<path fill="#030303" d="M269,111.8v45.1h-6.1v-45.1h-4.9v-6.1h15.7v6.1H269z"/>
	</g>
	<line fill="none" stroke="#010101" stroke-width="0.5" stroke-miterlimit="10" x1="40.1" y1="179.1" x2="271.5" y2="179.1"/>
	<g>
		<g opacity="0.4">
			<g>
				<path fill="#010101" d="M201.6,40.4L201.6,40.4c-5.2-15.8-21.2-27.1-39.8-26.6c-22.4,0.6-40.1,18.1-39.5,39
					c0.5,17.4,13.5,31.7,30.7,35.6L201.6,40.4C201.6,40.4,201.6,40.4,201.6,40.4L201.6,40.4z"/>
			</g>
		</g>
		<g>
			<path fill="#010101" d="M199.5,32.1C194.4,13.6,177.5,0,157.3,0c-24.2,0-43.7,19.6-43.7,43.7c0,20.1,13.6,37,32.1,42.2
				L199.5,32.1z M124.7,33.9c-2.2-3.9-1-11.4,6.4-18.8c7.4-7.4,14.5-8.1,16.4-5.8c1.1,1.3-5.3,3.3-12.7,10.7
				C127.5,27.3,126.6,37.2,124.7,33.9z"/>
			<g>
				<g>
					<path fill="#FFFFFF" d="M146.2,83.9c-0.7-3.2-1.1-6.5-1.1-9.7c0-23.6,18.7-42.8,41.8-42.8c0.3,0,0.6,0,1,0
						c4.5,0.1,7.9,0.7,9.8,1.1L146.2,83.9z"/>
					<g>
						<path fill="#010101" d="M186.8,32.4c0.3,0,0.6,0,0.9,0c3.2,0.1,5.8,0.4,7.7,0.7l-48.7,48.7c-0.5-2.5-0.7-5.1-0.7-7.7
							C146.1,51.2,164.4,32.4,186.8,32.4 M186.8,30.4c-23.7,0-42.8,19.9-42.8,43.8c0,4,0.6,8,1.6,11.7L199.5,32
							c0,0-4.5-1.4-11.7-1.6C187.5,30.5,187.2,30.4,186.8,30.4L186.8,30.4z"/>
					</g>
				</g>
				<g>
					<path fill="#FFFFFF" d="M145.7,85.9C145.7,85.9,145.7,85.9,145.7,85.9L145.7,85.9C145.7,85.9,145.7,85.9,145.7,85.9z"/>
					<path fill="#010101" d="M145.7,85.9C145.7,85.9,145.7,85.9,145.7,85.9C145.7,85.9,145.7,85.9,145.7,85.9L145.7,85.9z"/>
				</g>
			</g>
		</g>
	</g>
	<g>
		<g>
			<path fill="#FFFFFF" d="M124.7,33.9c-2.2-3.9-1-11.4,6.4-18.8c7.4-7.4,14.5-8.1,16.4-5.8c1.1,1.3-5.3,3.3-12.7,10.7
				C127.4,27.4,126.6,37.2,124.7,33.9z"/>
			<g>
				<g>
					<path fill="#FFFFFF" d="M145.6,85.9C145.6,85.9,145.6,85.9,145.6,85.9L145.6,85.9C145.6,85.9,145.6,85.9,145.6,85.9z"/>
					<path fill="#010101" d="M145.6,85.9C145.6,85.9,145.6,85.9,145.6,85.9C145.6,85.9,145.6,85.9,145.6,85.9L145.6,85.9z"/>
				</g>
			</g>
		</g>
	</g>
	<g>
		<g>
			<path fill="#010101" d="M143.4,212.1v-16.7h2.3v16.7H143.4z"/>
			<path fill="#010101" d="M149.3,212.1v-16.7h2.3v14.7h3.1v2H149.3z"/>
			<path fill="#010101" d="M157,212.1v-16.7h2.3v14.7h3.1v2H157z"/>
			<path fill="#010101" d="M164.8,212.1v-5.5H164l0.7-1.8v-9.4h5.5v1.8h-3.2v7.5h2.5v1.8h-2.5v3.5h3.2v2H164.8z"/>
			<path fill="#010101" d="M177.1,205.7c0.5,0.6,1.1,1.5,1.6,2.6c0.5,1.3,0.7,2.6,0.7,3.7h-2.3c0-1-0.2-2-0.5-2.9
				c-0.4-1-0.9-1.8-1.3-2.3v5.2h-2.3v-16.7h1.8c2.4,0,4.7,1.3,4.7,5C179.4,203.7,177.8,205.2,177.1,205.7z M175.2,197.2v7.4
				c0.5-0.1,1.9-1.3,1.9-4.2C177.1,197.9,176.2,197.2,175.2,197.2z"/>
			<path fill="#010101" d="M139,205.7l1.9,6.4h-2.3l-2-6.9l-1,2.2v4.7h-2.3v-16.7h2.3v7.1l2.5-7.1h2.4l-2.4,7.2L139,205.7L139,205.7
				z"/>
		</g>
		<g>
			<g>
				<g>
					<path fill="#010101" d="M150.8,224.9v-5.6h1v5.6H150.8z"/>
					<path fill="#010101" d="M156.3,224.9l-1.6-3.2v3.2h-1v-5.6h0.5l1.6,3.2v-3.2h1v5.6H156.3z"/>
					<path fill="#010101" d="M160,224.9c-0.8,0-2-0.2-2-2.9c0-2.6,1.2-2.8,2-2.8c0.3,0,0.5,0.1,0.5,0.1v0.6c-0.1,0-0.2,0-0.3,0
						c-0.4,0-1.2,0.2-1.2,2.2c0,2,0.7,2.2,1.2,2.2c0.1,0,0.2,0,0.3,0v0.6C160.5,224.9,160.3,224.9,160,224.9z"/>
					<path fill="#010101" d="M161.7,224.9v-1h0.9v1H161.7z"/>
				</g>
			</g>
		</g>
	</g>
</g>
</svg>
