<?xml version="1.0" encoding="utf-8"?>
<!-- Generator: Adobe Illustrator 18.0.0, SVG Export Plug-In . SVG Version: 6.00 Build 0)  -->
<!DOCTYPE svg PUBLIC "-//W3C//DTD SVG 1.1//EN" "http://www.w3.org/Graphics/SVG/1.1/DTD/svg11.dtd">
<svg version="1.1" xmlns="http://www.w3.org/2000/svg" xmlns:xlink="http://www.w3.org/1999/xlink" x="0px" y="0px"
	 viewBox="0 0 1400 4300" enable-background="new 0 0 1400 4300" xml:space="preserve">
<symbol  id="plusDRC_1_" viewBox="-37 -37 74 74">
	<polygon fill="#4469A0" points="12,-12 -12,-12 -12,12 12,12 	"/>
	<polygon fill="#909E3D" points="37,-12 13,-12 13,12 37,12 	"/>
	<polygon fill="#243E8F" points="-13,-12 -37,-12 -37,12 -13,12 	"/>
	<polygon fill="#2A4DA0" points="12,13 -12,13 -12,37 12,37 	"/>
	<polygon fill="#8BB9DF" points="12,-37 -12,-37 -12,-13 12,-13 	"/>
</symbol>
<symbol  id="plusDRC_2" viewBox="-37 -37 74 74">
	<polygon fill="#335FAB" points="12,-12 -12,-12 -12,12 12,12 	"/>
	<polygon fill="#909E3D" points="37,-12 13,-12 13,12 37,12 	"/>
	<polygon fill="#243E8F" points="-13,-12 -37,-12 -37,12 -13,12 	"/>
	<polygon fill="#2060AB" points="12,13 -12,13 -12,37 12,37 	"/>
	<polygon fill="#6598CB" points="12,-37 -12,-37 -12,-13 12,-13 	"/>
</symbol>
<symbol  id="sb" viewBox="-44 -44 87.9 88.2">
	<path fill="#006838" d="M44,0.1C44-24.3,24.3-44,0-44c-24.3,0-44,19.7-44,44.1s19.7,44.1,44,44.1C24.3,44.2,44,24.4,44,0.1z"/>
	<g>
		<path fill="#C0B2AE" d="M-37.3-15.8c0.6-1.5,1.3-2.9,2.1-4.3c1.6,1.6,3.3,3.3,6,6C-32.8-14.8-35.1-15.3-37.3-15.8z"/>
		<path fill="#C0B2AE" d="M40,1.5C35.9,2.7,32,4,28.1,5.2c-0.2-0.5-0.5-1-0.7-1.4c2.9-4.4,9.2-3.9,12.5-8.3c-3.2,1-6.4,1.9-9.6,2.9
			c-0.3-0.5-0.7-0.9-1-1.4c3.3-2.1,6.7-4.2,10-6.4c0.7,3,1.1,6.1,1.1,9.3c0,1.9-0.1,3.9-0.4,5.7C40.2,4.2,40.1,2.8,40,1.5z"/>
		<path fill="#C0B2AE" d="M-28.5-28.9c1.5-1.5,3.1-2.8,4.8-4c-0.5,1.9-0.8,3.2-1.2,4.6C-25.7-28.5-26.8-28.6-28.5-28.9z"/>
		<path fill="#C0B2AE" d="M-31.3-25.4c-0.3,0.4-0.7,0.8-1,1.2c1.2,0.9,2.5,2.6,3.5,2.4c5.6-0.8,5.5-1,9.6,2.5
			c-3.7,4.5-1.2,8.1,1.6,12.1c1.2,1.7,1.1,4.6,1.2,6.9c0.2,4.3,0.1,8.6,0.2,12.9c-3.6-3.1-4.1-7.1-2.9-11.2c1.2-4,0-6.9-2-10.5
			c-3.2-5.6-8.3-8.8-12.9-12.6c-0.4,0.3-0.7,0.7-1.1,1c1.7-2.9,3.7-5.6,6.1-8c0.8,1.7,1.4,2.9,2.3,4.8C-28.7-24.4-30-24.9-31.3-25.4
			z"/>
		<path fill="#C0B2AE" d="M-30.3-1.6c-3.1-1-6.3-1.9-9.4-2.9c-0.2,0.4-0.3,0.9-0.5,1.3C-35.8-1.1-31.4,1-26.9,3
			c-0.3,0.7-0.6,1.4-1,2.1c-3.9-1.2-7.8-2.4-12.5-3.9c0-0.5,0-0.9,0-1.4c0-3.2,0.4-6.4,1.1-9.4c3.3,2.1,6.6,4.2,9.9,6.3
			C-29.8-2.7-30-2.2-30.3-1.6z"/>
		<path fill="#C0B2AE" d="M-31-8.1c-2.6-0.9-5.1-1.8-7.7-2.7c-0.2,0.2-0.4,0.4-0.5,0.7c0.4-1.5,0.9-3,1.4-4.4c2.5,1.7,5.1,3.3,7.6,5
			C-30.5-9.1-30.7-8.6-31-8.1z"/>
		<path fill="#C0B2AE" d="M39-10.8c-2.7,0.9-5.4,1.8-8.1,2.8c-0.2-0.5-0.5-1-0.7-1.4c2.5-1.8,5-3.6,7.5-5.3
			C38.2-13.5,38.7-12.1,39-10.8C39-10.8,39-10.8,39-10.8z"/>
		<path fill="#C0B2AE" d="M25.8-15.7c-2.9,1.3-8,12.3-7.2,15.5c1.1,4,1.8,8-1,11.1c-0.5-3.8-1.3-7.8-1.3-11.9c0-2.5,1.3-5.1,2-7.6
			c0.7-2.7,1.5-5.4,2-8.1c0.3-1.4-0.1-3.8,0.6-4.1c2.2-1,4.7-1.1,7.1-1.7c1.4-0.3,2.9-0.7,4.3-1c-0.2-0.6-0.4-1.2-0.6-1.7
			c-1.5,0.4-3,0.8-4.4,1.3c0.3-1.8,0.5-3.4,0.8-4.9c-1.1,0.2-2.3,0.3-3.4,0.5c-0.1-1.3-0.2-2.7-0.3-4c-0.4-0.1-0.7-0.2-1.1-0.2
			c-2,2.9-4,5.7-5.9,8.6c-0.3-0.1-0.6-0.3-0.9-0.4c1.4-3.3,2.8-6.5,4.2-9.8c-6,4.9-6.9,9.2-3.4,15c2.4,3.8,2.7,7.3-0.5,10.8
			c-2.8,3-3.3,6.1-1.7,9.9c1.8,4.3,1.9,8.5-0.9,11.8C13.4,8.9,12.2,4.3,12-0.3c-0.1-2.8,0.8-6.1,2.3-8.5c2.3-3.5,3-6.5,0.3-9.8
			c-3.3-4.1-3.4-8.2-0.5-12.6c1-1.5,1.1-3.6,1.6-5.4c-0.4-0.1-0.9-0.3-1.3-0.4c-1.4,3-3.5,5.9-4.1,9c-0.5,2.4,0.1,5.6,1.5,7.7
			c2.8,4.4,3.5,8.2-0.4,12.4c-3.1,3.3-2.1,7-0.4,10.6c2.3,4.8,1.8,9.1-0.9,12.3c-1-4.6-2.4-9.6-2.9-14.7c-0.3-3,0.1-6.6,1.6-9
			c2.4-3.7,2.9-6.8,0.1-10.2c-3.6-4.3-3.4-8.5-0.7-13.2c1.1-1.8,1.3-4.1,1.4-6.3c-6.1,6.9-6.9,13.2-2.3,20.2c3.6,5.5-0.6,9.1-3,12.7
			C3.4-4-0.7-4-3.3-4.3c-3-0.4-6.2-9.6-4.8-12.6c4.6-10,4.6-10-1.8-21.5c0.2,1.6-0.1,3.5,0.7,4.7c3.7,5.8,3.5,11.1-0.8,16.7
			c-1.1,1.5-0.8,5.4,0.4,7c3.4,4.4,3.3,8.3,1.4,13.2c-1.5,3.7-1.4,8-2,11.9c-2.3-2.4-3.5-6.1-1.7-10c2.6-5.7,3.2-10.7-1.4-15.8
			c-1.2-1.3-1-5.2,0.1-6.7c4.3-5.3,4.2-10.3,0.5-15.7c-0.8-1.1-0.9-2.6-1.4-3.9c-0.4,0-0.9,0-1.3,0c0,1.2-0.5,2.7,0.1,3.5
			c3.6,5.7,4.2,10.9-0.2,16.7c-1.1,1.5,0,5.7,1.4,7.9c2.1,3.3,3,6.2,1.8,10.1c-1,3.3-0.8,6.9-1.3,10.4c-0.1,0.5-1.3,0.7-2,1.1
			c0.3-4.3,1-8.6,0.8-12.9c-0.1-2.9-0.9-6-2.4-8.5c-1.6-2.9-3.5-5.8-1.1-8.5c5.4-6.4,2.7-11.9-2.2-17.2c1.2,3.3,2.5,6.5,3.7,9.8
			c-0.3,0.1-0.6,0.3-1,0.4c-1.7-2.7-3.5-5.4-5.8-9c6.6-4.7,14.7-7.5,23.4-7.5c17.2,0,31.8,10.7,37.7,25.9c-3.7-0.5-6.8-0.9-9.9-1.2
			C27.1-16.1,26.4-15.9,25.8-15.7z"/>
		<path fill="#C0B2AE" d="M1,9.3c1.8,2,4.6,2.3,5.3,1.4c0.9,5.9-1.5,8.2-6.6,8.1c-4.9-0.2-6.9-2.4-6.6-7.4c3.8,0.4,5.2-0.2,5.6-1.9
			c-1.5-0.1-3.3,0.3-4.7-0.2C-7,8.9-7.2,8.9-7.2,8.7C-7.3,5.1-4.7,0.1-1.7-1.9c3.3-2.3,6.2,0.9,8,3.7c1.2,2,0.6,4.6,0.4,7.5
			C3.5,9.3,4.5,9.3,1,9.3z"/>
		<path fill="#C0B2AE" d="M37.7-14.8C37.7-14.8,37.7-14.8,37.7-14.8C37.7-14.8,37.7-14.8,37.7-14.8C37.7-14.8,37.7-14.8,37.7-14.8z"
			/>
		<path fill="#C0B2AE" d="M39.7-9.6c-0.1,0.1-0.2,0.1-0.3,0.2c-0.1-0.5-0.2-0.9-0.3-1.3C39.3-10.4,39.5-10,39.7-9.6z"/>
		<path fill="#C0B2AE" d="M-35.3-20.2c0.1-0.1,0.2-0.2,0.3-0.3c-0.1,0.1-0.2,0.3-0.2,0.4C-35.3-20.1-35.3-20.1-35.3-20.2z"/>
		<path fill="#C0B2AE" d="M-39.6-9.7c0.1-0.2,0.3-0.3,0.4-0.5c-0.1,0.2-0.1,0.4-0.1,0.6C-39.5-9.6-39.5-9.6-39.6-9.7z"/>
		<path fill="#C0B2AE" d="M-37.8-14.6c0.1-0.4,0.2-0.8,0.4-1.2c0,0,0.1,0,0.1,0C-37.5-15.4-37.7-15-37.8-14.6
			C-37.8-14.6-37.8-14.6-37.8-14.6z"/>
		<path fill="#C0B2AE" d="M-28.9-28.5c-0.1-0.2-0.2-0.4-0.3-0.6c0.2,0,0.5,0.1,0.7,0.1C-28.6-28.8-28.8-28.6-28.9-28.5z"/>
		<path fill="#C0B2AE" d="M-23.6-33.4c0.1,0.1,0.1,0.2,0.2,0.3c-0.1,0.1-0.2,0.1-0.3,0.2C-23.7-33.1-23.6-33.3-23.6-33.4z"/>
		<path fill="#C0B2AE" d="M12.3,23.6c0.7,1.8,1.2,3.1,2.1,5.6c-3.6-1.4-6.2-2.4-10.2-3.9c0.6,2.9,1.1,5.2,1.4,7
			c-1.8,1.4-3.9,2.9-5.7,4.3c-1.6-1.3-3.7-2.8-5.8-4.5c0.3-1.7,0.7-4,1.2-6.6c-3.9,1.4-6.5,2.4-10,3.7c1-2.5,1.5-3.8,2.1-5.5
			c-2.2,0.5-3.8,0.8-6.6,1.4c2-3.2,3.4-5.5,4.9-7.9c9.4,4,18.8,4,28.2,0c1.5,2.6,2.9,4.8,4.8,7.9C15.9,24.3,14.3,24,12.3,23.6z"/>
		<path fill="#C0B2AE" d="M-31,20.3c-2.7-5.6-5.2-10.7-8-16.4c7.6,2.9,16.2,2.7,20.8,11.7c-3.1-0.2-5.9-0.4-8.6-0.5
			C-28.3,17-29.9,18.9-31,20.3z"/>
		<path fill="#C0B2AE" d="M38.7,4.3c-2.6,5.5-5,10.6-7.6,16.2c-1.4-1.7-2.9-3.7-4.2-5.4c-2.8,0.2-5.6,0.3-8.4,0.5
			c-0.2-0.5-0.4-1-0.6-1.4c3.2-2.3,6.1-5.2,9.6-6.9C30.9,5.7,35,5.3,38.7,4.3z"/>
	</g>
</symbol>
<pattern  x="1516" y="219" width="43.2" height="43.2" patternUnits="userSpaceOnUse" id="Unnamed_Pattern_2" viewBox="0 -43.2 43.2 43.2" overflow="visible">
	<g>
		<polygon fill="none" points="0,-43.2 43.2,-43.2 43.2,0 0,0 		"/>
		<path fill="#E7E7E8" d="M38.9-3.6c-0.4,0-0.7-0.4-0.7-0.9c0-0.5,0.3-0.9,0.7-0.9c0.4,0,0.7,0.4,0.7,0.9S39.3-3.6,38.9-3.6z"/>
		<path fill="#E7E7E8" d="M38.9-12.1c-0.4,0-0.7-0.4-0.7-0.9c0-0.5,0.3-0.9,0.7-0.9c0.4,0,0.7,0.4,0.7,0.9
			C39.6-12.5,39.3-12.1,38.9-12.1z"/>
		<path fill="#E7E7E8" d="M38.9-20.6c-0.4,0-0.7-0.4-0.7-0.9c0-0.5,0.3-0.9,0.7-0.9c0.4,0,0.7,0.4,0.7,0.9
			C39.6-21,39.3-20.6,38.9-20.6z"/>
		<path fill="#E7E7E8" d="M38.9-29.2c-0.4,0-0.7-0.4-0.7-0.9c0-0.5,0.3-0.9,0.7-0.9c0.4,0,0.7,0.4,0.7,0.9
			C39.6-29.5,39.3-29.2,38.9-29.2z"/>
		<path fill="#E7E7E8" d="M38.9-37.7c-0.4,0-0.7-0.4-0.7-0.8c0-0.5,0.3-0.9,0.7-0.9c0.4,0,0.7,0.4,0.7,0.9
			C39.6-38.1,39.3-37.7,38.9-37.7z"/>
		<path fill="#E7E7E8" d="M30.2-3.6c-0.4,0-0.7-0.4-0.7-0.9c0-0.5,0.3-0.9,0.7-0.9c0.4,0,0.7,0.4,0.7,0.9C30.9-4,30.6-3.6,30.2-3.6z
			"/>
		<path fill="#E7E7E8" d="M30.2-12.1c-0.4,0-0.7-0.4-0.7-0.9c0-0.5,0.3-0.9,0.7-0.9c0.4,0,0.7,0.4,0.7,0.9
			C30.9-12.5,30.6-12.1,30.2-12.1z"/>
		<path fill="#E7E7E8" d="M30.2-20.6c-0.4,0-0.7-0.4-0.7-0.9c0-0.5,0.3-0.9,0.7-0.9c0.4,0,0.7,0.4,0.7,0.9
			C30.9-21,30.6-20.6,30.2-20.6z"/>
		<path fill="#E7E7E8" d="M30.2-29.2c-0.4,0-0.7-0.4-0.7-0.9c0-0.5,0.3-0.9,0.7-0.9c0.4,0,0.7,0.4,0.7,0.9
			C30.9-29.5,30.6-29.2,30.2-29.2z"/>
		<path fill="#E7E7E8" d="M30.2-37.7c-0.4,0-0.7-0.4-0.7-0.8c0-0.5,0.3-0.9,0.7-0.9c0.4,0,0.7,0.4,0.7,0.9
			C30.9-38.1,30.6-37.7,30.2-37.7z"/>
		<path fill="#E7E7E8" d="M21.5-3.6c-0.4,0-0.7-0.4-0.7-0.9c0-0.5,0.3-0.9,0.7-0.9c0.4,0,0.7,0.4,0.7,0.9C22.2-4,21.9-3.6,21.5-3.6z
			"/>
		<path fill="#E7E7E8" d="M21.5-12.1c-0.4,0-0.7-0.4-0.7-0.9c0-0.5,0.3-0.9,0.7-0.9c0.4,0,0.7,0.4,0.7,0.9
			C22.2-12.5,21.9-12.1,21.5-12.1z"/>
		<path fill="#E7E7E8" d="M21.5-20.6c-0.4,0-0.7-0.4-0.7-0.9c0-0.5,0.3-0.9,0.7-0.9c0.4,0,0.7,0.4,0.7,0.9
			C22.2-21,21.9-20.6,21.5-20.6z"/>
		<path fill="#E7E7E8" d="M21.5-29.2c-0.4,0-0.7-0.4-0.7-0.8c0-0.5,0.3-0.9,0.7-0.9c0.4,0,0.7,0.4,0.7,0.9
			C22.2-29.5,21.9-29.2,21.5-29.2z"/>
		<path fill="#E7E7E8" d="M21.5-37.7c-0.4,0-0.7-0.4-0.7-0.9c0-0.5,0.3-0.9,0.7-0.9c0.4,0,0.7,0.4,0.7,0.9
			C22.2-38.1,21.9-37.7,21.5-37.7z"/>
		<path fill="#E7E7E8" d="M13-3.8c-0.4,0-0.7-0.4-0.7-0.8c0-0.5,0.3-0.9,0.7-0.9c0.4,0,0.7,0.4,0.7,0.9C13.7-4.2,13.4-3.8,13-3.8z"
			/>
		<path fill="#E7E7E8" d="M13-12.3c-0.4,0-0.7-0.4-0.7-0.9c0-0.5,0.3-0.9,0.7-0.9c0.4,0,0.7,0.4,0.7,0.9
			C13.7-12.7,13.4-12.3,13-12.3z"/>
		<path fill="#E7E7E8" d="M13-20.9c-0.4,0-0.7-0.4-0.7-0.9c0-0.5,0.3-0.9,0.7-0.9c0.4,0,0.7,0.4,0.7,0.9
			C13.7-21.2,13.4-20.9,13-20.9z"/>
		<path fill="#E7E7E8" d="M13-29.4c-0.4,0-0.7-0.4-0.7-0.9c0-0.5,0.3-0.9,0.7-0.9c0.4,0,0.7,0.4,0.7,0.9
			C13.7-29.8,13.4-29.4,13-29.4z"/>
		<path fill="#E7E7E8" d="M13-37.9c-0.4,0-0.7-0.4-0.7-0.9c0-0.5,0.3-0.9,0.7-0.9c0.4,0,0.7,0.4,0.7,0.9
			C13.7-38.3,13.4-37.9,13-37.9z"/>
		<path fill="#E7E7E8" d="M4.3-3.8c-0.4,0-0.7-0.4-0.7-0.8c0-0.5,0.3-0.9,0.7-0.9C4.7-5.5,5-5.1,5-4.7C5-4.2,4.7-3.8,4.3-3.8z"/>
		<path fill="#E7E7E8" d="M4.3-12.3c-0.4,0-0.7-0.4-0.7-0.9c0-0.5,0.3-0.9,0.7-0.9C4.7-14,5-13.7,5-13.2C5-12.7,4.7-12.3,4.3-12.3z"
			/>
		<path fill="#E7E7E8" d="M4.3-20.9c-0.4,0-0.7-0.4-0.7-0.9c0-0.5,0.3-0.9,0.7-0.9c0.4,0,0.7,0.4,0.7,0.9C5-21.2,4.7-20.9,4.3-20.9z
			"/>
		<path fill="#E7E7E8" d="M4.3-29.4c-0.4,0-0.7-0.4-0.7-0.9c0-0.5,0.3-0.9,0.7-0.9c0.4,0,0.7,0.4,0.7,0.9C5-29.8,4.7-29.4,4.3-29.4z
			"/>
		<path fill="#E7E7E8" d="M4.3-37.9c-0.4,0-0.7-0.4-0.7-0.9c0-0.5,0.3-0.9,0.7-0.9c0.4,0,0.7,0.4,0.7,0.9C5-38.3,4.7-37.9,4.3-37.9z
			"/>
	</g>
</pattern>
<g id="Background">
</g>
<g id="Typography">
	<g id="plusDRC">
	</g>
</g>
<g id="UI_Elements">
	<g>
		<path fill="none" stroke="#8E9093" stroke-miterlimit="10" d="M115.3,3697.5c13.2,0,23.9,10.7,23.9,23.9
			c0,13.2-10.7,23.9-23.9,23.9s-23.9-10.7-23.9-23.9C91.4,3708.2,102.1,3697.5,115.3,3697.5z"/>
		<g>
			<g>
				<g>
					<path fill="#D0D2D3" d="M1188.4,3337.4v768h-1024v-768H1188.4 M1189.4,3336.4h-1h-1024h-1v1v768v1h1h1024h1v-1v-768V3336.4
						L1189.4,3336.4z"/>
				</g>
			</g>
			<g>
				<pattern  id="SVGID_1_" xlink:href="#Unnamed_Pattern_2" patternTransform="matrix(1.0021 0 0 0.8651 -3.442 -204.1962)">
				</pattern>
				<rect x="167" y="3343.7" fill="url(#SVGID_1_)" width="1017" height="761.7"/>
			</g>
		</g>
		<g>
			<path fill="#4F5152" d="M1268.4,3242.9c9.1,0,16.5,7.4,16.5,16.5v924c0,9.1-7.4,16.5-16.5,16.5H84.4c-9.1,0-16.5-7.4-16.5-16.5
				v-924c0-9.1,7.4-16.5,16.5-16.5H1268.4 M1268.4,3241.4H84.4c-9.9,0-18,8.1-18,18v924c0,9.9,8.1,18,18,18h1184c9.9,0,18-8.1,18-18
				v-924C1286.4,3249.5,1278.3,3241.4,1268.4,3241.4L1268.4,3241.4z"/>
		</g>
	</g>
	<g>
		<text transform="matrix(1 0 0 1 600.9722 3731.4092)" fill="#D0D2D3" font-family="'ProximaNova-Bold'" font-size="29">1024 x 768</text>
	</g>
	<text transform="matrix(1 0 0 1 61.1366 72.0057)"><tspan x="0" y="0" fill="#231F20" font-family="'ProximaNova-Semibold'" font-size="42">Platform Templates</tspan><tspan x="0" y="60" fill="#231F20" font-family="'ProximaNova-Semibold'" font-size="28">Web</tspan></text>
	<text transform="matrix(1 0 0 1 63.1366 1010.9177)" fill="#231F20" font-family="'ProximaNova-Semibold'" font-size="28">Mobile</text>
	<text transform="matrix(1 0 0 1 61.0793 1869.967)" fill="#231F20" font-family="'ProximaNova-Semibold'" font-size="28">Tablet</text>
	<g>
		<path fill="none" stroke="#4F5152" stroke-width="1.5" stroke-miterlimit="10" d="M418.7,1727c0,12.6-10.3,22.9-22.9,22.9H85.6
			c-12.6,0-22.9-10.3-22.9-22.9v-628.6c0-12.6,10.3-22.9,22.9-22.9h310.2c12.6,0,22.9,10.3,22.9,22.9V1727z"/>
		<path fill="none" stroke="#8E9093" stroke-miterlimit="10" d="M218.7,1705.5c0-12.2,9.9-22,22-22c12.2,0,22,9.9,22,22
			s-9.9,22-22,22C228.6,1727.5,218.7,1717.7,218.7,1705.5z"/>
		<g>
			<g>
				<path fill="#8E9093" d="M259.3,1118.3c1.1,0,2,0.9,2,2v8.3c0,1.1-0.9,2-2,2h-37.1c-1.1,0-2-0.9-2-2v-8.3c0-1.1,0.9-2,2-2H259.3
					 M259.3,1117.3h-37.1c-1.7,0-3,1.3-3,3v8.3c0,1.7,1.3,3,3,3h37.1c1.7,0,3-1.3,3-3v-8.3C262.3,1118.7,260.9,1117.3,259.3,1117.3
					L259.3,1117.3z"/>
			</g>
		</g>
		<g>
			<g>
				<g>
					<path fill="#D0D2D3" d="M400.7,1169.9v480h-320v-480H400.7 M401.7,1168.9h-1h-320h-1v1v480v1h1h320h1v-1v-480V1168.9
						L401.7,1168.9z"/>
				</g>
			</g>
			<g>
				<path fill="#D0D2D3" d="M400.7,1169.9v19.8h-320v-19.8H400.7 M401.7,1168.9h-1h-320h-1v1v19.8v1h1h320h1v-1v-19.8V1168.9
					L401.7,1168.9z"/>
			</g>
			<g>
				<pattern  id="SVGID_2_" xlink:href="#Unnamed_Pattern_2" patternTransform="matrix(0 -0.5893 0.5782 0 -6902.7539 -7515.9434)">
				</pattern>
				<rect x="88.9" y="1189.7" fill="url(#SVGID_2_)" width="303.6" height="440.4"/>
			</g>
		</g>
	</g>
	<g>
		<path fill="none" stroke="#4F5152" stroke-width="1.5" stroke-miterlimit="10" d="M690.8,1751.6c-12.6,0-22.9-10.3-22.9-22.9
			v-310.2c0-12.6,10.3-22.9,22.9-22.9h628.6c12.6,0,22.9,10.3,22.9,22.9v310.2c0,12.6-10.3,22.9-22.9,22.9H690.8z"/>
		<path fill="none" stroke="#8E9093" stroke-miterlimit="10" d="M712.2,1551.6c12.2,0,22,9.9,22,22c0,12.2-9.9,22-22,22
			c-12.2,0-22-9.9-22-22C690.2,1561.5,700.1,1551.6,712.2,1551.6z"/>
		<g>
			<g>
				<path fill="#8E9093" d="M1297.4,1553.1c1.1,0,2,0.9,2,2v37.1c0,1.1-0.9,2-2,2h-8.3c-1.1,0-2-0.9-2-2v-37.1c0-1.1,0.9-2,2-2
					H1297.4 M1297.4,1552.1h-8.3c-1.7,0-3,1.3-3,3v37.1c0,1.7,1.3,3,3,3h8.3c1.7,0,3-1.3,3-3v-37.1
					C1300.4,1553.4,1299.1,1552.1,1297.4,1552.1L1297.4,1552.1z"/>
			</g>
		</g>
		<g>
			<g>
				<g>
					<path fill="#D0D2D3" d="M1247.9,1413.6v320h-480v-320H1247.9 M1248.9,1412.6h-1h-480h-1v1v320v1h1h480h1v-1v-320V1412.6
						L1248.9,1412.6z"/>
				</g>
			</g>
			<g>
				<pattern  id="SVGID_3_" xlink:href="#Unnamed_Pattern_2" patternTransform="matrix(0 -0.5893 0.5782 0 -6902.7539 -7515.9434)">
				</pattern>
				<rect x="770" y="1417.6" fill="url(#SVGID_3_)" width="475" height="313"/>
			</g>
		</g>
	</g>
	<g>
		<text transform="matrix(1 0 0 1 166.6724 1428.4988)" fill="#D0D2D3" font-family="'ProximaNova-Bold'" font-size="29">320 x 480</text>
	</g>
	<g>
		<text transform="matrix(1 0 0 1 935.0635 1585.9402)" fill="#D0D2D3" font-family="'ProximaNova-Bold'" font-size="29">480 x 320</text>
	</g>
	<g>
		<text transform="matrix(1 0 0 1 64.1365 1045.4939)" fill="#1F2222" font-family="'ProximaNova-Regular'" font-size="18">Vertical</text>
	</g>
	<g>
		<text transform="matrix(1 0 0 1 64.1365 1904.9668)" fill="#1F2222" font-family="'ProximaNova-Regular'" font-size="18">Vertical</text>
	</g>
	<g>
		<text transform="matrix(1 0 0 1 962.2133 1381.6348)" fill="#1F2222" font-family="'ProximaNova-Regular'" font-size="18">Horizontal</text>
	</g>
	<g>
		<text transform="matrix(1 0 0 1 644.8922 3221.4114)" fill="#1F2222" font-family="'ProximaNova-Regular'" font-size="18">Vertical</text>
	</g>
	<g>
		<g>
			<path fill="none" stroke="#8E9093" stroke-miterlimit="10" d="M517.2,3096.1c0-13.2,10.7-23.9,23.9-23.9
				c13.2,0,23.9,10.7,23.9,23.9c0,13.2-10.7,23.9-23.9,23.9C527.9,3120,517.2,3109.3,517.2,3096.1z"/>
			<g>
				<g>
					<g>
						<path fill="#D0D2D3" d="M925.1,2023v1024h-768V2023H925.1 M926.1,2022h-1h-768h-1v1v1024v1h1h768h1v-1V2023V2022L926.1,2022z"
							/>
					</g>
				</g>
				<line fill="none" stroke="#D0D2D3" stroke-miterlimit="10" x1="157.1" y1="2047.2" x2="925.1" y2="2047.2"/>
				<g>
					<pattern  id="SVGID_4_" xlink:href="#Unnamed_Pattern_2" patternTransform="matrix(0.9691 0 0 0.8639 -265.1941 -229.5505)">
					</pattern>
					<rect x="163.4" y="2054" fill="url(#SVGID_4_)" width="755.3" height="990.4"/>
				</g>
			</g>
			<g>
				<path fill="#4F5152" d="M1003.1,1926.5c9.1,0,16.5,7.4,16.5,16.5v1184c0,9.1-7.4,16.5-16.5,16.5h-924c-9.1,0-16.5-7.4-16.5-16.5
					V1943c0-9.1,7.4-16.5,16.5-16.5H1003.1 M1003.1,1925h-924c-9.9,0-18,8.1-18,18v1184c0,9.9,8.1,18,18,18h924c9.9,0,18-8.1,18-18
					V1943C1021.1,1933.1,1013,1925,1003.1,1925L1003.1,1925z"/>
			</g>
		</g>
		<g>
			<text transform="matrix(1 0 0 1 467.9004 2519.5085)" fill="#D0D2D3" font-family="'ProximaNova-Bold'" font-size="29">768 x 1024</text>
		</g>
	</g>
	<line fill="none" x1="1359.1" y1="953.3" x2="79.1" y2="953.3"/>
	<g>
		<g>
			<g>
				<g>
					<path fill="#D0D2D3" d="M1179.3,187.8L1179.3,187.8v31.9l-958.5,0l0-31.9H1179.3 M1179.3,186.8H220.7c-0.6,0-1,0.5-1,1v31.9
						c0,0.6,0.5,1,1,1h958.5c0.6,0,1-0.5,1-1v-31.9C1180.3,187.2,1179.8,186.8,1179.3,186.8L1179.3,186.8z"/>
				</g>
			</g>
			<path fill="none" stroke="#4F5152" stroke-miterlimit="10" d="M1340,238.4H60v-69.9c0-6.3,5.2-11.5,11.5-11.5h1257.1
				c6.3,0,11.5,5.2,11.5,11.5V238.4z"/>
			<g>
				<defs>
					<path id="SVGID_5_" d="M60.4,900.1L60.4,900.1c212.8,0,212.1,52.4,424.9,52.4c212.8,0,212.8-52.4,425.7-52.4
						c212.8,0,214,52.4,426.8,52.4h2.2v-784c0-6-5.2-10.9-11.5-10.9H71.5c-6.3,0-11.5,4.9-11.5,10.9v731.6H60.4z"/>
				</defs>
				<clipPath id="SVGID_6_">
					<use xlink:href="#SVGID_5_"  overflow="visible"/>
				</clipPath>
				<pattern  id="SVGID_7_" xlink:href="#Unnamed_Pattern_2" patternTransform="matrix(1.0302 0 0 0.9776 886.5964 52.057)">
				</pattern>
				<rect x="66.6" y="247.2" clip-path="url(#SVGID_6_)" fill="url(#SVGID_7_)" width="1266.9" height="705.3"/>
			</g>
			<path fill="none" stroke="#4F5152" stroke-width="1.5027" stroke-miterlimit="10" d="M60.4,900.1L60.4,900.1
				c212.8,0,212.1,52.4,424.9,52.4c212.8,0,212.8-52.4,425.7-52.4c212.8,0,214,52.4,426.8,52.4h2.2v-784c0-6-5.2-10.9-11.5-10.9
				H71.5c-6.3,0-11.5,4.9-11.5,10.9v731.6H60.4z"/>
			<path fill="none" stroke="#EB008B" stroke-width="1.0018" stroke-miterlimit="10" d="M69.2,225.3"/>
			<g>
				<path fill="none" stroke="#828486" stroke-miterlimit="10" d="M1260.8,191.1c0-4,3.2-7.2,7.2-7.2c4,0,7.2,3.2,7.2,7.2
					c0,4-3.2,7.2-7.2,7.2C1264,198.2,1260.8,195,1260.8,191.1z"/>
				<circle fill="none" stroke="#828486" stroke-miterlimit="10" cx="1291.6" cy="191.1" r="7.2"/>
				<circle fill="none" stroke="#828486" stroke-miterlimit="10" cx="1315.3" cy="191.1" r="7.2"/>
			</g>
			<path fill="none" stroke="#EB008B" stroke-width="1.0018" stroke-miterlimit="10" d="M62.6,238.9"/>
			<g>
				<g>
					<g>
						<path fill="#E6E7E8" d="M95.9,197.1c0.6-0.6,0.6-1.5,0-2s-1.5-0.6-2,0l-7.5,7.5l7.6,7.6c0.3,0.3,0.6,0.4,1,0.4
							c0.4,0,0.7-0.1,1-0.4c0.6-0.6,0.6-1.5,0-2l-4.2-4.2h11.7v-2.9H91.9L95.9,197.1z"/>
					</g>
					<g>
						<path fill="#E6E7E8" d="M127.6,195.1c-0.6-0.6-1.5-0.6-2,0c-0.6,0.6-0.6,1.5,0,2l4.2,4.2h-11.7v2.9h11.6l-4,4
							c-0.6,0.6-0.6,1.5,0,2c0.3,0.3,0.6,0.4,1,0.4c0.4,0,0.7-0.1,1-0.4l7.5-7.5L127.6,195.1z"/>
					</g>
				</g>
				<g>
					<path fill="#E6E7E8" d="M191.2,193.5l-8.7,7.5h2.6v9.4h4.4v-5.8h3.7v5.8h4.3V201h2.5L191.2,193.5z"/>
				</g>
				<g>
					<path fill="#E6E7E8" d="M167.8,203.5c-0.5,4.3-4.1,7.6-8.5,7.6c-4.7,0-8.6-3.9-8.6-8.6c0-4.7,3.9-8.6,8.6-8.6
						c1.9,0,3.7,0.6,5.2,1.8l-0.2-1.4c-0.1-0.6,0.3-1.1,0.9-1.2c0.6-0.1,1.1,0.3,1.2,0.9l0.7,5.7l-5.6,0.7c0,0-0.1,0-0.1,0
						c-0.5,0-1-0.4-1.1-0.9c-0.1-0.6,0.3-1.1,0.9-1.2l1.6-0.2c-1-0.8-2.3-1.3-3.6-1.3c-3.2,0-5.7,2.6-5.7,5.7c0,3.2,2.6,5.7,5.7,5.7
						c2.8,0,5.2-2.1,5.6-4.8L167.8,203.5z"/>
				</g>
			</g>
		</g>
		<g>
			<text transform="matrix(1 0 0 1 622.9987 563.7851)" fill="#D0D2D3" font-family="'ProximaNova-Bold'" font-size="29">1280 x 800</text>
		</g>
	</g>
</g>
<g id="GRID" display="none">
	<rect x="62" y="279" display="inline" opacity="0.3" fill="#00ADEE" width="94.6" height="4064"/>
	<rect x="169.8" y="279" display="inline" opacity="0.3" fill="#00ADEE" width="94.6" height="4064"/>
	<rect x="277.5" y="279" display="inline" opacity="0.3" fill="#00ADEE" width="94.6" height="4064"/>
	<rect x="385.3" y="279" display="inline" opacity="0.3" fill="#00ADEE" width="94.6" height="4064"/>
	<rect x="493.1" y="279" display="inline" opacity="0.3" fill="#00ADEE" width="94.6" height="4064"/>
	<rect x="600.8" y="279" display="inline" opacity="0.3" fill="#00ADEE" width="94.6" height="4064"/>
	<rect x="708.6" y="279" display="inline" opacity="0.3" fill="#00ADEE" width="94.6" height="4064"/>
	<rect x="816.4" y="279" display="inline" opacity="0.3" fill="#00ADEE" width="94.6" height="4064"/>
	<rect x="924.1" y="279" display="inline" opacity="0.3" fill="#00ADEE" width="94.6" height="4064"/>
	<rect x="1031.9" y="279" display="inline" opacity="0.3" fill="#00ADEE" width="94.6" height="4064"/>
	<rect x="1139.7" y="279" display="inline" opacity="0.3" fill="#00ADEE" width="94.6" height="4064"/>
	<rect x="1247.4" y="279" display="inline" opacity="0.3" fill="#00ADEE" width="94.6" height="4064"/>
</g>
</svg>
