<?xml version="1.0" standalone="no"?>
<!DOCTYPE svg PUBLIC "-//W3C//DTD SVG 1.1//EN" "http://www.w3.org/Graphics/SVG/1.1/DTD/svg11.dtd" >
<svg xmlns="http://www.w3.org/2000/svg">
<metadata></metadata>
<defs>
<font id="titlinggothicfb_skylistandard" horiz-adv-x="622" >
<font-face units-per-em="2048" ascent="1638" descent="-410" />
<missing-glyph horiz-adv-x="229" />
<glyph unicode="&#xfb01;" horiz-adv-x="626" d="M6 958v168h74v306q0 98 49 154t152 56q21 0 75 -4v-157q-7 0 -22 1t-23 1q-26 0 -41.5 -22t-15.5 -58v-277h326v-1042q0 -16 2.5 -37t5.5 -34l2 -13h-176q-5 2 -10 26t-5 48v889h-145v-963h-174v958h-74z" />
<glyph unicode="&#xfb02;" horiz-adv-x="616" d="M6 958v168h68v306q0 210 188 210q26 0 72 -4v-157q-12 2 -41 2q-21 0 -32 -17t-11 -45v-295h74v-168h-74v-958h-176v958h-68zM395 1638h176q2 -30 2 -59v-1497q0 -68 9 -82q-172 -2 -172 0q-11 8 -11 68v1480q0 66 -4 90z" />
<glyph horiz-adv-x="2048" />
<glyph horiz-adv-x="2048" />
<glyph unicode="&#xd;" horiz-adv-x="2048" />
<glyph unicode=" "  horiz-adv-x="229" />
<glyph unicode="&#x09;" horiz-adv-x="229" />
<glyph unicode="&#xa0;" horiz-adv-x="229" />
<glyph unicode="!" horiz-adv-x="311" d="M63 1636h187l-19 -1253h-151zM66 0v287h182v-287h-182z" />
<glyph unicode="&#x22;" horiz-adv-x="456" d="M20 1638h170l-6 -577h-157zM260 1638h176l-8 -577h-162z" />
<glyph unicode="#" horiz-adv-x="620" d="M6 578l12 139h117l12 149h-122l12 142h123l45 526h123l-47 -526h92l43 526h123l-47 -526h118l-12 -142h-117l-12 -149h123l-10 -139h-125l-49 -586h-121l49 586h-90l-49 -586h-121l49 586h-119zM258 717h90l12 149h-90z" />
<glyph unicode="$" horiz-adv-x="548" d="M18 272v168h179v-147q0 -58 16 -88.5t57 -30.5t58.5 36.5t17.5 121.5q0 88 -2.5 131t-18 96.5t-43 99.5t-81.5 125q-118 169 -149.5 261.5t-31.5 261.5q0 132 52.5 213t152.5 98v37h109v-37q186 -31 196 -293q2 -43 2 -164h-180v156q0 68 -16 100.5t-57 32.5 q-42 0 -59 -31.5t-17 -105.5q0 -117 27.5 -196t123.5 -222q79 -110 111.5 -171.5t49.5 -149t17 -230.5q0 -140 -50 -223.5t-148 -102.5v-102h-109v98q-101 13 -154 80.5t-53 177.5z" />
<glyph unicode="%" horiz-adv-x="874" d="M29 1081v316q0 120 47.5 189t144.5 69q191 0 191 -258v-316q0 -258 -197 -258q-99 0 -142.5 65t-43.5 193zM123 0l510 1575h98l-508 -1575h-100zM160 1087q0 -68 15 -96t46 -28q32 0 46 27t14 95v328q0 100 -60 100q-61 0 -61 -100v-326zM461 244v315q0 118 48 188 t144 70q193 0 193 -258v-315q0 -258 -197 -258q-100 0 -144 64.5t-44 193.5zM594 248q0 -68 14 -95.5t45 -27.5q32 0 46 26.5t14 96.5v327q0 101 -60 101q-59 0 -59 -101v-327z" />
<glyph unicode="&#x26;" horiz-adv-x="716" d="M16 385q0 66 2 92q2 169 134 393q-84 250 -84 381v146q2 114 56.5 181t168.5 67q96 0 148 -65t55 -171v-113q-1 -47 -12.5 -98.5t-21.5 -84.5t-39 -93.5t-39 -80t-48 -89.5q32 -107 125 -373q12 111 12 281h160q0 -307 -53 -488q9 -20 129 -270h-189q-8 25 -41 113 q-39 -70 -90 -96.5t-113 -26.5q-117 0 -185.5 73t-72.5 230q-2 26 -2 92zM182 387q0 -134 24.5 -183t74.5 -52q16 0 28 3t28 13.5t29 35.5t23 64q-8 24 -68.5 193t-84.5 241q-54 -164 -54 -315zM227 1257q0 -98 37 -237q76 169 78 283v88q0 39 -15 59t-38 20q-62 0 -62 -88 v-125z" />
<glyph unicode="'" horiz-adv-x="253" d="M39 1638h176l-8 -602h-162z" />
<glyph unicode="(" horiz-adv-x="335" d="M23 750q0 231 37 472.5t81 415.5h191q-46 -185 -83.5 -430t-37.5 -463q0 -226 36 -471t85 -417h-191q-49 158 -83.5 405t-34.5 488z" />
<glyph unicode=")" horiz-adv-x="335" d="M10 -143q49 172 85 417t36 471q0 218 -37.5 463t-83.5 430h191q44 -174 81 -415.5t37 -472.5q0 -241 -34.5 -488t-83.5 -405h-191z" />
<glyph unicode="*" horiz-adv-x="649" d="M53 1399l39 110l176 -77v213h115v-213l172 77l43 -110l-186 -84l137 -154l-92 -76l-133 152l-134 -152l-90 76l136 152z" />
<glyph unicode="+" horiz-adv-x="514" d="M8 741v150h170v207h158v-207h170v-150h-170v-206h-158v206h-170z" />
<glyph unicode="," horiz-adv-x="329" d="M45 -152l70 142v10h-54v291h205v-297l-131 -189z" />
<glyph unicode="-" horiz-adv-x="438" d="M12 727v193h414v-193h-414z" />
<glyph unicode="." horiz-adv-x="329" d="M59 0v291h211v-291h-211z" />
<glyph unicode="/" horiz-adv-x="301" d="M-35 -330l217 1968h119l-219 -1968h-117z" />
<glyph unicode="0" horiz-adv-x="573" d="M33 821q0 379 12 572q19 256 242 256q219 0 241 -256q11 -258 11 -572q0 -316 -13 -545q-11 -148 -67.5 -218t-171.5 -70q-118 0 -173.5 70t-64.5 218q-6 71 -11 251.5t-5 293.5zM217 821q0 -233 8 -553q3 -108 62 -108q62 0 65 108q2 76 2 561q0 117 -1 307t-1 216 q0 114 -67 114q-36 0 -49 -29t-15 -87q0 -37 -2 -247.5t-2 -281.5z" />
<glyph unicode="1" horiz-adv-x="405" d="M8 1356v149q160 14 221 133h133v-1638h-184v1356h-170z" />
<glyph unicode="2" horiz-adv-x="557" d="M27 0v172q0 80 31.5 178t77 195t91.5 197.5t80 218t37 225.5v162q0 40 -5 64.5t-16 34.5t-20 12.5t-24 2.5q-68 0 -68 -104v-217h-182v248q0 109 69.5 184.5t192.5 75.5q223 0 241 -242q2 -20 2 -119t-2 -125q-5 -108 -37.5 -224t-75.5 -215t-85.5 -193t-74 -188 t-34.5 -169h299v-174h-497z" />
<glyph unicode="3" horiz-adv-x="544" d="M12 492h181v-261q0 -73 63 -73q38 0 57 24.5t19 79.5v354q0 78 -27.5 113.5t-99.5 44.5l-74 4v174l80 4q61 10 87 48.5t26 115.5v254q0 51 -16 70.5t-44 19.5q-59 0 -59 -94l-2 -201h-172q2 195 2 242q3 103 65 170.5t168 67.5q123 0 180.5 -67.5t57.5 -184.5v-244 q0 -115 -52.5 -188.5t-166.5 -83.5q228 -15 237 -232q8 -193 -2 -399q-3 -124 -70 -193t-186 -69t-183.5 61.5t-66.5 171.5z" />
<glyph unicode="4" horiz-adv-x="600" d="M12 375v200l238 1063h246v-1079h98v-184h-98v-375h-179v375h-305zM172 559h145v660z" />
<glyph unicode="5" horiz-adv-x="548" d="M23 236v206h182q0 -7 1 -78t1 -85q0 -59 13 -89t50 -30q62 0 62 114q0 27 -1 247.5t-1 281.5q0 92 -54 92q-35 0 -50.5 -27.5t-16.5 -97.5h-176v868h467v-176h-295v-461q29 76 131 76q83 0 132 -53.5t54 -144.5q4 -116 5 -323t-3 -335q-3 -102 -63.5 -167.5t-188.5 -65.5 q-121 0 -184 66t-65 182z" />
<glyph unicode="6" horiz-adv-x="581" d="M35 821q0 413 12 539q16 289 242 289q117 0 173 -63.5t64 -168.5q2 -26 2 -198h-174v104q0 75 -13 108t-54 33q-37 0 -50.5 -32.5t-15.5 -110.5q-4 -140 -4 -410q36 84 141 84q69 0 112 -39t54 -98q12 -105 10.5 -349t-14.5 -316q-17 -94 -69 -149.5t-160 -55.5 q-191 0 -230 205q-26 142 -26 628zM217 721q0 -49 2 -248t2 -219q0 -98 64 -98q31 0 48 23t17 83v488q0 73 -57 73q-73 0 -76 -102z" />
<glyph unicode="7" horiz-adv-x="491" d="M6 1462v176h479v-153l-229 -1485h-199l238 1462h-289z" />
<glyph unicode="8" horiz-adv-x="577" d="M24.5 371q0.5 72 1.5 190t1 158q3 72 40 117.5t87 62.5q-51 18 -80.5 59.5t-30.5 133.5v325q2 103 59.5 167.5t184.5 64.5q67 0 116 -18.5t76.5 -51t40 -71.5t12.5 -85v-325q-3 -160 -116 -199q61 -15 97.5 -65t37.5 -123q3 -73 2.5 -243t-2.5 -218q-9 -262 -264 -262 q-139 0 -198 67.5t-64 194.5q-1 49 -0.5 121zM217 262q0 -44 17.5 -72t50.5 -28t51 26.5t18 69.5v455q0 43 -19.5 65.5t-47.5 22.5q-29 0 -49.5 -23t-20.5 -69v-447zM227 1051q0 -80 60 -80q24 0 41.5 18t17.5 60v337q0 89 -63 89q-24 0 -40 -21.5t-16 -67.5v-335z" />
<glyph unicode="9" horiz-adv-x="565" d="M33.5 1121.5q1.5 236.5 15.5 332.5q14 88 76 141.5t162 53.5q93 0 147 -43t74 -131q24 -122 24 -613q0 -532 -10 -616q-18 -258 -248 -258q-98 0 -160 56.5t-71 164.5q-4 51 -4 201h176v-136q0 -68 16.5 -93t51.5 -25q62 0 65 100q1 27 1 100v143t-0.5 136.5t-0.5 69.5 q-43 -72 -133 -72q-148 0 -170 141q-13 111 -11.5 347.5zM216.5 1123.5q-0.5 -211.5 0.5 -251.5q1 -41 15.5 -57t43.5 -16q26 0 46 23.5t26 56.5q0 452 -2 503q-3 86 -65 86t-62 -92q-2 -41 -2.5 -252.5z" />
<glyph unicode=":" horiz-adv-x="307" d="M63 0v281h195v-281h-195zM63 766v283h195v-283h-195z" />
<glyph unicode=";" horiz-adv-x="307" d="M47 -152l66 142v10h-45v281h190v-285l-121 -191zM68 766v283h190v-283h-190z" />
<glyph unicode="&#x3c;" horiz-adv-x="620" d="M20 705v172l570 219v-158l-424 -147l424 -154v-154z" />
<glyph unicode="=" horiz-adv-x="518" d="M20 610v142h478v-142h-478zM20 874v144h478v-144h-478z" />
<glyph unicode="&#x3e;" horiz-adv-x="620" d="M27 483v154l424 154l-424 147v158l569 -219v-172z" />
<glyph unicode="?" horiz-adv-x="532" d="M25 1229v198q0 103 66 162.5t173 59.5q220 0 232 -228v-202q-1 -67 -22.5 -138.5t-50 -138.5t-57 -143.5t-46 -184.5t-13.5 -231h-147q-6 138 8 251t37.5 187t48 137.5t42 135.5t17.5 149v143q0 109 -59 109q-30 0 -47 -27t-17 -73v-166h-165zM145 0v287h185v-287h-185z " />
<glyph unicode="@" horiz-adv-x="1234" d="M41 811q23 339 212 543.5t458 204.5q110 0 197 -36t144.5 -99t93 -150.5t47 -190t1.5 -217.5q-19 -216 -91.5 -336t-197.5 -120q-68 0 -110.5 37.5t-49.5 105.5q-73 -141 -235 -141q-121 0 -177.5 86t-39.5 256q19 201 106 322.5t228 121.5q63 0 107 -32.5t63 -88.5 l20 97l123 2q-3 -28 -21 -126.5t-39 -209t-26 -138.5q-7 -39 -5.5 -74t21.5 -60t56 -25q138 0 166 327q25 287 -76 448t-314 161q-223 0 -385.5 -182t-185.5 -482q-13 -151 1 -271.5t50.5 -201.5t94 -134.5t127.5 -77.5t155 -24q191 0 346 123l43 -73q-83 -65 -171.5 -100.5 t-217.5 -35.5q-128 0 -227.5 45.5t-171 138t-103 247t-16.5 360.5zM442 776q-14 -118 6 -172.5t89 -54.5q135 0 174 186q30 128 34 178q6 47 -22.5 97.5t-85.5 50.5q-73 0 -125 -71t-70 -214z" />
<glyph unicode="A" horiz-adv-x="585" d="M0 0l174 1638h270l142 -1638h-193q-20 319 -24 393h-150l-31 -393h-188zM227 563h133q-43 517 -45 572l-14 233q-12 -165 -14 -231z" />
<glyph unicode="B" horiz-adv-x="634" d="M49 0v1638h307q167 0 207 -122q25 -76 25 -273q0 -204 -19 -276q-14 -55 -38.5 -85t-69.5 -40q92 -15 119 -107q20 -69 20 -286q0 -247 -27 -312q-30 -72 -74 -104.5t-132 -32.5h-318zM240 170h88q27 0 45.5 17t19.5 53q2 37 2 227q0 137 -4 211q-3 67 -55 67h-96v-575z M240 913h96q18 0 34 17.5t17 50.5q2 33 2 219q0 43 -1 108t-1 76q-2 37 -22 60.5t-52 23.5h-73v-555z" />
<glyph unicode="C" horiz-adv-x="604" d="M37 829q0 88 2 305t2 232q7 148 79 214.5t212 66.5q121 0 182.5 -75t65.5 -231v-258h-187v289q-1 44 -20 65t-49 21q-84 0 -84 -100q-2 -72 -2 -524q0 -451 4 -537q3 -72 22 -100.5t55 -28.5q35 0 55.5 29t20.5 108v246h187v-281q0 -132 -70.5 -208t-196.5 -76 q-245 0 -268 243q-10 137 -10 600z" />
<glyph unicode="D" horiz-adv-x="604" d="M49 0v1638h246q100 0 159 -38t89 -119q32 -88 32 -625q0 -637 -34 -702q-22 -43 -34.5 -63t-37.5 -45.5t-59.5 -35.5t-83.5 -10h-277zM240 158h75q27 0 46 22t20 66q4 136 4 612q0 29 -2 245.5t-2 244.5q-1 57 -24.5 87.5t-59.5 30.5h-57v-1308z" />
<glyph unicode="E" horiz-adv-x="512" d="M49 0v1638h457v-194h-264v-526h235v-185h-235v-543h266v-190h-459z" />
<glyph unicode="F" horiz-adv-x="512" d="M49 0v1638h465v-194h-272v-524h245v-189h-245v-731h-193z" />
<glyph unicode="G" horiz-adv-x="598" d="M37 817q0 472 8 578q7 110 71.5 182t190.5 72q67 0 116.5 -20t77 -55t42 -72.5t18.5 -80.5l2 -309h-188v242q0 55 -16.5 79.5t-49.5 24.5q-69 0 -69 -115q0 -50 -1 -260.5t-1 -265.5q0 -402 4 -538q0 -60 16.5 -88.5t54.5 -28.5q72 0 72 108v447h-96v170h280v-520l4 -367 h-135l-10 55q-18 -31 -58.5 -49t-86.5 -18q-108 0 -171 59.5t-67 179.5q-8 94 -8 590z" />
<glyph unicode="H" horiz-adv-x="626" d="M49 0v1638h191v-716h147v716h191v-1638h-191v729h-147v-729h-191z" />
<glyph unicode="I" horiz-adv-x="292" d="M49 0v1638h195v-1638h-195z" />
<glyph unicode="J" horiz-adv-x="413" d="M10 6v178q31 -2 84 -2q47 1 65.5 27t18.5 74v1355h191v-1378q0 -142 -59 -202t-195 -60q-50 0 -105 8z" />
<glyph unicode="K" horiz-adv-x="636" d="M49 0v1638h191v-694l206 694h191l-219 -716l213 -922h-199l-160 694l-32 -92v-602h-191z" />
<glyph unicode="L" horiz-adv-x="530" d="M49 0v1638h197v-1448h276v-190h-473z" />
<glyph unicode="M" horiz-adv-x="876" d="M49 0v1638h250l139 -1169l150 1169h241v-1638h-176l2 1124l-135 -1124h-164l-133 1122l2 -1122h-176z" />
<glyph unicode="N" d="M49 0v1638h176l172 -862v862h176v-1638h-178l-172 834v-834h-174z" />
<glyph unicode="O" d="M37 823q0 91 1 306t1 217q7 301 270 301q134 0 200.5 -71.5t72.5 -219.5q4 -70 4 -527q0 -444 -4 -548q-5 -148 -70.5 -221.5t-202.5 -73.5q-135 0 -200 71t-70 215q0 12 -1 237t-1 314zM236 815q0 -498 2 -534q3 -57 18.5 -84t56.5 -27q69 0 76 111q4 136 4 540 q0 450 -2 516q-2 67 -19 95t-59 28q-19 0 -32.5 -6t-21 -15t-12 -27.5t-6.5 -34t-3 -44.5q-2 -33 -2 -518z" />
<glyph unicode="P" horiz-adv-x="600" d="M49 0v1638h279q122 0 188 -96q62 -91 62 -391q0 -302 -66 -391q-62 -82 -188 -94l-80 -2v-664h-195zM244 848h32q74 0 89 67q16 88 16 228q0 173 -25 250q-11 25 -30 40t-41 15h-41v-600z" />
<glyph unicode="Q" d="M37 823q0 91 1 306t1 217q0 140 66 221.5t204 81.5q134 0 200.5 -72t72.5 -219q4 -80 4 -529q0 -340 -4 -544q-1 -94 -28 -157.5t-69 -88.5q2 -3 16.5 -19.5t24.5 -29.5q12 -11 62 -51l-107 -140q-34 27 -110 99q-75 75 -90 100q-36 0 -68 12q-71 10 -121 76t-53 190 q0 4 -1 230.5t-1 316.5zM233 803q0 -427 3 -535q5 -112 77 -112q38 0 55.5 26t20.5 86q4 70 4 547q0 465 -2 541q-2 59 -19 84.5t-59 25.5q-45 0 -59 -29t-16 -89q-5 -92 -5 -545z" />
<glyph unicode="R" horiz-adv-x="604" d="M49 0v1638h273q80 0 134 -41.5t76 -119.5q35 -119 35 -291q0 -190 -26 -275q-12 -38 -37.5 -71.5t-48.5 -42.5l141 -797h-190l-123 739h-47v-739h-187zM238 920q45 0 61 2q38 7 53 53q9 26 16 84.5t7 103.5q0 121 -8 193q-3 42 -23 69t-51 27h-55v-532z" />
<glyph unicode="S" horiz-adv-x="552" d="M8 1323q0 155 72.5 240.5t193.5 85.5q127 0 189 -80.5t65 -212.5l2 -178h-182v145q0 133 -74 133q-42 0 -59.5 -34t-17.5 -117q0 -154 108 -330q5 -8 29.5 -46.5t45 -71.5t26.5 -44q72 -120 100.5 -230.5t28.5 -263.5q0 -333 -265 -333q-118 0 -187 60t-69 171v221h181 v-166q0 -102 73 -102q38 0 57 32.5t19 119.5q0 111 -20 197t-86 196q-82 133 -97 159q-74 121 -103.5 219t-29.5 230z" />
<glyph unicode="T" horiz-adv-x="516" d="M6 1444v194h504v-194h-154v-1444h-194v1444h-156z" />
<glyph unicode="U" horiz-adv-x="614" d="M41 254v1384h190v-1355q0 -62 18 -86.5t58 -24.5q38 0 54 24.5t16 84.5v1357h192v-1384q0 -128 -67 -197t-191 -69q-127 0 -198.5 66.5t-71.5 199.5z" />
<glyph unicode="V" horiz-adv-x="595" d="M2 1638h188l107 -1214l106 1214h189l-191 -1638h-219z" />
<glyph unicode="W" horiz-adv-x="946" d="M0 1638h193q81 -1087 81 -1292q0 91 26 414t52 600l25 278h188q107 -1089 107 -1292q0 90 20.5 413t41.5 601l20 278h190l-153 -1638h-220q-96 977 -102 1192q-1 -96 -26 -394t-49 -548l-25 -250h-213z" />
<glyph unicode="X" horiz-adv-x="630" d="M4 0l203 872l-182 766h202l99 -495l98 495h192l-184 -815l195 -823h-203l-111 537l-104 -537h-205z" />
<glyph unicode="Y" horiz-adv-x="641" d="M0 1638h199q116 -678 120 -768q1 41 34 233t65 363l33 172h190l-229 -1022v-616h-197v610z" />
<glyph unicode="Z" horiz-adv-x="528" d="M2 0v160l307 1284h-282v194h487v-151l-309 -1297h317v-190h-520z" />
<glyph unicode="[" horiz-adv-x="296" d="M31 -330v1968h258v-155h-84v-1665h84v-148h-258z" />
<glyph unicode="\" horiz-adv-x="301" d="M4 1638h119l219 -1968h-117z" />
<glyph unicode="]" horiz-adv-x="296" d="M8 -182h84v1667h-84v153h258v-1968h-258v148z" />
<glyph unicode="^" horiz-adv-x="712" d="M18 1288l254 348h164l254 -348l-110 -104l-230 309l-223 -309z" />
<glyph unicode="_" horiz-adv-x="507" d="M0 -88h508v-162h-508v162z" />
<glyph unicode="`" horiz-adv-x="589" d="M127 1448h192l117 -254h-172z" />
<glyph unicode="a" horiz-adv-x="507" d="M18 150q-2 53 -2 112.5t2 124.5q3 106 46 166t149 102q48 17 98 31v203q0 80 -49 80q-53 0 -53 -82v-160h-164q0 123 6 225q5 85 61 137t156 52q213 0 213 -211q0 -61 -1 -224.5t-1 -216.5q0 -60 -1 -184t-1 -155q0 -122 8 -150h-166q-4 43 -4 57q-49 -65 -139 -65 q-29 0 -53.5 6.5t-48.5 23t-39 49t-17 79.5zM193 221q3 -78 57 -78q61 0 61 105v190q0 10 -1 53.5t-1 53.5q-6 -3 -17.5 -7.5t-17.5 -7.5q-42 -21 -57 -43q-5 -7 -9 -14t-6.5 -12.5t-4 -14t-2.5 -12t-1.5 -14.5t-0.5 -13.5v-15.5v-16v-154z" />
<glyph unicode="b" horiz-adv-x="526" d="M39 0v1638h170v-583q24 84 129 84q67 0 108.5 -43t45.5 -127q6 -92 6 -385q0 -326 -2 -387q-8 -201 -156 -201q-106 0 -137 61l-25 -57h-139zM211 219q4 -63 55 -63q28 0 40.5 17.5t12.5 59.5v342v326q0 64 -49 64q-59 0 -59 -91v-299v-356z" />
<glyph unicode="c" horiz-adv-x="489" d="M29 563q0 259 14 383q11 91 64.5 142t146.5 51q176 0 203 -174q8 -47 8 -258h-164v139q-2 84 -13 103q-11 17 -34 18q-30 0 -39.5 -24t-9.5 -85v-297q0 -19 -0.5 -89t-0.5 -129.5t1 -92.5q0 -54 11 -75t40 -21q27 0 37 21.5t10 76.5v162h162q0 -188 -10 -252 q-24 -172 -201 -172q-88 0 -145 45t-66 119q-14 112 -14 409z" />
<glyph unicode="d" horiz-adv-x="522" d="M29 553q0 303 14 422q21 160 158 160q90 0 112 -70v573h172v-1503q0 -25 2.5 -59t4.5 -55l2 -21h-142l-26 55q-23 -32 -50.5 -46.5t-74.5 -14.5q-126 0 -148 139q-24 132 -24 420zM203 551q0 -65 1 -182.5t1 -145.5q0 -67 49 -67q33 0 46 23.5t13 68.5v303v348 q0 64 -55 64q-28 0 -40.5 -17.5t-12.5 -58.5q-2 -72 -2 -336z" />
<glyph unicode="e" horiz-adv-x="497" d="M31 551q0 281 18 422q9 66 58.5 116t146.5 50q95 0 144.5 -43t58.5 -105q16 -107 16 -506h-270v-264q0 -74 53 -74q23 0 39 17.5t16 56.5v125h158q0 -138 -12 -194q-19 -84 -66 -124t-135 -40q-170 0 -197 141q-28 142 -28 422zM199 641h108q0 15 -1 134t-1 134 q0 66 -53 66q-48 0 -51 -66q0 -8 -1 -131.5t-1 -136.5z" />
<glyph unicode="f" horiz-adv-x="350" d="M6 958v168h74v306q0 213 186 213q32 0 99 -5v-159h-58q-24 0 -38.5 -21t-14.5 -49v-285h92v-168h-92v-958h-174v958h-74z" />
<glyph unicode="g" horiz-adv-x="561" d="M0 -33q0 62 16 105t37 64.5t58 45.5q-55 13 -83 50.5t-28 89.5q0 51 30.5 85t80.5 50q-59 46 -62 155q-2 30 -2 314q2 92 59 153.5t170 61.5q68 0 109.5 -20t56.5 -50q38 59 133 59v-116h-92q23 -48 23 -150q0 -196 -6 -264q-10 -102 -68 -152.5t-151 -50.5 q-65 0 -103 21q-37 -15 -37 -56q0 -9 2.5 -15.5t9.5 -11.5t15 -8t23 -6t28.5 -5t37.5 -5.5t44 -7.5q137 -19 203.5 -84.5t66.5 -191.5q0 -140 -80.5 -214.5t-218.5 -74.5q-55 0 -102.5 13t-86 39t-61 71.5t-22.5 105.5zM150 2q0 -58 34.5 -94.5t96.5 -36.5q72 0 103.5 34 t31.5 109q0 63 -36 89t-112 42q-15 1 -55 7q-63 -54 -63 -150zM219 614q0 -82 57 -82q32 0 45 18.5t15 63.5q0 253 -4 310q-1 39 -15 55t-41 16q-29 0 -43 -21.5t-14 -76.5v-283z" />
<glyph unicode="h" horiz-adv-x="520" d="M39 0v1638h174v-596q32 97 125 97q62 0 104.5 -45t42.5 -140v-954h-174v895q0 28 -8.5 42.5t-32.5 14.5q-57 0 -57 -110v-842h-174z" />
<glyph unicode="i" horiz-adv-x="264" d="M37 1178v213h190v-213h-190zM41 74v1052h180v-1042l6 -84h-176q-10 3 -10 74z" />
<glyph unicode="j" horiz-adv-x="264" d="M-66 -211h43q37 0 54.5 13.5t17.5 47.5v1276h178v-1323q0 -84 -52 -129t-142 -45q-72 0 -99 6v154zM43 1178v213h188v-213h-188z" />
<glyph unicode="k" horiz-adv-x="526" d="M39 0v1638h174v-940l131 428h180l-145 -432l147 -694h-190l-94 489l-29 -65v-424h-174z" />
<glyph unicode="l" horiz-adv-x="264" d="M41 1638h178q2 -30 2 -59v-1497q0 -70 8 -82q-87 -1 -130.5 -1t-43.5 1q-10 10 -10 68v1480q0 78 -4 90z" />
<glyph unicode="m" horiz-adv-x="782" d="M39 0v1126h170v-86q11 45 46 72t93 27q89 0 121 -101q34 101 139 101q137 0 137 -170v-969h-172v895q0 63 -38 63q-26 0 -40 -28t-14 -58v-872h-172v899q0 59 -41 59q-25 0 -40 -29.5t-15 -68.5v-860h-174z" />
<glyph unicode="n" horiz-adv-x="522" d="M39 0v1126h170v-94q9 53 46.5 80t88.5 27q70 0 105.5 -46t35.5 -130q0 -963 4 -963h-174q-4 2 -4 893q0 34 -9 46.5t-32 12.5q-57 0 -57 -125v-827h-174z" />
<glyph unicode="o" horiz-adv-x="516" d="M29 563q0 199 10 369q8 93 62.5 150t158.5 57q106 0 162.5 -58.5t58.5 -152.5q6 -258 6 -365q0 -244 -6 -364q-8 -96 -65.5 -152.5t-157.5 -56.5q-109 0 -163.5 57t-59.5 148q-6 216 -6 368zM203 561q0 -55 1 -176.5t1 -148.5q0 -82 53 -82q55 0 55 84v323v322 q0 49 -12.5 68.5t-42.5 19.5q-53 0 -53 -88q-2 -59 -2 -322z" />
<glyph unicode="p" horiz-adv-x="528" d="M39 -328v1454h166v-63q34 76 129 76q64 0 100.5 -35t48.5 -115q15 -126 15 -405q0 -320 -9 -414q-9 -83 -51 -127.5t-112 -44.5q-76 0 -115 39v-365h-172zM211 213q0 -63 55 -63q28 0 40.5 18t12.5 59q3 95 3 353q0 232 -3 327q0 68 -49 68q-59 0 -59 -92v-303v-367z" />
<glyph unicode="q" horiz-adv-x="526" d="M31 557v104.5t1 81.5t1 56t2 47t2 34t2.5 36.5t3.5 37.5q21 183 166 183q43 0 67.5 -16.5t42.5 -51.5v59h168v-1292v-58q1 -105 5 -106h-173l-4 4v375q-33 -57 -112 -57q-72 0 -109.5 40.5t-48.5 123.5q-14 132 -14 399zM203 571q0 -38 1 -180t1 -174q0 -72 51 -72 q52 0 59 86q2 29 2 347v313q0 38 -15.5 60t-43.5 22q-31 0 -42 -22.5t-11 -80.5q-2 -100 -2 -299z" />
<glyph unicode="r" horiz-adv-x="393" d="M39 0v1126h174v-106q6 53 43 86t86 33q40 0 55 -6v-189q-24 8 -82 8q-53 0 -76.5 -41.5t-23.5 -148.5v-762h-176z" />
<glyph unicode="s" horiz-adv-x="464" d="M8 344h164v-117q0 -45 11 -62.5t40 -17.5q34 0 47 23.5t13 108.5q0 63 -14.5 103t-51.5 85q-14 16 -30 32.5t-37.5 36.5t-34.5 33q-53 53 -78 125t-25 187q0 116 55.5 187t163.5 71q185 0 203 -174q4 -58 4 -193h-162v125q0 39 -10 57.5t-37 18.5q-28 0 -38.5 -23 t-10.5 -90q0 -60 16 -96.5t52 -79.5q12 -13 88 -90q58 -58 87.5 -130t29.5 -177q0 -297 -226 -297q-206 0 -215 192q-4 86 -4 162z" />
<glyph unicode="t" horiz-adv-x="360" d="M4 958v168h64l6 177l172 8v-185h108v-168h-1h-1h-1h-1h-1h-1h-1h-1h-1h-1h-1h-1h-1h-1h-1h-1h-1h-2h-1h-1h-1h-1h-1h-1h-1h-2h-1h-1h-1h-2h-1h-1h-2h-1h-1h-2h-1h-2h-1h-2h-1h-2h-1h-2h-1h-2h-1h-2h-1h-2h-2h-1h-2h-2h-1h-2h-2h-1h-2h-2h-2h-1h-2h-2h-2h-2h-2h-1h-2h-9 q-2 -9 -2 -729q0 -39 13 -51t42 -12q24 0 45 6v-170q-66 -8 -117 -8q-67 0 -114 44t-47 142v778h-66z" />
<glyph unicode="u" horiz-adv-x="522" d="M37 156v970h174v-901q0 -69 43 -69q29 0 42 26t13 86v858h174v-1001q0 -89 4 -125h-165l-7 55q-34 -61 -129 -61q-72 0 -110.5 44t-38.5 118z" />
<glyph unicode="v" horiz-adv-x="522" d="M0 1126h182l82 -866l78 866h180l-147 -1126h-223z" />
<glyph unicode="w" horiz-adv-x="813" d="M0 1126h178l80 -843l55 843h185l67 -843l68 843h178l-139 -1126h-195q-41 325 -53 483l-14 330q-11 -273 -15 -330q-4 -72 -18.5 -192.5t-26.5 -205.5l-12 -85h-195z" />
<glyph unicode="x" horiz-adv-x="495" d="M0 0l139 575l-131 551h178l66 -340l65 340h168l-135 -538l139 -588h-180l-71 375l-66 -375h-172z" />
<glyph unicode="y" horiz-adv-x="520" d="M0 1126h182q0 -4 17.5 -146t37.5 -317.5t27 -263.5q5 87 23.5 261.5t35.5 318.5t17 147h180l-241 -1454h-181l68 387z" />
<glyph unicode="z" horiz-adv-x="438" d="M10 0v158l240 800h-234v168h412v-161l-244 -805h244v-160h-418z" />
<glyph unicode="{" horiz-adv-x="458" d="M20 668v161q43 1 72.5 17.5t44 46t20 61.5t5.5 74q0 56 -21.5 177t-21.5 202q0 99 51.5 165t155.5 66h112v-153q-93 0 -124.5 -28t-30.5 -122q1 -24 22 -153.5t21 -188.5q0 -228 -150 -245q45 -5 76.5 -31.5t46.5 -68t21 -81t6 -84.5q0 -84 -20.5 -257.5t-22.5 -268.5 q-1 -83 30.5 -108t124.5 -25v-156h-106q-113 0 -164 71t-51 185q0 83 21.5 265.5t21.5 269.5q0 209 -140 209z" />
<glyph unicode="|" horiz-adv-x="348" d="M100 -410v2048h148v-2048h-148z" />
<glyph unicode="}" horiz-adv-x="458" d="M14 -176q94 0 126.5 25t29.5 108q-1 98 -22 271t-21 255q0 35 3.5 66.5t13.5 67.5t26 62t44 45.5t65 23.5q-43 5 -74.5 28t-47.5 59t-23 74.5t-7 83.5q0 58 21 186t22 156q3 93 -30 121.5t-126 28.5v153h113q104 0 156.5 -66t52.5 -165q0 -81 -21.5 -202t-21.5 -177 q0 -43 5 -74t19 -61.5t43 -46.5t72 -17v-161q-54 0 -85.5 -30.5t-41.5 -73.5t-10 -105q0 -86 20.5 -268.5t20.5 -266.5q0 -74 -18.5 -128.5t-68.5 -91t-128 -36.5h-107v156z" />
<glyph unicode="~" horiz-adv-x="606" d="M2 754q28 90 80 135t117 45q73 0 143 -76q15 -17 24.5 -25t24.5 -15t33 -7q53 0 76 90l106 -76q-59 -161 -186 -161q-40 0 -72 14.5t-69 56.5q-5 5 -18 16.5t-17.5 15t-13.5 9.5t-17.5 8t-19.5 2q-53 0 -74 -94z" />
<glyph unicode="&#xa1;" horiz-adv-x="311" d="M63 2l19 1253h151l17 -1253h-187zM66 1352v286h182v-286h-182z" />
<glyph unicode="&#xa2;" horiz-adv-x="524" d="M41 803q0 172 20 368q9 75 47 123.5t103 63.5v139h119v-137q135 -20 159 -170q4 -33 8.5 -124.5t4.5 -121.5h-166v137q-2 63 -12.5 92t-40.5 29q-28 0 -41 -25t-13 -85q0 -33 -1 -138.5t-1 -150.5q0 -37 1 -143t1 -146q0 -57 13 -79.5t41 -22.5q29 0 41 24.5t12 79.5v137 h166q0 -185 -17 -239q-22 -148 -155 -172v-148h-119v150q-127 21 -150 159q-20 133 -20 400z" />
<glyph unicode="&#xa3;" horiz-adv-x="528" d="M18 0v172q71 36 122.5 117t60.5 188q2 42 -23 148h-135v174h94q-29 82 -46 134.5t-34.5 133.5t-17.5 143v209q0 230 235 230q69 0 117 -19t72 -54.5t33.5 -74t9.5 -88.5v-383h-166v332q0 66 -15 89.5t-49 23.5t-48.5 -21.5t-14.5 -77.5v-176q0 -68 16 -145.5t32 -126.5 t46 -129h193v-174h-154q23 -100 21 -146q-4 -127 -45 -199t-93 -100h279v-180h-490z" />
<glyph unicode="&#xa4;" horiz-adv-x="618" d="M10 645v139h62v29v31h-62v139h64q4 318 16 418q12 125 70 186.5t170 61.5q211 0 239 -252q10 -83 15 -281h-193v197q0 78 -13 111.5t-48 33.5q-37 0 -50.5 -33t-13.5 -112v-330h109v-139h-109v-31v-29h109v-139h-109v-334q0 -78 13 -110.5t51 -32.5q37 0 49 32.5 t12 110.5v181h193q-7 -191 -13 -234q-14 -136 -70.5 -203t-170.5 -67q-115 0 -172.5 67t-71.5 207q-8 77 -12 383h-64z" />
<glyph unicode="&#xa5;" horiz-adv-x="653" d="M0 1638h190q117 -659 121 -747q1 41 33.5 227.5t65.5 353.5l32 166h199l-231 -1001v-88h194v-139h-194v-60h194v-139h-194v-211h-197v211h-182v139h182v60h-182v139h182v82z" />
<glyph unicode="&#xa6;" horiz-adv-x="348" d="M100 -410v859h148v-859h-148zM100 733v905h148v-905h-148z" />
<glyph unicode="&#xa7;" horiz-adv-x="471" d="M28 851q0 51 5 77q11 143 106 196q-84 66 -84 189q-1 12 -1 64t1 69q4 94 55 144t130 50q82 0 134 -47.5t56 -154.5v-138h-123v107q0 98 -55 98q-30 0 -45.5 -22t-16.5 -74v-90q0 -51 13.5 -80.5t52.5 -58.5q53 -45 74 -60q91 -74 108 -184q8 -32 8 -85.5t-8 -84.5 q-12 -149 -119 -195q119 -82 125 -221q2 -15 2 -74.5t-2 -76.5q-3 -109 -55 -163t-141 -54q-87 0 -143 51t-62 166q-2 10 -2 141h143v-115q0 -102 60 -102q32 0 48.5 24.5t16.5 83.5v111q-1 52 -17.5 82t-55.5 61q-77 69 -107 93q-87 78 -96 190q-5 32 -5 83zM168 786 q2 -67 76 -129q25 0 44.5 40t22.5 94q1 15 1 55t-1 57q-5 74 -73 127q-25 0 -46 -37.5t-24 -89.5q-8 -56 0 -117z" />
<glyph unicode="&#xa8;" horiz-adv-x="589" d="M100 1194v205h146v-205h-146zM344 1194v205h148v-205h-148z" />
<glyph unicode="&#xa9;" horiz-adv-x="782" d="M27 958v302q0 382 364 382q365 0 365 -382v-302q0 -419 -361 -419q-368 0 -368 419zM109 995q0 -200 70.5 -287t211.5 -87q103 0 163 34t89 115.5t29 224.5v279q0 144 -70.5 213t-210.5 69q-138 0 -210 -70.5t-72 -211.5v-279zM242 872v187v198q0 66 46.5 102t110.5 36 q67 0 103.5 -40t36.5 -108v-121h-101q0 12 0.5 37.5t0.5 43.5t-1 28q-2 27 -12 39t-33 12q-43 0 -43 -57v-168q0 -26 1 -86t1 -66q0 -38 9 -52.5t34 -14.5q23 0 34 15.5t11 57.5v103h99v-139q0 -65 -43 -101.5t-107 -36.5q-69 0 -108 35t-39 96z" />
<glyph unicode="&#xaa;" horiz-adv-x="538" d="M25 369v157h485v-157h-485zM25 739q-4 51 0 185q12 211 196 268q30 18 96 33v168q0 77 -49 77q-51 0 -51 -81v-125h-166q0 116 6 184q6 85 62 136.5t155 51.5q215 0 215 -211q0 -181 -4 -399v-299q0 -126 9 -147h-168q-7 51 -7 67q-44 -76 -137 -76q-61 0 -107.5 38.5 t-49.5 129.5zM199 823q0 -76 49 -84q28 -5 44 16t19 68q6 111 6 142v110q-7 0 -17 1t-13 1q-25 -11 -51 -37q-31 -31 -35 -122q-2 -27 -2 -95z" />
<glyph unicode="&#xab;" horiz-adv-x="575" d="M18 651v135l258 373v-227l-118 -213l118 -211v-229zM295 651v135l258 373v-227l-121 -213l121 -211v-229z" />
<glyph unicode="&#xac;" horiz-adv-x="618" d="M10 10v176h264v416q-82 12 -137 74.5t-55 146.5t56 148t138 76v423h-266v158h598v-158h-270v-423q82 -12 138 -76t56 -148t-56 -147t-140 -74v-416h272v-176h-598zM131 823q0 -64 40.5 -112t102.5 -60v97l31 67l31 -67v-97q62 11 104.5 59.5t42.5 112.5t-41.5 113 t-103.5 61v-96l-33 -70l-29 70v96q-62 -12 -103.5 -61t-41.5 -113zM172 772q3 18 23 21q39 6 104 26q-6 -8 -30.5 -38.5t-32.5 -43.5q-21 -30 -47 -8q-22 19 -17 43zM172 889q6 26 27 34q21 9 37 -14q8 -13 32.5 -43.5t30.5 -38.5q-72 22 -104 27q-29 5 -23 35zM311 819 q64 -19 105 -26q29 -5 23 -34q-5 -27 -27 -36q-21 -9 -37 14q-8 13 -32.5 43t-31.5 39zM311 827q7 9 31.5 39t32.5 43q22 31 48 7q21 -19 16 -43q-5 -15 -23 -19q-34 -5 -105 -27z" />
<glyph unicode="&#xad;" horiz-adv-x="438" d="M12 727v193h414v-193h-414z" />
<glyph unicode="&#xae;" horiz-adv-x="782" d="M27 958v302q0 382 364 382q365 0 365 -382v-302q0 -419 -361 -419q-368 0 -368 419zM109 995q0 -199 71.5 -286.5t210.5 -87.5q151 0 216 83.5t65 290.5v279q0 144 -70.5 213t-210.5 69q-138 0 -210 -70.5t-72 -211.5v-279zM219 760v616h184q52 0 89 -16t56 -43t27.5 -56 t8.5 -63q0 -144 -95 -170l91 -268h-113l-80 248h-59v-248h-109zM328 1104h82q55 0 55 78q0 40 -14 61t-54 21h-69v-160z" />
<glyph unicode="&#xaf;" horiz-adv-x="589" d="M90 1217v126h410v-126h-410z" />
<glyph unicode="&#xb0;" horiz-adv-x="403" d="M14 1343q0 81 56 138t133 57q78 0 133 -56.5t55 -138.5q0 -78 -55 -135t-133 -57q-77 0 -133 57t-56 135zM119 1343q0 -34 24.5 -57.5t59.5 -23.5t58.5 23.5t23.5 57.5q0 37 -23.5 60.5t-58.5 23.5q-36 0 -60 -24t-24 -60z" />
<glyph unicode="&#xb1;" horiz-adv-x="514" d="M8 825v131h176v150h148v-150h174v-131h-174v-139h-148v139h-176zM12 516v129h490v-129h-490z" />
<glyph unicode="&#xb2;" horiz-adv-x="491" d="M53 795v90q2 54 28.5 110t63 104t72.5 95.5t61 101.5t25 105v55q0 52 -15.5 72t-47.5 20q-29 0 -42.5 -20t-13.5 -66v-110h-127v104q0 86 49.5 136t147.5 50q173 0 180 -169q1 -6 1 -24.5t-0.5 -40.5t-0.5 -26q-1 -50 -22 -101t-51.5 -95t-61.5 -87.5t-57 -96.5t-33 -105 h221v-102h-377z" />
<glyph unicode="&#xb3;" horiz-adv-x="491" d="M55 1047h129v-115q0 -33 16.5 -46.5t49.5 -13.5q34 0 46.5 18.5t12.5 57.5v109q0 48 -19 69t-85 25l-58 4v105l58 4q61 11 78.5 31t17.5 87v105q0 57 -51 57q-55 0 -55 -59l2 -105h-127q4 74 4 115q2 67 48 108.5t128 41.5q180 0 180 -160v-88q0 -88 -36 -131t-138 -52 q48 -1 83 -10t54 -21.5t30.5 -32t15.5 -35t5 -36.5q3 -55 0 -123q-10 -176 -196 -176q-82 0 -136 37.5t-55 114.5z" />
<glyph unicode="&#xb4;" horiz-adv-x="589" d="M180 1194l113 254h192l-139 -254h-166z" />
<glyph unicode="&#xb6;" horiz-adv-x="565" d="M18 1047q0 279 9 423q6 78 51.5 125t114.5 47q110 0 143 -75l24 69h172v-1841h-77v1702h-39v-1702h-84v737q-44 -69 -135 -69q-74 0 -119 44.5t-49 125.5q-11 172 -11 414zM219 1055q0 -33 1 -167t1 -175q0 -72 53 -72q54 0 60 92q2 33 2 336v297q0 94 -60 94 q-31 0 -42 -22t-13 -84q-2 -102 -2 -299z" />
<glyph unicode="&#xb7;" horiz-adv-x="329" d="M59 659v291h211v-291h-211z" />
<glyph unicode="&#xb8;" horiz-adv-x="589" d="M178 -272q78 -4 120 18t42 66q0 26 -30.5 57t-35.5 41q-47 33 -43 90h123q0 -15 1 -22t9 -17.5t25 -19.5q8 -10 39.5 -33t49.5 -50.5t18 -70.5q0 -85 -83 -134t-235 -28v103z" />
<glyph unicode="&#xb9;" horiz-adv-x="450" d="M43 1450v86q59 2 95.5 17.5t50.5 34t26 50.5h90v-843h-129v655h-133z" />
<glyph unicode="&#xba;" horiz-adv-x="522" d="M25 369v157h485v-157h-485zM29 1114q0 148 10 318q8 92 62.5 148t158.5 56q107 0 161.5 -56t59.5 -155q0 -25 3 -137t3 -174q0 -212 -6 -332q-8 -96 -65.5 -152.5t-157.5 -56.5q-109 0 -163.5 57t-59.5 148q-6 216 -6 336zM203 1110q0 -53 1 -157.5t1 -133.5 q0 -80 53 -80q55 0 55 82v289v268q0 47 -13 67.5t-42 20.5q-53 0 -53 -88q-2 -59 -2 -268z" />
<glyph unicode="&#xbb;" horiz-adv-x="575" d="M25 279v229l120 211l-120 213v227l260 -373v-135zM301 279v229l121 211l-121 213v227l260 -373v-135z" />
<glyph unicode="&#xbc;" horiz-adv-x="886" d="M8 1450v86q59 2 95.5 17.5t50.5 34t26 50.5h92v-843h-129v655h-135zM186 0q119 527 195 866l174 772h68q-117 -512 -191 -841l-176 -797h-70zM424 233v101l209 508h149v-512h74v-97h-74v-233h-127v233h-231zM539 330h116v321z" />
<glyph unicode="&#xbd;" horiz-adv-x="886" d="M8 1450v86q59 2 95.5 17.5t50.5 34t26 50.5h92v-843h-129v655h-135zM156 0q120 527 196 866l172 772h70q-119 -512 -193 -841l-174 -797h-71zM467 0v90q2 54 28.5 110t63 104t72.5 95.5t61 101.5t25 105v56q0 52 -16.5 72t-47.5 20q-28 0 -41.5 -20t-13.5 -66v-111h-127 v105q0 86 49.5 136t147.5 50q170 0 180 -170q0 -74 -2 -90q-1 -50 -22 -101t-51.5 -95.5t-61.5 -89t-57 -97.5t-33 -105h221v-100h-375z" />
<glyph unicode="&#xbe;" horiz-adv-x="950" d="M20 1047h130v-115q0 -34 15.5 -47t47.5 -13q36 0 48.5 18.5t12.5 57.5v109q0 47 -20 68.5t-86 25.5l-57 4v105l59 4q60 11 78 31.5t18 86.5v105q0 57 -53 57t-53 -59v-105h-127q4 74 4 115q2 67 48 108.5t130 41.5q180 0 180 -160v-88q0 -88 -37 -131t-139 -52 q48 -1 83 -10t55 -21.5t32 -32t16 -35.5t5 -36q4 -63 -2 -123q-10 -176 -197 -176q-82 0 -135 37.5t-53 114.5zM264 0q119 527 195 866l174 772h67q-116 -512 -190 -841l-176 -797h-70zM492 233v101l210 508h150v-512h72v-97h-72v-233h-127v233h-233zM608 330h117v321z" />
<glyph unicode="&#xbf;" horiz-adv-x="532" d="M37 217q-5 76 0 203q1 67 22 138t49.5 138.5t56.5 144t45.5 184t14.5 230.5h148q6 -138 -7.5 -251t-37.5 -187t-49 -137.5t-43.5 -135.5t-18.5 -149v-125q0 -108 59 -108q66 0 66 100v148h166v-199q0 -103 -66 -162t-174 -59q-219 0 -231 227zM203 1352v286h184v-286 h-184z" />
<glyph unicode="&#xc0;" horiz-adv-x="585" d="M0 0l174 1638h270l142 -1638h-193q-20 319 -24 393h-150l-31 -393h-188zM106 1950h193l117 -254h-172zM227 563h133q-43 517 -45 572l-14 233q-12 -165 -14 -231z" />
<glyph unicode="&#xc1;" horiz-adv-x="585" d="M0 0l174 1638h270l142 -1638h-193q-20 319 -24 393h-150l-31 -393h-188zM217 1698l113 254h192l-139 -254h-166zM227 563h133q-43 517 -45 572l-14 233q-12 -165 -14 -231z" />
<glyph unicode="&#xc2;" horiz-adv-x="585" d="M0 0l174 1638h270l142 -1638h-193q-20 319 -24 393h-150l-31 -393h-188zM96 1698l117 258h195l116 -258h-151l-64 143l-63 -143h-150zM227 563h133q-43 517 -45 572l-14 233q-12 -165 -14 -231z" />
<glyph unicode="&#xc3;" horiz-adv-x="585" d="M0 0l174 1638h270l142 -1638h-193q-20 319 -24 393h-150l-31 -393h-188zM57 1712q6 93 43.5 149t96.5 56q69 0 114 -53q2 -2 8 -8.5t8.5 -8.5t7.5 -6.5t8.5 -6.5t8.5 -4.5t10 -3.5t11 -1q38 0 47 88l102 -10q-6 -100 -42 -153.5t-97 -53.5q-62 0 -98 41q-3 3 -16.5 16 t-18.5 17t-17 9t-24 5q-39 0 -45 -82zM227 563h133q-43 517 -45 572l-14 233q-12 -165 -14 -231z" />
<glyph unicode="&#xc4;" horiz-adv-x="585" d="M0 0l174 1638h270l142 -1638h-193q-20 319 -24 393h-150l-31 -393h-188zM104 1696v205h146v-205h-146zM227 563h133q-43 517 -45 572l-14 233q-12 -165 -14 -231zM348 1696v205h148v-205h-148z" />
<glyph unicode="&#xc5;" horiz-adv-x="585" d="M0 0l174 1632q-20 38 -20 78q0 67 45 113.5t110 46.5q66 0 112 -46.5t46 -113.5q0 -41 -23 -82l142 -1628h-193q-20 319 -24 393h-150l-31 -393h-188zM227 563h133q-43 517 -45 572l-14 233q-12 -165 -14 -231zM246 1710q0 -27 18.5 -47.5t44.5 -20.5t46 21t20 47 q0 28 -20 49t-46 21t-44.5 -21t-18.5 -49z" />
<glyph unicode="&#xc6;" horiz-adv-x="745" d="M4 0l172 1638h569v-194h-237v-526h203v-185h-203v-543h235v-190h-421v379h-97l-32 -379h-189zM231 557h88v879q-20 -212 -22 -226z" />
<glyph unicode="&#xc7;" horiz-adv-x="604" d="M37 829q0 88 2 305t2 232q7 148 79 214.5t212 66.5q121 0 182.5 -75t65.5 -231v-258h-187v289q-1 44 -20 65t-49 21q-84 0 -84 -100q-2 -72 -2 -524q0 -451 4 -537q3 -72 22 -100.5t55 -28.5q35 0 55.5 29t20.5 108v246h187v-281q0 -118 -55.5 -191.5t-157.5 -88.5 q0 -30 34 -49q8 -10 39.5 -33t49.5 -50.5t18 -70.5q0 -85 -82.5 -134t-234.5 -28v103q78 -4 119.5 18t41.5 66q0 26 -30 57t-35 41q-43 31 -43 82q-180 33 -199 237q-10 137 -10 600z" />
<glyph unicode="&#xc8;" horiz-adv-x="512" d="M49 0v1638h457v-194h-264v-526h235v-185h-235v-543h266v-190h-459zM106 1952h193l117 -254h-172z" />
<glyph unicode="&#xc9;" horiz-adv-x="512" d="M49 0v1638h457v-194h-264v-526h235v-185h-235v-543h266v-190h-459zM152 1696l112 254h193l-140 -254h-165z" />
<glyph unicode="&#xca;" horiz-adv-x="512" d="M49 0v1638h457v-194h-264v-526h235v-185h-235v-543h266v-190h-459zM63 1698l117 258h195l117 -258h-152l-64 143l-63 -143h-150z" />
<glyph unicode="&#xcb;" horiz-adv-x="512" d="M49 0v1638h457v-194h-264v-526h235v-185h-235v-543h266v-190h-459zM90 1698v205h146v-205h-146zM334 1698v205h147v-205h-147z" />
<glyph unicode="&#xcc;" horiz-adv-x="292" d="M-72 1952h193l117 -254h-172zM49 0v1638h195v-1638h-195z" />
<glyph unicode="&#xcd;" horiz-adv-x="292" d="M49 0v1638h195v-1638h-195zM63 1698l113 254h193l-140 -254h-166z" />
<glyph unicode="&#xce;" horiz-adv-x="292" d="M-47 1698l117 258h194l117 -258h-152l-63 143l-64 -143h-149zM49 0v1638h195v-1638h-195z" />
<glyph unicode="&#xcf;" horiz-adv-x="292" d="M-39 1698v205h145v-205h-145zM49 0v1638h195v-1638h-195zM205 1698v205h147v-205h-147z" />
<glyph unicode="&#xd0;" horiz-adv-x="610" d="M12 727v193h41v718h248q197 0 242 -157q37 -87 37 -625q0 -601 -37 -700q-22 -72 -69 -114t-140 -42h-281v727h-41zM246 152h80q28 0 47 21.5t20 64.5q2 68 2 620q0 380 -4 494q0 58 -23.5 88t-60.5 30h-61v-550h67v-193h-67v-575z" />
<glyph unicode="&#xd1;" d="M49 0v1638h176l172 -862v862h176v-1638h-178l-172 834v-834h-174zM76 1712q6 94 43 149.5t96 55.5q70 0 115 -53q2 -2 9 -9.5t10 -10l9 -7.5t10 -6.5t10 -3.5t13 -2q38 0 47 88l103 -10q-6 -100 -42.5 -153.5t-97.5 -53.5q-62 0 -98 41q-3 3 -16.5 16t-18.5 17t-17 9 t-24 5q-39 0 -45 -82z" />
<glyph unicode="&#xd2;" d="M37 823q0 91 1 306t1 217q7 301 270 301q134 0 200.5 -71.5t72.5 -219.5q4 -70 4 -527q0 -444 -4 -548q-5 -148 -70.5 -221.5t-202.5 -73.5q-135 0 -200 71t-70 215q0 12 -1 237t-1 314zM111 1952h192l117 -254h-172zM236 815q0 -498 2 -534q3 -57 18.5 -84t56.5 -27 q69 0 76 111q4 136 4 540q0 450 -2 516q-2 67 -19 95t-59 28q-19 0 -32.5 -6t-21 -15t-12 -27.5t-6.5 -34t-3 -44.5q-2 -33 -2 -518z" />
<glyph unicode="&#xd3;" d="M37 823q0 91 1 306t1 217q7 301 270 301q134 0 200.5 -71.5t72.5 -219.5q4 -70 4 -527q0 -444 -4 -548q-5 -148 -70.5 -221.5t-202.5 -73.5q-135 0 -200 71t-70 215q0 12 -1 237t-1 314zM227 1698l113 254h192l-139 -254h-166zM236 815q0 -498 2 -534q3 -57 18.5 -84 t56.5 -27q69 0 76 111q4 136 4 540q0 450 -2 516q-2 67 -19 95t-59 28q-19 0 -32.5 -6t-21 -15t-12 -27.5t-6.5 -34t-3 -44.5q-2 -33 -2 -518z" />
<glyph unicode="&#xd4;" d="M37 823q0 91 1 306t1 217q7 301 270 301q134 0 200.5 -71.5t72.5 -219.5q4 -70 4 -527q0 -444 -4 -548q-5 -148 -70.5 -221.5t-202.5 -73.5q-135 0 -200 71t-70 215q0 12 -1 237t-1 314zM102 1698l117 258h195l116 -258h-151l-64 143l-63 -143h-150zM236 815 q0 -498 2 -534q3 -57 18.5 -84t56.5 -27q69 0 76 111q4 136 4 540q0 450 -2 516q-2 67 -19 95t-59 28q-19 0 -32.5 -6t-21 -15t-12 -27.5t-6.5 -34t-3 -44.5q-2 -33 -2 -518z" />
<glyph unicode="&#xd5;" d="M37 823q0 91 1 306t1 217q7 301 270 301q134 0 200.5 -71.5t72.5 -219.5q4 -70 4 -527q0 -444 -4 -548q-5 -148 -70.5 -221.5t-202.5 -73.5q-135 0 -200 71t-70 215q0 12 -1 237t-1 314zM76 1712q6 94 43 149.5t96 55.5q70 0 115 -53q2 -2 9 -9.5t10 -10l9 -7.5t10 -6.5 t10 -3.5t13 -2q38 0 47 88l103 -10q-6 -100 -42.5 -153.5t-97.5 -53.5q-62 0 -98 41q-3 3 -16.5 16t-18.5 17t-17 9t-24 5q-39 0 -45 -82zM236 815q0 -498 2 -534q3 -57 18.5 -84t56.5 -27q69 0 76 111q4 136 4 540q0 450 -2 516q-2 67 -19 95t-59 28q-19 0 -32.5 -6 t-21 -15t-12 -27.5t-6.5 -34t-3 -44.5q-2 -33 -2 -518z" />
<glyph unicode="&#xd6;" d="M37 823q0 91 1 306t1 217q7 301 270 301q134 0 200.5 -71.5t72.5 -219.5q4 -70 4 -527q0 -444 -4 -548q-5 -148 -70.5 -221.5t-202.5 -73.5q-135 0 -200 71t-70 215q0 12 -1 237t-1 314zM115 1696v205h145v-205h-145zM236 815q0 -498 2 -534q3 -57 18.5 -84t56.5 -27 q69 0 76 111q4 136 4 540q0 450 -2 516q-2 67 -19 95t-59 28q-19 0 -32.5 -6t-21 -15t-12 -27.5t-6.5 -34t-3 -44.5q-2 -33 -2 -518zM358 1696v205h148v-205h-148z" />
<glyph unicode="&#xd7;" horiz-adv-x="481" d="M33 674l114 114l-114 115l94 98l115 -114l114 114l95 -98l-117 -115l117 -114l-95 -99l-114 117l-115 -117z" />
<glyph unicode="&#xd8;" d="M37 823q0 91 1 306t1 217q7 301 270 301q67 0 119 -19l6 35h64q-5 -27 -13 -66q91 -70 97 -241q4 -70 4 -527q0 -444 -4 -548q-5 -148 -70.5 -221.5t-202.5 -73.5q-65 0 -108 14l-15 -76h-65l18 105q-94 67 -100 243q0 12 -1 237t-1 314zM236 557l151 842q-11 67 -74 67 q-19 0 -32.5 -6t-21 -15t-12 -27.5t-6.5 -34t-3 -44.5q-2 -33 -2 -524v-258zM242 233q6 -35 22 -52t49 -17q69 0 76 110q4 136 4 547v256q0 1 -37.5 -210t-75.5 -423z" />
<glyph unicode="&#xd9;" horiz-adv-x="614" d="M41 254v1384h190v-1355q0 -62 18 -86.5t58 -24.5q38 0 54 24.5t16 84.5v1357h192v-1384q0 -128 -67 -197t-191 -69q-127 0 -198.5 66.5t-71.5 199.5zM117 1952h192l117 -254h-172z" />
<glyph unicode="&#xda;" horiz-adv-x="614" d="M41 254v1384h190v-1355q0 -62 18 -86.5t58 -24.5q38 0 54 24.5t16 84.5v1357h192v-1384q0 -128 -67 -197t-191 -69q-127 0 -198.5 66.5t-71.5 199.5zM209 1698l113 254h192l-139 -254h-166z" />
<glyph unicode="&#xdb;" horiz-adv-x="614" d="M41 254v1384h190v-1355q0 -62 18 -86.5t58 -24.5q38 0 54 24.5t16 84.5v1357h192v-1384q0 -128 -67 -197t-191 -69q-127 0 -198.5 66.5t-71.5 199.5zM94 1698l117 258h195l116 -258h-151l-64 143l-63 -143h-150z" />
<glyph unicode="&#xdc;" horiz-adv-x="614" d="M41 254v1384h190v-1355q0 -62 18 -86.5t58 -24.5q38 0 54 24.5t16 84.5v1357h192v-1384q0 -128 -67 -197t-191 -69q-127 0 -198.5 66.5t-71.5 199.5zM111 1696v205h145v-205h-145zM354 1696v205h148v-205h-148z" />
<glyph unicode="&#xdd;" horiz-adv-x="641" d="M0 1638h199q116 -678 120 -768q1 41 34 233t65 363l33 172h190l-229 -1022v-616h-197v610zM205 1696l112 254h193l-139 -254h-166z" />
<glyph unicode="&#xde;" horiz-adv-x="600" d="M47 0v1638h203v-313h65q200 0 232 -221q16 -42 24.5 -121t8.5 -145q0 -68 -10 -149.5t-27 -123.5q-37 -207 -221 -213h-76v-352h-199zM246 516h35q98 0 98 182v129v109q0 82 -12 128t-31.5 61.5t-52.5 15.5h-37v-625z" />
<glyph unicode="&#xdf;" horiz-adv-x="798" d="M6 973v153h74v254q0 130 72 197.5t198 67.5q111 0 180.5 -67t69.5 -185q0 -60 -20.5 -121t-45 -104.5t-45 -107.5t-20.5 -128q0 -47 7 -82t25.5 -63t26.5 -37.5t33 -34.5q78 -78 96 -94q49 -43 84 -138.5t35 -210.5q0 -142 -56 -213t-179 -71q-112 0 -170 46.5t-62 149.5 q0 21 -1 83.5t-1 86.5h178v-141q0 -82 54 -82q32 0 45.5 22.5t13.5 100.5q0 169 -66 235q-18 19 -45.5 48t-46.5 47q-42 41 -62.5 65t-43.5 64t-32 90.5t-9 120.5q0 68 19 133.5t42.5 108t42.5 95t19 97.5q0 71 -16 99t-62 28q-44 0 -62 -26.5t-18 -88.5v-1370h-178v973h-74 z" />
<glyph unicode="&#xe0;" horiz-adv-x="507" d="M18 150q-4 106 0 237q3 106 46 166t149 102q48 17 98 31v203q0 80 -49 80q-53 0 -53 -82v-160h-164q0 123 6 225q5 85 61 137t156 52q213 0 213 -211q0 -61 -1 -224.5t-1 -216.5q0 -60 -1 -184t-1 -155q0 -122 8 -150h-166q-4 43 -4 57q-49 -65 -139 -65q-29 0 -53.5 6.5 t-48.5 23t-39 49t-17 79.5zM86 1448h193l116 -254h-172zM193 221q3 -78 57 -78q61 0 61 105v190q0 10 -1 53.5t-1 53.5q-6 -3 -17.5 -7.5t-17.5 -7.5q-42 -21 -57 -43q-5 -7 -9 -14t-6.5 -12.5t-4 -14t-2.5 -12t-1.5 -14.5t-0.5 -13.5v-15.5v-16v-154z" />
<glyph unicode="&#xe1;" horiz-adv-x="507" d="M18 150q-4 106 0 237q3 106 46 166t149 102q48 17 98 31v203q0 80 -49 80q-53 0 -53 -82v-160h-164q0 123 6 225q5 85 61 137t156 52q213 0 213 -211q0 -61 -1 -224.5t-1 -216.5q0 -60 -1 -184t-1 -155q0 -122 8 -150h-166q-4 43 -4 57q-49 -65 -139 -65q-29 0 -53.5 6.5 t-48.5 23t-39 49t-17 79.5zM147 1194l113 254h193l-140 -254h-166zM193 221q3 -78 57 -78q61 0 61 105v190q0 10 -1 53.5t-1 53.5q-6 -3 -17.5 -7.5t-17.5 -7.5q-42 -21 -57 -43q-5 -7 -9 -14t-6.5 -12.5t-4 -14t-2.5 -12t-1.5 -14.5t-0.5 -13.5v-15.5v-16v-154z" />
<glyph unicode="&#xe2;" horiz-adv-x="507" d="M18 150q-4 106 0 237q3 106 46 166t149 102q48 17 98 31v203q0 80 -49 80q-53 0 -53 -82v-160h-164q0 123 6 225q5 85 61 137t156 52q213 0 213 -211q0 -61 -1 -224.5t-1 -216.5q0 -60 -1 -184t-1 -155q0 -122 8 -150h-166q-4 43 -4 57q-49 -65 -139 -65q-29 0 -53.5 6.5 t-48.5 23t-39 49t-17 79.5zM55 1194l117 258h195l116 -258h-151l-64 143l-63 -143h-150zM193 221q3 -78 57 -78q61 0 61 105v190q0 10 -1 53.5t-1 53.5q-6 -3 -17.5 -7.5t-17.5 -7.5q-42 -21 -57 -43q-5 -7 -9 -14t-6.5 -12.5t-4 -14t-2.5 -12t-1.5 -14.5t-0.5 -13.5v-15.5 v-16v-154z" />
<glyph unicode="&#xe3;" horiz-adv-x="507" d="M18 150q-4 106 0 237q3 106 46 166t149 102q48 17 98 31v203q0 80 -49 80q-53 0 -53 -82v-160h-164q0 123 6 225q5 85 61 137t156 52q213 0 213 -211q0 -61 -1 -224.5t-1 -216.5q0 -60 -1 -184t-1 -155q0 -122 8 -150h-166q-4 43 -4 57q-49 -65 -139 -65q-29 0 -53.5 6.5 t-48.5 23t-39 49t-17 79.5zM20 1210q6 93 43.5 149t96.5 56q69 0 114 -53q2 -2 8 -8.5t8.5 -8.5t7.5 -6.5t8.5 -6.5t8.5 -4.5t10 -3.5t11 -1q38 0 47 88l102 -10q-6 -100 -42 -153.5t-97 -53.5q-62 0 -98 41q-3 3 -16.5 16t-18.5 17t-17 9t-24 5q-39 0 -45 -82zM193 221 q3 -78 57 -78q61 0 61 105v190q0 10 -1 53.5t-1 53.5q-6 -3 -17.5 -7.5t-17.5 -7.5q-42 -21 -57 -43q-5 -7 -9 -14t-6.5 -12.5t-4 -14t-2.5 -12t-1.5 -14.5t-0.5 -13.5v-15.5v-16v-154z" />
<glyph unicode="&#xe4;" horiz-adv-x="507" d="M18 150q-4 106 0 237q3 106 46 166t149 102q48 17 98 31v203q0 80 -49 80q-53 0 -53 -82v-160h-164q0 123 6 225q5 85 61 137t156 52q213 0 213 -211q0 -61 -1 -224.5t-1 -216.5q0 -60 -1 -184t-1 -155q0 -122 8 -150h-166q-4 43 -4 57q-49 -65 -139 -65q-29 0 -53.5 6.5 t-48.5 23t-39 49t-17 79.5zM59 1194v205h146v-205h-146zM193 221q3 -78 57 -78q61 0 61 105v190q0 10 -1 53.5t-1 53.5q-6 -3 -17.5 -7.5t-17.5 -7.5q-42 -21 -57 -43q-5 -7 -9 -14t-6.5 -12.5t-4 -14t-2.5 -12t-1.5 -14.5t-0.5 -13.5v-15.5v-16v-154zM303 1194v205h148 v-205h-148z" />
<glyph unicode="&#xe5;" horiz-adv-x="507" d="M18 150q-4 106 0 237q3 106 46 166t149 102q48 17 98 31v203q0 80 -49 80q-53 0 -53 -82v-160h-164q0 123 6 225q5 85 61 137t156 52q213 0 213 -211q0 -61 -1 -224.5t-1 -216.5q0 -60 -1 -184t-1 -155q0 -122 8 -150h-166q-4 43 -4 57q-49 -65 -139 -65q-29 0 -53.5 6.5 t-48.5 23t-39 49t-17 79.5zM98 1343q0 67 45.5 113.5t110.5 46.5q66 0 112 -46.5t46 -113.5q0 -66 -46 -112.5t-112 -46.5q-65 0 -110.5 46.5t-45.5 112.5zM190 1343q0 -27 19 -47t45 -20t45.5 20.5t19.5 46.5q0 28 -19.5 49t-45.5 21t-45 -21t-19 -49zM193 221 q3 -78 57 -78q61 0 61 105v190q0 10 -1 53.5t-1 53.5q-6 -3 -17.5 -7.5t-17.5 -7.5q-42 -21 -57 -43q-5 -7 -9 -14t-6.5 -12.5t-4 -14t-2.5 -12t-1.5 -14.5t-0.5 -13.5v-15.5v-16v-154z" />
<glyph unicode="&#xe6;" horiz-adv-x="772" d="M16 162q0 147 2 225q8 194 195 268q45 22 98 31v207q0 78 -49 78q-53 0 -53 -82v-162h-164q0 157 6 225q5 85 61 137t156 52q98 0 146 -56q31 54 123 54q85 0 136 -45.5t60 -102.5q19 -58 19 -495h-273v-277q0 -74 56 -74q53 0 53 74v127h164q0 -9 -1.5 -41t-7 -80 t-12.5 -71q-25 -166 -196 -166q-136 0 -183 96q-18 -41 -63.5 -66.5t-104.5 -25.5q-68 0 -116 38.5t-52 131.5zM193 227q3 -80 55 -80q63 0 63 107v192q0 13 -1 57t-1 52q-33 -11 -35 -12q-36 -23 -53 -49q-18 -23 -23 -51.5t-5 -82.5v-133zM477 641h109v272q0 32 -16.5 49 t-39.5 17q-21 0 -35.5 -17t-15.5 -51q0 -8 -1 -135t-1 -135z" />
<glyph unicode="&#xe7;" horiz-adv-x="489" d="M29 563q0 259 14 383q11 91 64.5 142t146.5 51q176 0 203 -174q8 -47 8 -258h-164v139q-2 84 -13 103q-11 17 -34 18q-30 0 -39.5 -24t-9.5 -85v-297q0 -19 -0.5 -89t-0.5 -129.5t1 -92.5q0 -54 11 -75t40 -21q27 0 37 21.5t10 76.5v162h162q0 -188 -10 -252 q-19 -145 -150 -168q3 -26 35 -45q8 -10 39.5 -33t49 -50.5t17.5 -70.5q0 -85 -82.5 -134t-234.5 -28v103q78 -4 120 18t42 66q0 26 -30.5 57t-35.5 41q-43 31 -43 80q-60 17 -95.5 58t-43.5 98q-14 112 -14 409z" />
<glyph unicode="&#xe8;" horiz-adv-x="497" d="M31 551q0 281 18 422q9 66 58.5 116t146.5 50q95 0 144.5 -43t58.5 -105q16 -107 16 -506h-270v-264q0 -74 53 -74q23 0 39 17.5t16 56.5v125h158q0 -138 -12 -194q-19 -84 -66 -124t-135 -40q-170 0 -197 141q-28 142 -28 422zM53 1448h193l116 -254h-172zM199 641h108 q0 15 -1 134t-1 134q0 66 -53 66q-48 0 -51 -66q0 -8 -1 -131.5t-1 -136.5z" />
<glyph unicode="&#xe9;" horiz-adv-x="497" d="M31 551q0 281 18 422q9 66 58.5 116t146.5 50q95 0 144.5 -43t58.5 -105q16 -107 16 -506h-270v-264q0 -74 53 -74q23 0 39 17.5t16 56.5v125h158q0 -138 -12 -194q-19 -84 -66 -124t-135 -40q-170 0 -197 141q-28 142 -28 422zM139 1194l113 254h192l-139 -254h-166z M199 641h108q0 15 -1 134t-1 134q0 66 -53 66q-48 0 -51 -66q0 -8 -1 -131.5t-1 -136.5z" />
<glyph unicode="&#xea;" horiz-adv-x="497" d="M31 551q0 281 18 422q9 66 58.5 116t146.5 50q95 0 144.5 -43t58.5 -105q16 -107 16 -506h-270v-264q0 -74 53 -74q23 0 39 17.5t16 56.5v125h158q0 -138 -12 -194q-19 -84 -66 -124t-135 -40q-170 0 -197 141q-28 142 -28 422zM35 1194l117 258h194l117 -258h-152 l-63 143l-64 -143h-149zM199 641h108q0 15 -1 134t-1 134q0 66 -53 66q-48 0 -51 -66q0 -8 -1 -131.5t-1 -136.5z" />
<glyph unicode="&#xeb;" horiz-adv-x="497" d="M31 551q0 281 18 422q9 66 58.5 116t146.5 50q95 0 144.5 -43t58.5 -105q16 -107 16 -506h-270v-264q0 -74 53 -74q23 0 39 17.5t16 56.5v125h158q0 -138 -12 -194q-19 -84 -66 -124t-135 -40q-170 0 -197 141q-28 142 -28 422zM53 1194v205h146v-205h-146zM199 641h108 q0 15 -1 134t-1 134q0 66 -53 66q-48 0 -51 -66q0 -8 -1 -131.5t-1 -136.5zM297 1194v205h147v-205h-147z" />
<glyph unicode="&#xec;" horiz-adv-x="264" d="M-72 1448h193l117 -254h-172zM41 74v1052h180v-1042l6 -84h-176q-10 3 -10 74z" />
<glyph unicode="&#xed;" horiz-adv-x="264" d="M25 1194l112 254h193l-140 -254h-165zM41 74v1052h180v-1042l6 -84h-176q-10 3 -10 74z" />
<glyph unicode="&#xee;" horiz-adv-x="264" d="M-82 1194l117 258h194l117 -258h-151l-64 143l-63 -143h-150zM41 74v1052h180v-1042l6 -84h-176q-10 3 -10 74z" />
<glyph unicode="&#xef;" horiz-adv-x="264" d="M-63 1194v205h145v-205h-145zM41 74v1052h180v-1042l6 -84h-176q-10 3 -10 74zM180 1194v205h148v-205h-148z" />
<glyph unicode="&#xf0;" horiz-adv-x="544" d="M31 536.5q0 281.5 14 383.5q11 58 58.5 99.5t115.5 41.5q38 0 61 -13t52 -51v177q-24 -7 -41 -7q-46 0 -83 33t-56 92l75 33q17 -68 62 -68q23 0 43 15v94q0 75 -14 108t-52 33q-34 0 -45.5 -16t-11.5 -59v-46h-172q0 26 4 84q5 73 63 126t156 53q219 0 236 -248 q1 -10 2 -33t2 -35q16 6 43 6q96 0 135 -114l-70 -43q-8 32 -24.5 51.5t-38.5 19.5q-19 0 -39 -16q6 -288 6 -311q0 -574 -29 -733q-22 -107 -67.5 -156t-147.5 -49q-104 0 -152.5 43.5t-66.5 136.5q-18 87 -18 368.5zM212 397q0 -131 1 -155q1 -63 13 -84t44 -21 q34 0 46.5 19t13.5 80q0 19 3 264t3 295q-7 57 -20.5 87.5t-43.5 30.5q-59 0 -59 -77q0 -2 -0.5 -155t-0.5 -284z" />
<glyph unicode="&#xf1;" horiz-adv-x="522" d="M20 1210q6 93 43.5 149t96.5 56q69 0 114 -53q2 -2 8 -8.5t8.5 -8.5t7.5 -6.5t8.5 -6.5t8.5 -4.5t10 -3.5t11 -1q38 0 47 88l102 -10q-6 -100 -42 -153.5t-97 -53.5q-62 0 -98 41q-3 3 -16.5 16t-18.5 17t-17 9t-24 5q-39 0 -45 -82zM39 0v1126h170v-94q9 53 46.5 80 t88.5 27q70 0 105.5 -46t35.5 -130q0 -963 4 -963h-174q-4 2 -4 893q0 34 -9 46.5t-32 12.5q-57 0 -57 -125v-827h-174z" />
<glyph unicode="&#xf2;" horiz-adv-x="516" d="M29 563q0 199 10 369q8 93 62.5 150t158.5 57q106 0 162.5 -58.5t58.5 -152.5q6 -258 6 -365q0 -244 -6 -364q-8 -96 -65.5 -152.5t-157.5 -56.5q-109 0 -163.5 57t-59.5 148q-6 216 -6 368zM49 1448h193l116 -254h-172zM203 561q0 -55 1 -176.5t1 -148.5q0 -82 53 -82 q55 0 55 84v323v322q0 49 -12.5 68.5t-42.5 19.5q-53 0 -53 -88q-2 -59 -2 -322z" />
<glyph unicode="&#xf3;" horiz-adv-x="516" d="M29 563q0 199 10 369q8 93 62.5 150t158.5 57q106 0 162.5 -58.5t58.5 -152.5q6 -258 6 -365q0 -244 -6 -364q-8 -96 -65.5 -152.5t-157.5 -56.5q-109 0 -163.5 57t-59.5 148q-6 216 -6 368zM150 1194l112 254h193l-140 -254h-165zM203 561q0 -55 1 -176.5t1 -148.5 q0 -82 53 -82q55 0 55 84v323v322q0 49 -12.5 68.5t-42.5 19.5q-53 0 -53 -88q-2 -59 -2 -322z" />
<glyph unicode="&#xf4;" horiz-adv-x="516" d="M29 563q0 199 10 369q8 93 62.5 150t158.5 57q106 0 162.5 -58.5t58.5 -152.5q6 -258 6 -365q0 -244 -6 -364q-8 -96 -65.5 -152.5t-157.5 -56.5q-109 0 -163.5 57t-59.5 148q-6 216 -6 368zM45 1194l117 258h194l117 -258h-151l-64 143l-63 -143h-150zM203 561 q0 -55 1 -176.5t1 -148.5q0 -82 53 -82q55 0 55 84v323v322q0 49 -12.5 68.5t-42.5 19.5q-53 0 -53 -88q-2 -59 -2 -322z" />
<glyph unicode="&#xf5;" horiz-adv-x="516" d="M25 1210q6 94 43 149.5t96 55.5q70 0 115 -53q2 -2 9 -9.5t10 -10l9 -7.5t10 -6.5t10 -3.5t13 -2q38 0 47 88l102 -10q-6 -100 -42 -153.5t-97 -53.5q-62 0 -98 41q-3 3 -16.5 16t-18.5 17t-17 9t-24 5q-39 0 -45 -82zM29 563q0 199 10 369q8 93 62.5 150t158.5 57 q106 0 162.5 -58.5t58.5 -152.5q6 -258 6 -365q0 -244 -6 -364q-8 -96 -65.5 -152.5t-157.5 -56.5q-109 0 -163.5 57t-59.5 148q-6 216 -6 368zM203 561q0 -55 1 -176.5t1 -148.5q0 -82 53 -82q55 0 55 84v323v322q0 49 -12.5 68.5t-42.5 19.5q-53 0 -53 -88q-2 -59 -2 -322 z" />
<glyph unicode="&#xf6;" horiz-adv-x="516" d="M29 563q0 199 10 369q8 93 62.5 150t158.5 57q106 0 162.5 -58.5t58.5 -152.5q6 -258 6 -365q0 -244 -6 -364q-8 -96 -65.5 -152.5t-157.5 -56.5q-109 0 -163.5 57t-59.5 148q-6 216 -6 368zM63 1194v205h146v-205h-146zM203 561q0 -55 1 -176.5t1 -148.5q0 -82 53 -82 q55 0 55 84v323v322q0 49 -12.5 68.5t-42.5 19.5q-53 0 -53 -88q-2 -59 -2 -322zM307 1194v205h148v-205h-148z" />
<glyph unicode="&#xf7;" horiz-adv-x="514" d="M8 741v150h498v-150h-498zM178 516v150h158v-150h-158zM178 969v147h158v-147h-158z" />
<glyph unicode="&#xf8;" horiz-adv-x="518" d="M29 563q0 199 10 369q8 93 62.5 150t158.5 57q36 0 78 -11l8 48h49l-12 -66q95 -56 98 -182q6 -258 6 -365q0 -244 -6 -364q-8 -96 -65.5 -152.5t-157.5 -56.5q-30 0 -76 8l-8 -51h-51l12 69q-93 52 -100 179q-6 216 -6 368zM203 391l100 553q-12 27 -45 27 q-53 0 -53 -88q-2 -59 -2 -322v-170zM215 180q14 -26 43 -26q55 0 55 84v323v160z" />
<glyph unicode="&#xf9;" horiz-adv-x="522" d="M37 156v970h174v-901q0 -69 43 -69q29 0 42 26t13 86v858h174v-1001q0 -89 4 -125h-165l-7 55q-34 -61 -129 -61q-72 0 -110.5 44t-38.5 118zM94 1448h193l116 -254h-172z" />
<glyph unicode="&#xfa;" horiz-adv-x="522" d="M37 156v970h174v-901q0 -69 43 -69q29 0 42 26t13 86v858h174v-1001q0 -89 4 -125h-165l-7 55q-34 -61 -129 -61q-72 0 -110.5 44t-38.5 118zM147 1194l113 254h193l-140 -254h-166z" />
<glyph unicode="&#xfb;" horiz-adv-x="522" d="M37 156v970h174v-901q0 -69 43 -69q29 0 42 26t13 86v858h174v-1001q0 -89 4 -125h-165l-7 55q-34 -61 -129 -61q-72 0 -110.5 44t-38.5 118zM49 1194l117 258h194l117 -258h-151l-64 143l-63 -143h-150z" />
<glyph unicode="&#xfc;" horiz-adv-x="522" d="M37 156v970h174v-901q0 -69 43 -69q29 0 42 26t13 86v858h174v-1001q0 -89 4 -125h-165l-7 55q-34 -61 -129 -61q-72 0 -110.5 44t-38.5 118zM68 1194v205h145v-205h-145zM311 1194v205h148v-205h-148z" />
<glyph unicode="&#xfd;" horiz-adv-x="520" d="M0 1126h182q0 -4 17.5 -146t37.5 -317.5t27 -263.5q5 87 23.5 261.5t35.5 318.5t17 147h180l-241 -1454h-181l68 387zM145 1194l113 254h193l-140 -254h-166z" />
<glyph unicode="&#xfe;" horiz-adv-x="528" d="M39 -328v1966h168v-579q32 80 127 80q64 0 100.5 -35t48.5 -115q15 -126 15 -405q0 -320 -9 -414q-9 -83 -51 -127.5t-112 -44.5q-76 0 -115 39v-365h-172zM211 205q0 -64 55 -64q28 0 40.5 18.5t12.5 59.5q3 95 3 361q0 244 -3 338q0 67 -49 67q-59 0 -59 -92v-313v-375 z" />
<glyph unicode="&#xff;" horiz-adv-x="520" d="M0 1126h182q0 -4 17.5 -146t37.5 -317.5t27 -263.5q5 87 23.5 261.5t35.5 318.5t17 147h180l-241 -1454h-181l68 387zM66 1194v205h145v-205h-145zM309 1194v205h148v-205h-148z" />
<glyph unicode="&#x152;" horiz-adv-x="856" d="M37 823q0 91 1 306t1 217q7 301 270 301q116 0 166 -58v49h379v-192h-268v-531h235v-180h-235v-547h266v-188h-379l-2 55v-4q-20 -27 -64.5 -46t-97.5 -19q-135 0 -200 71t-70 215q0 12 -1 237t-1 314zM236 815q0 -512 2 -547q3 -57 18.5 -83.5t56.5 -26.5q69 0 76 110 q4 132 4 553q0 461 -2 527q-2 67 -19 94.5t-59 27.5q-19 0 -32.5 -6t-21 -15t-12 -27.5t-6.5 -34t-3 -44.5q-2 -33 -2 -528z" />
<glyph unicode="&#x153;" horiz-adv-x="774" d="M29 563q0 199 10 369q8 93 62.5 150t158.5 57q92 0 139 -62q43 62 138 62q85 0 135.5 -45t60.5 -103q19 -67 19 -504h-273v-264q0 -73 56 -73q53 0 53 73v123h164q0 -9 -1.5 -41t-7 -80t-12.5 -71q-12 -80 -59.5 -123t-128.5 -43q-46 0 -88.5 14t-59.5 43 q-17 -27 -57 -41t-90 -14q-100 0 -154 58t-59 147q-6 216 -6 368zM203 233q0 -81 55 -81t55 84v325v322q0 49 -12.5 68.5t-42.5 19.5q-55 0 -55 -88v-322v-328zM477 641h109v268q0 32 -16.5 49t-39.5 17q-21 0 -35.5 -17t-15.5 -51q0 -8 -1 -132.5t-1 -133.5z" />
<glyph unicode="&#x178;" horiz-adv-x="641" d="M0 1638h199q116 -678 120 -768q1 41 34 233t65 363l33 172h190l-229 -1022v-616h-197v610zM125 1696v205h145v-205h-145zM369 1696v205h147v-205h-147z" />
<glyph unicode="&#x2c6;" horiz-adv-x="589" d="M82 1194l117 258h194l117 -258h-152l-63 143l-64 -143h-149z" />
<glyph unicode="&#x2dc;" horiz-adv-x="589" d="M61 1210q6 93 43.5 149t96.5 56q69 0 114 -53q2 -2 8 -8.5t8.5 -8.5t7.5 -6.5t8.5 -6.5t8.5 -4.5t10 -3.5t11 -1q38 0 47 88l102 -10q-6 -100 -42 -153.5t-97 -53.5q-62 0 -98 41q-3 3 -16.5 16t-18.5 17t-17 9t-24 5q-39 0 -45 -82z" />
<glyph unicode="&#x2000;" horiz-adv-x="978" />
<glyph unicode="&#x2001;" horiz-adv-x="1956" />
<glyph unicode="&#x2002;" horiz-adv-x="978" />
<glyph unicode="&#x2003;" horiz-adv-x="1956" />
<glyph unicode="&#x2004;" horiz-adv-x="652" />
<glyph unicode="&#x2005;" horiz-adv-x="489" />
<glyph unicode="&#x2006;" horiz-adv-x="326" />
<glyph unicode="&#x2007;" horiz-adv-x="326" />
<glyph unicode="&#x2008;" horiz-adv-x="244" />
<glyph unicode="&#x2009;" horiz-adv-x="391" />
<glyph unicode="&#x200a;" horiz-adv-x="108" />
<glyph unicode="&#x2010;" horiz-adv-x="438" d="M12 727v193h414v-193h-414z" />
<glyph unicode="&#x2011;" horiz-adv-x="438" d="M12 727v193h414v-193h-414z" />
<glyph unicode="&#x2012;" horiz-adv-x="438" d="M12 727v193h414v-193h-414z" />
<glyph unicode="&#x2013;" horiz-adv-x="514" d="M20 643v172h474v-172h-474z" />
<glyph unicode="&#x2014;" horiz-adv-x="880" d="M102 643v172h676v-172h-676z" />
<glyph unicode="&#x2018;" horiz-adv-x="262" d="M37 1190v276l123 176l88 -47l-64 -133v-10h47v-262h-194z" />
<glyph unicode="&#x2019;" horiz-adv-x="262" d="M20 1233l64 133v10h-47v262h194v-278l-122 -176z" />
<glyph unicode="&#x201a;" horiz-adv-x="262" d="M20 -143l64 133v10h-47v262h194v-278l-122 -177z" />
<glyph unicode="&#x201c;" horiz-adv-x="501" d="M41 1190v276l123 176l86 -47l-62 -133v-10h45v-262h-192zM274 1190v276l123 176l86 -47l-59 -133v-10h43v-262h-193z" />
<glyph unicode="&#x201d;" horiz-adv-x="501" d="M27 1233l59 133v10h-45v262h192v-278l-122 -176zM260 1233l59 133v10h-43v262h193v-278l-123 -176z" />
<glyph unicode="&#x201e;" horiz-adv-x="501" d="M27 -143l59 133v10h-45v262h192v-278l-122 -177zM260 -143l59 133v10h-43v262h193v-278l-123 -177z" />
<glyph unicode="&#x2022;" horiz-adv-x="573" d="M76 748q0 90 62 154.5t149 64.5t149 -64.5t62 -154.5q0 -89 -62.5 -154.5t-148.5 -65.5t-148.5 65.5t-62.5 154.5z" />
<glyph unicode="&#x2026;" horiz-adv-x="991" d="M59 0v291h211v-291h-211zM389 0v291h211v-291h-211zM719 0v291h211v-291h-211z" />
<glyph unicode="&#x202f;" horiz-adv-x="391" />
<glyph unicode="&#x2039;" horiz-adv-x="292" d="M18 651v135l258 373v-227l-131 -213l131 -211v-229z" />
<glyph unicode="&#x203a;" horiz-adv-x="292" d="M18 279v229l132 211l-132 213v227l258 -373v-135z" />
<glyph unicode="&#x205f;" horiz-adv-x="489" />
<glyph unicode="&#x20ac;" horiz-adv-x="618" d="M10 645v139h62v29v31h-62v139h64q4 318 16 418q12 125 70 186.5t170 61.5q211 0 239 -252q10 -83 15 -281h-193v197q0 78 -13 111.5t-48 33.5q-37 0 -50.5 -33t-13.5 -112v-330h109v-139h-109v-31v-29h109v-139h-109v-334q0 -78 13 -110.5t51 -32.5q37 0 49 32.5 t12 110.5v181h193q-7 -191 -13 -234q-14 -136 -70.5 -203t-170.5 -67q-115 0 -172.5 67t-71.5 207q-8 77 -12 383h-64z" />
<glyph unicode="&#x2122;" horiz-adv-x="968" d="M4 1516v122h324v-122h-109v-277q0 -57 49 -57q31 0 43 2v-113q-40 -6 -92 -6q-56 0 -93.5 28t-37.5 87v336h-84zM367 1069v569h122v-90q8 47 38 74t77 27q44 0 70.5 -27.5t34.5 -69.5q22 97 120 97q115 0 115 -146v-434h-127v387q0 66 -43 66q-27 0 -41 -29.5t-14 -65.5 v-358h-125v389q0 33 -9 48.5t-34 15.5q-28 0 -43.5 -31.5t-15.5 -79.5v-342h-125z" />
<glyph unicode="&#xfb03;" horiz-adv-x="927" d="M6 958v168h68v306q0 210 186 210q28 0 78 -4v-157q-4 0 -21.5 1t-21.5 1q-47 0 -47 -72v-285h135v293q0 101 44 162t140 61q26 0 76 -4v-157q-7 0 -21 1t-24 1q-41 0 -41 -62v-295h324v-1042q0 -16 2.5 -37t4.5 -34l3 -13h-176q-5 2 -10 26t-5 48v889h-143v-963h-174v963 h-135v-963h-174v958h-68z" />
<glyph unicode="&#xfb04;" horiz-adv-x="923" d="M6 958v168h68v306q0 210 186 210q28 0 78 -4v-157q-4 0 -21.5 1t-21.5 1q-47 0 -47 -72v-285h135v293q0 101 44 162t140 61q24 0 74 -4v-157q-12 2 -43 2q-41 0 -41 -62v-295h72v-168h-72v-958h-174v958h-135v-958h-174v958h-68zM700 1638h177q4 -30 4 -59v-1497 q0 -74 8 -82q-174 -2 -174 0q-10 10 -10 68v1480q0 60 -5 90z" />
</font>
</defs>
</svg>
